<svg width="151" height="76" viewBox="0 0 151 76" fill="none" xmlns="http://www.w3.org/2000/svg">
<path d="M19.3221 46.0391C20.1219 48.0843 20.9315 49.6605 21.751 50.7679C22.5574 51.8417 23.595 52.7653 24.8638 53.5387L25.8699 54.1842L25.5324 55.2486L14.5457 59.6244L13.2751 58.1542L14.311 57.3929C15.4508 56.5514 16.1135 55.7256 16.2992 54.9154C16.4849 54.1052 16.2828 52.9458 15.6928 51.437L5.97808 26.5928C5.80765 26.157 5.60604 25.8885 5.37327 25.7875C5.12738 25.6529 4.80377 25.6655 4.40243 25.8254L1.49272 26.9843L0.163086 25.3632C1.37834 24.2205 3.07133 22.965 5.24204 21.5967C7.43309 20.1815 9.61558 19.041 11.7895 18.1752C16.7394 16.2038 20.8575 15.8617 24.1439 17.149C27.4172 18.4028 29.7422 20.7899 31.1188 24.3103C31.9709 26.4896 32.3097 28.6409 32.1349 30.7642C31.9471 32.854 31.1599 34.795 29.7734 36.5872C28.3738 38.3459 26.3362 39.758 23.6606 40.8237C22.4232 41.3165 21.3107 41.5853 20.3231 41.6298C19.369 41.6611 18.7805 41.3917 18.5576 40.8218C18.4265 40.4865 18.382 40.1749 18.424 39.8869C18.466 39.5989 18.6207 39.4016 18.8883 39.2951C19.0221 39.2418 19.3159 39.2023 19.7696 39.1765C20.2438 39.104 20.8153 38.9345 21.4842 38.6681C23.9925 37.669 25.6344 36.0851 26.4098 33.9163C27.1852 31.7475 27.0354 29.2885 25.9603 26.5392C24.8984 23.8234 23.2741 21.8935 21.0873 20.7495C18.934 19.5921 16.5028 19.5529 13.7938 20.6319C11.252 21.6443 10.2826 22.9216 10.8857 24.4639L19.3221 46.0391Z" fill="#FADC71"/>
<path d="M44.3169 47.7671C44.1354 47.8394 44.0036 47.9269 43.9215 48.0297C43.8604 48.1416 43.777 48.2187 43.6711 48.2608C43.6106 48.2849 43.5232 48.2847 43.4087 48.2602C43.3094 48.2297 43.1588 48.2021 42.9569 48.1774C42.9207 48.1743 42.8832 48.1454 42.8444 48.0908C42.8148 48.015 42.7671 47.9376 42.7013 47.8587C42.6354 47.7798 42.5683 47.6752 42.4998 47.5448C42.4939 47.5296 42.4942 47.4857 42.5008 47.413C42.5165 47.3192 42.5322 47.2253 42.5479 47.1314C42.5577 47.0224 42.5705 46.921 42.5862 46.8271C42.6019 46.7333 42.619 46.6652 42.6374 46.6228L42.9705 46.201L43.4695 46.0023C43.8173 45.8638 44.1184 45.7176 44.3728 45.5637C44.6364 45.3887 44.795 45.124 44.8487 44.7698C44.7077 44.2303 44.5604 43.7196 44.4069 43.2376C44.2534 42.7557 44.1482 42.2632 44.0914 41.7603L43.9457 40.5832L43.1188 38.4686L42.432 36.3771L41.9075 35.0356C41.8956 35.0052 41.8508 34.9355 41.7732 34.8263C41.6896 34.7019 41.603 34.5699 41.5135 34.4304C41.4181 34.2757 41.3286 34.1361 41.245 34.0118C41.1555 33.8722 41.0959 33.7646 41.0663 33.6888L40.2216 31.5287C40.0959 31.386 39.9176 31.2205 39.6867 31.0322C39.4558 30.8439 39.2515 30.7238 39.0739 30.6719L38.2819 30.7245C37.9537 30.645 37.6423 30.5413 37.3476 30.4134C37.0681 30.2794 36.8056 30.0774 36.5601 29.8073C36.4949 29.6405 36.4824 29.4966 36.5224 29.3756C36.5624 29.2545 36.634 29.1471 36.7372 29.0535C36.8404 28.9598 36.9541 28.8707 37.0784 28.7862C37.2026 28.7017 37.3193 28.6202 37.4284 28.5417L38.7689 27.0092C38.8813 26.8944 38.9769 26.8037 39.0558 26.7373C39.1439 26.6496 39.2244 26.565 39.2973 26.4834C39.3703 26.4018 39.4327 26.3156 39.4846 26.2249C39.5516 26.1281 39.6143 25.998 39.6727 25.8346L40.3127 25.5271C40.3883 25.497 40.5047 25.4594 40.6618 25.4144C40.8341 25.3633 40.9353 25.3317 40.9656 25.3197C41.0109 25.3016 41.0895 25.2791 41.2013 25.2521C41.3131 25.2251 41.4354 25.2027 41.5682 25.1848C41.701 25.1669 41.8263 25.1521 41.944 25.1402C42.0617 25.1284 42.1462 25.121 42.1974 25.1181C42.3572 25.1246 42.4908 25.2203 42.5981 25.4053C42.7146 25.5691 42.8025 25.7268 42.8617 25.8784L43.1462 26.606L43.2009 27.215C43.5105 28.2304 43.8521 29.2156 44.2255 30.1705C44.5989 31.1255 44.9691 32.1168 45.336 33.1445L45.5426 34.0082C45.5334 34.0294 45.5391 34.0885 45.5595 34.1854C45.5951 34.2764 45.6366 34.3825 45.684 34.5038C45.7314 34.625 45.7788 34.7463 45.8262 34.8676C45.8677 34.9737 45.9003 35.057 45.924 35.1177C45.9655 35.2238 46.0129 35.345 46.0663 35.4815C46.1196 35.6179 46.17 35.7467 46.2174 35.868C46.2649 35.9893 46.3064 36.0954 46.3419 36.1863C46.3867 36.2561 46.4166 36.288 46.4317 36.282C46.4495 36.3274 46.5061 36.4275 46.6016 36.5822C46.6911 36.7218 46.7493 36.8037 46.7763 36.828L46.963 37.3055C46.9808 37.3509 47.0207 37.4752 47.0826 37.6783C47.1445 37.8814 47.2183 38.1148 47.304 38.3785C47.3837 38.627 47.4634 38.8756 47.5431 39.1242C47.632 39.3515 47.6972 39.5183 47.7387 39.6244C47.7921 39.7608 47.8856 39.9776 48.0192 40.2747C48.1621 40.5507 48.3138 40.8494 48.4745 41.1708C48.6502 41.4863 48.8125 41.7895 48.9613 42.0807C49.1042 42.3566 49.1993 42.5552 49.2467 42.6765C49.3119 42.8432 49.4484 42.9465 49.6563 42.9864C49.8733 43.0051 50.0406 43.0085 50.1583 42.9967C50.2037 42.9786 50.2974 42.95 50.4394 42.911C50.5965 42.8659 50.7612 42.8179 50.9335 42.7668C51.1057 42.7157 51.2629 42.6706 51.4049 42.6316C51.5561 42.5714 51.662 42.5292 51.7224 42.5051C51.8757 42.5842 52.0092 42.6799 52.1231 42.7923C52.252 42.8986 52.358 43.0579 52.441 43.2701C52.524 43.4823 52.5813 43.696 52.613 43.9111C52.6598 44.1202 52.63 44.2897 52.5235 44.4197C52.4014 44.6436 52.2298 44.8083 52.0089 44.9138C51.8091 45.0284 51.5882 45.1339 51.3463 45.2302L50.938 45.3928L50.3048 45.3823L47.515 46.4934C47.4998 46.4994 47.3956 46.5234 47.2023 46.5653C47.0031 46.5921 46.8732 46.6176 46.8127 46.6417L46.1777 46.8946L44.3169 47.7671ZM33.1941 17.3779L33.6216 16.393L34.1389 15.5037L34.179 14.9359C34.3071 14.7272 34.4816 14.5701 34.7025 14.4646C34.9175 14.3439 35.1157 14.2475 35.2971 14.1752L35.5239 14.0849C35.545 14.094 35.5992 14.0987 35.6867 14.0989C35.7741 14.0991 35.8616 14.0993 35.9491 14.0995C36.0365 14.0997 36.1164 14.1029 36.1888 14.1091C36.2703 14.0942 36.3262 14.0807 36.3564 14.0686C36.4288 14.0749 36.5313 14.0691 36.6642 14.0512C36.8062 14.0121 36.9512 13.9807 37.0991 13.9568C37.2411 13.9178 37.3756 13.8817 37.5025 13.8487C37.6234 13.8005 37.7066 13.7674 37.752 13.7493C37.8184 13.7404 37.922 13.8043 38.0628 13.9409C38.2036 14.0775 38.3382 14.2429 38.4665 14.4371C38.604 14.61 38.7265 14.789 38.8338 14.974C38.9502 15.1379 39.0203 15.2501 39.0441 15.3107C39.1922 15.6897 39.2862 16.064 39.3258 16.4336C39.3747 16.782 39.2983 17.1453 39.0967 17.5235C39.0875 17.5446 39.051 17.5854 38.9873 17.6459C38.9327 17.6851 38.8735 17.735 38.8098 17.7954C38.7401 17.8407 38.6734 17.8935 38.6097 17.9539C38.5551 17.9932 38.5278 18.0128 38.5278 18.0128C38.5246 18.0492 38.5075 18.1173 38.4767 18.2171C38.4399 18.3019 38.3985 18.3972 38.3525 18.5031C38.3006 18.5938 38.2487 18.6846 38.1969 18.7753C38.139 18.8509 38.1055 18.8993 38.0963 18.9205C38.0471 19.0627 37.9347 19.1775 37.7592 19.265C37.5988 19.3464 37.443 19.4172 37.2918 19.4774L36.4072 19.8297C36.2409 19.896 36.0943 19.9456 35.9674 19.9786C35.8345 19.9965 35.6297 19.9642 35.3528 19.8818C34.9476 19.6052 34.5693 19.3529 34.218 19.1249C33.8667 18.8969 33.5962 18.5404 33.4066 18.0553L33.1941 17.3779Z" fill="#FADC71"/>
<path d="M64.027 39.917C63.8606 39.9832 63.6854 40.0267 63.5013 40.0475C63.3323 40.0623 63.1633 40.077 62.9943 40.0918C62.8194 40.0913 62.6399 40.1015 62.4558 40.1223C62.2868 40.137 62.1116 40.1806 61.9301 40.2528C61.537 40.4094 61.1406 40.6023 60.7409 40.8316C60.3504 41.0397 59.9283 41.234 59.4747 41.4147C59.263 41.499 59.074 41.5743 58.9077 41.6405C58.7354 41.6916 58.5632 41.7427 58.3909 41.7938C58.2279 41.8237 58.0602 41.8642 57.8879 41.9153C57.7098 41.9512 57.5089 41.9962 57.2853 42.0502L56.669 42.2168C56.4158 42.1951 56.1494 42.1172 55.8698 41.9833C55.5844 41.8342 55.3883 41.6232 55.2816 41.3504L55.1571 41.032L56.1086 38.8398L56.4135 37.2731C56.4325 37.1429 56.4617 37.0612 56.5011 37.028C56.5498 36.9735 56.5968 36.9373 56.6421 36.9192C56.6875 36.9012 56.7374 36.8725 56.792 36.8333C56.8406 36.7789 56.8925 36.6881 56.9477 36.561C57.0284 36.2311 57.0637 35.9192 57.0536 35.6254C57.0528 35.3103 57.0865 35.0166 57.1547 34.7442C57.2268 34.3476 57.2641 33.9736 57.2665 33.6222C57.263 33.2557 57.2082 32.8921 57.1021 32.5315C57.3432 32.1201 57.56 31.7359 57.7524 31.379C57.9541 31.0008 58.1285 30.6423 58.2756 30.3034C58.4075 29.9706 58.5198 29.6543 58.6123 29.3547C58.72 29.049 58.8185 28.7645 58.9077 28.5012C58.8554 27.7863 58.851 27.1047 58.8947 26.4567C58.89 26.2658 58.9487 26.0585 59.0709 25.8346C59.1871 25.5956 59.258 25.3747 59.2835 25.1718C59.3182 24.9477 59.306 24.7599 59.2467 24.6083C59.1815 24.4416 59.1873 24.2553 59.2641 24.0496L59.8881 23.4331C59.9216 23.3847 59.9314 23.2757 59.9175 23.1061C59.9128 22.9152 59.9051 22.7168 59.8945 22.5108C59.8779 22.2897 59.8492 22.0821 59.8083 21.8882C59.7766 21.6731 59.7535 21.5246 59.739 21.4428C59.8336 21.2825 59.8532 21.0644 59.7978 20.7887C59.7575 20.5069 59.7107 20.2978 59.6573 20.1614C59.6158 20.0553 59.5349 19.9824 59.4146 19.9427C59.2883 19.8879 59.1452 19.8573 58.9854 19.8508C58.8407 19.8384 58.6944 19.8441 58.5465 19.868C58.4137 19.8859 58.3019 19.9129 58.2112 19.949C57.9936 20.0181 57.7759 20.0873 57.5583 20.1565C57.3558 20.2196 57.1714 20.2843 57.0051 20.3505L55.807 20.9065C55.6821 21.0789 55.5273 21.2194 55.3426 21.328C55.173 21.4306 54.9824 21.524 54.7707 21.6083L53.0923 22.2768C52.6899 22.4546 52.3291 22.7384 52.0097 23.1284C51.6904 23.5184 51.4039 23.9478 51.1504 24.4167C50.906 24.8644 50.6798 25.3137 50.4716 25.7645C50.2785 26.2093 50.1025 26.586 49.9436 26.8946L49.6803 27.0257C49.5442 27.0799 49.3982 27.0417 49.2422 26.9111C49.0863 26.7805 48.9712 26.6424 48.8968 26.4968L49.3012 21.6319C49.3045 21.5955 49.338 21.5471 49.4018 21.4867C49.4747 21.4051 49.5342 21.3113 49.5801 21.2054L49.7843 21.1241C49.9743 21.1185 50.1055 21.1188 50.1778 21.1251C50.2594 21.1101 50.3228 21.0936 50.3682 21.0755C50.4287 21.0514 50.4921 21.0349 50.5585 21.026C50.6341 20.9959 50.7564 20.9735 50.9254 20.9587C51.2305 20.8898 51.5099 20.8223 51.7637 20.7562C52.0116 20.675 52.2519 20.5968 52.4846 20.5217C52.7173 20.4465 52.9471 20.3637 53.1739 20.2734C53.4007 20.1831 53.6427 20.0867 53.8997 19.9843C54.2778 19.8338 54.6018 19.6346 54.8719 19.3869C55.1513 19.118 55.4573 18.9173 55.7899 18.7848C57.8736 18.3929 59.9223 17.8222 61.936 17.0727C62.314 16.9221 62.6457 16.72 62.9309 16.4662C63.2313 16.2064 63.5553 16.0073 63.9031 15.8688C64.0241 15.8206 64.1812 15.7755 64.3745 15.7336C64.577 15.6705 64.7838 15.6406 64.9949 15.6442C65.2 15.6325 65.3944 15.6603 65.5779 15.7273C65.7614 15.7944 65.8887 15.9189 65.9598 16.1008L65.9767 16.278C65.8159 16.8501 65.6881 17.4616 65.5931 18.1126C65.5074 18.7424 65.3752 19.3206 65.1966 19.8472C64.9754 20.4434 64.8206 21.0307 64.7321 21.609C64.6378 22.1721 64.6171 22.7672 64.6701 23.3944L63.6554 25.5592L63.6699 26.7359L63.0316 28.1201C62.8753 28.4802 62.7643 28.8222 62.6988 29.1462C62.6483 29.4641 62.613 29.776 62.5928 30.0818C62.5726 30.3877 62.5554 30.7012 62.5411 31.0222C62.5419 31.3372 62.5155 31.6718 62.4618 32.0261L62.0699 33.1019C62.0701 33.5048 62.0072 33.8802 61.8811 34.2282C61.7551 34.5763 61.6504 34.8895 61.567 35.168C61.5074 35.5071 61.481 35.8417 61.4877 36.1719C61.5096 36.496 61.5118 36.8368 61.4943 37.1941C61.491 37.2305 61.4923 37.2562 61.4983 37.2714L61.5338 37.3623C61.682 37.7413 61.9264 37.9418 62.2671 37.9638C62.6018 37.9706 62.9384 37.9154 63.277 37.798C63.4854 37.7501 63.7166 37.6931 63.9703 37.627C64.2241 37.561 64.4779 37.4949 64.7317 37.4289C64.9796 37.3477 65.2199 37.2695 65.4526 37.1943C65.7005 37.1131 65.9227 37.0334 66.1193 36.9551C67.208 36.5215 68.1256 35.9633 68.8722 35.2805C69.6129 34.5826 70.2295 33.7238 70.7221 32.7042C70.8325 32.4501 70.9168 32.2413 70.9753 32.0778C71.0429 31.8932 71.1089 31.7268 71.1732 31.5785C71.2376 31.4303 71.32 31.2836 71.4205 31.1384C71.5151 30.9781 71.6581 30.8073 71.8493 30.626C71.9249 30.5959 72.0561 30.5962 72.2429 30.6269C72.4296 30.6577 72.5454 30.7079 72.5902 30.7777C72.6376 30.899 72.6742 31.0596 72.6999 31.2595C72.7257 31.4595 72.7472 31.6261 72.7644 31.7595C72.9712 32.3778 73.1462 33.0264 73.2893 33.7052C73.4475 34.378 73.5906 35.0568 73.7186 35.7417C73.6406 36.1231 73.4366 36.4058 73.1066 36.5898C72.7766 36.7738 72.3923 36.9531 71.9538 37.1278C71.5002 37.3085 71.0317 37.4512 70.5485 37.5561C70.0711 37.6761 69.5984 37.7856 69.1302 37.8844C68.6621 37.9833 68.1969 38.0897 67.7347 38.2038C67.2666 38.3026 66.8132 38.4394 66.3747 38.614L64.027 39.917Z" fill="#FADC71"/>
<path d="M85.5288 31.3532C85.3625 31.4195 85.1873 31.463 85.0032 31.4837C84.8342 31.4985 84.6652 31.5132 84.4962 31.528C84.3213 31.5276 84.1418 31.5378 83.9577 31.5585C83.7887 31.5733 83.6134 31.6168 83.432 31.6891C83.0389 31.8456 82.6424 32.0386 82.2428 32.2678C81.8523 32.4759 81.4302 32.6703 80.9766 32.8509C80.7649 32.9352 80.5759 33.0105 80.4096 33.0768C80.2373 33.1279 80.0651 33.1789 79.8928 33.23C79.7297 33.2599 79.5621 33.3004 79.3898 33.3515C79.2116 33.3875 79.0108 33.4324 78.7872 33.4864L78.1708 33.6531C77.9177 33.6313 77.6513 33.5534 77.3717 33.4195C77.0863 33.2704 76.8902 33.0594 76.7835 32.7866L76.659 32.4683L77.6105 30.2761L77.9154 28.7093C77.9344 28.5791 77.9636 28.4974 78.003 28.4642C78.0516 28.4098 78.0986 28.3735 78.144 28.3555C78.1894 28.3374 78.2393 28.3087 78.2939 28.2695C78.3425 28.2151 78.3944 28.1243 78.4496 27.9973C78.5303 27.6673 78.5656 27.3554 78.5555 27.0616C78.5547 26.7466 78.5884 26.4529 78.6566 26.1804C78.7287 25.7838 78.766 25.4098 78.7684 25.0585C78.7649 24.692 78.7101 24.3284 78.604 23.9677C78.8451 23.5563 79.0619 23.1722 79.2543 22.8152C79.456 22.4371 79.6303 22.0785 79.7774 21.7396C79.9094 21.4068 80.0217 21.0905 80.1142 20.7909C80.2219 20.4852 80.3203 20.2007 80.4096 19.9374C80.3572 19.2225 80.3529 18.541 80.3966 17.8929C80.3918 17.7021 80.4506 17.4947 80.5728 17.2709C80.689 17.0319 80.7599 16.8109 80.7854 16.608C80.8201 16.384 80.8079 16.1962 80.7486 16.0446C80.6834 15.8778 80.6892 15.6916 80.766 15.4858L81.39 14.8693C81.4235 14.821 81.4333 14.7119 81.4194 14.5423C81.4147 14.3515 81.407 14.1531 81.3964 13.9471C81.3798 13.7259 81.3511 13.5184 81.3102 13.3244C81.2785 13.1093 81.2554 12.9608 81.2409 12.879C81.3355 12.7187 81.3551 12.5007 81.2997 12.2249C81.2594 11.9431 81.2126 11.734 81.1592 11.5976C81.1177 11.4915 81.0368 11.4186 80.9164 11.3789C80.7902 11.3241 80.6471 11.2935 80.4873 11.2871C80.3426 11.2746 80.1963 11.2803 80.0484 11.3042C79.9156 11.3221 79.8038 11.3491 79.7131 11.3852C79.4954 11.4544 79.2778 11.5235 79.0602 11.5927C78.8577 11.6558 78.6733 11.7205 78.507 11.7867L77.3088 12.3428C77.184 12.5151 77.0292 12.6556 76.8445 12.7642C76.6749 12.8668 76.4843 12.9602 76.2726 13.0446L74.5942 13.713C74.1918 13.8908 73.831 14.1747 73.5116 14.5646C73.1923 14.9546 72.9058 15.3841 72.6523 15.8529C72.4079 16.3006 72.1817 16.7499 71.9735 17.2007C71.7804 17.6455 71.6044 18.0222 71.4454 18.3308L71.1822 18.4619C71.0461 18.5161 70.9001 18.4779 70.7441 18.3473C70.5882 18.2167 70.473 18.0786 70.3987 17.9331L70.8031 13.0681C70.8064 13.0317 70.8399 12.9834 70.9036 12.9229C70.9766 12.8413 71.036 12.7476 71.082 12.6417L71.2861 12.5604C71.4762 12.5547 71.6074 12.5551 71.6797 12.5613C71.7612 12.5463 71.8247 12.5298 71.8701 12.5118C71.9305 12.4877 71.994 12.4712 72.0604 12.4622C72.136 12.4321 72.2583 12.4097 72.4273 12.3949C72.7324 12.326 73.0118 12.2585 73.2656 12.1924C73.5134 12.1112 73.7537 12.0331 73.9865 11.9579C74.2192 11.8827 74.449 11.7999 74.6758 11.7096C74.9026 11.6193 75.1446 11.5229 75.4016 11.4205C75.7796 11.27 76.1037 11.0708 76.3738 10.8231C76.6531 10.5542 76.9591 10.3535 77.2918 10.221C79.3754 9.82908 81.4241 9.2584 83.4379 8.50892C83.8159 8.35836 84.1475 8.15621 84.4328 7.90245C84.7331 7.64267 85.0572 7.44352 85.405 7.30501C85.526 7.25683 85.6831 7.21176 85.8764 7.16981C86.0789 7.10668 86.2857 7.07687 86.4968 7.0804C86.7019 7.06876 86.8963 7.09648 87.0798 7.16354C87.2633 7.23061 87.3906 7.35509 87.4617 7.53699L87.4786 7.71422C87.3178 8.28631 87.19 8.89785 87.095 9.54884C87.0092 10.1786 86.8771 10.7569 86.6985 11.2835C86.4773 11.8796 86.3224 12.4669 86.234 13.0452C86.1397 13.6083 86.119 14.2035 86.172 14.8306L85.1573 16.9954L85.1718 18.1721L84.5334 19.5564C84.3771 19.9164 84.2662 20.2584 84.2007 20.5824C84.1502 20.9003 84.1149 21.2122 84.0947 21.5181C84.0745 21.8239 84.0572 22.1374 84.043 22.4584C84.0438 22.7734 84.0174 23.108 83.9637 23.4623L83.5717 24.5382C83.572 24.941 83.5091 25.3164 83.383 25.6645C83.257 26.0125 83.1523 26.3257 83.0689 26.6042C83.0093 26.9433 82.9829 27.2779 82.9896 27.6081C83.0115 27.9322 83.0137 28.273 82.9962 28.6304C82.9929 28.6667 82.9942 28.6924 83.0002 28.7076L83.0357 28.7986C83.1839 29.1775 83.4283 29.378 83.769 29.4C84.1037 29.4068 84.4403 29.3516 84.7789 29.2343C84.9873 29.1863 85.2184 29.1293 85.4722 29.0632C85.726 28.9972 85.9798 28.9312 86.2336 28.8651C86.4815 28.7839 86.7218 28.7057 86.9545 28.6306C87.2024 28.5494 87.4246 28.4696 87.6211 28.3913C88.7099 27.9577 89.6275 27.3995 90.3741 26.7167C91.1148 26.0188 91.7314 25.16 92.224 24.1405C92.3343 23.8863 92.4187 23.6775 92.4771 23.5141C92.5448 23.3295 92.6107 23.163 92.6751 23.0148C92.7395 22.8665 92.8219 22.7198 92.9224 22.5746C93.017 22.4143 93.1599 22.2435 93.3512 22.0622C93.4268 22.0321 93.558 22.0324 93.7448 22.0632C93.9315 22.0939 94.0473 22.1441 94.092 22.2139C94.1395 22.3352 94.1761 22.4958 94.2018 22.6958C94.2276 22.8957 94.2491 23.0624 94.2662 23.1957C94.4731 23.8141 94.6481 24.4627 94.7912 25.1415C94.9494 25.8142 95.0925 26.4931 95.2205 27.1779C95.1424 27.5593 94.9384 27.8421 94.6084 28.0261C94.2784 28.21 93.8942 28.3894 93.4557 28.564C93.0021 28.7447 92.5336 28.8875 92.0503 28.9923C91.573 29.1124 91.1003 29.2218 90.6321 29.3207C90.164 29.4195 89.6988 29.526 89.2366 29.64C88.7685 29.7388 88.3151 29.8756 87.8766 30.0502L85.5288 31.3532Z" fill="#FADC71"/>
<path d="M107.32 19.5734C107.271 19.6278 107.208 19.7579 107.132 19.9637C107.064 20.1483 106.992 20.2557 106.917 20.2858L106.224 21.0611C106.2 21.0883 106.161 21.1473 106.11 21.238C106.067 21.3076 106.015 21.3983 105.954 21.5102C105.902 21.601 105.858 21.6887 105.821 21.7734C105.778 21.843 105.749 21.8808 105.734 21.8868C105.71 21.914 105.655 21.9533 105.57 22.0046C105.501 22.0498 105.416 22.1011 105.316 22.1584C105.231 22.2097 105.146 22.261 105.062 22.3123C104.986 22.3424 104.926 22.3665 104.88 22.3846C104.771 22.4631 104.678 22.5613 104.602 22.6793C104.541 22.7912 104.478 22.9213 104.414 23.0695C104.359 23.1966 104.292 23.3373 104.212 23.4916C104.127 23.6307 104.023 23.7683 103.902 23.9043L101.747 24.7625C101.671 24.7926 101.56 24.8196 101.412 24.8435C101.279 24.8614 101.128 24.8777 100.959 24.8924C100.805 24.9011 100.648 24.9023 100.488 24.8958C100.329 24.8894 100.202 24.8785 100.109 24.8632C100.097 24.8328 100.025 24.7827 99.8925 24.7127C99.7694 24.6216 99.6856 24.5411 99.6408 24.4713C99.5987 24.4531 99.5612 24.4242 99.5283 24.3847C99.4652 24.3573 99.4247 24.3209 99.4069 24.2754L98.5633 23.9281C98.3475 23.7338 98.1231 23.4728 97.8902 23.1451C97.6664 22.7963 97.5071 22.5006 97.4122 22.258L97.3843 21.7173L97.0388 21.3031L96.9321 21.0302C96.9025 20.9544 96.8791 20.8499 96.8619 20.7166C96.8539 20.5621 96.8489 20.4152 96.8468 20.2758C96.8389 20.1213 96.8368 19.982 96.8407 19.8578C96.8386 19.7185 96.8438 19.6201 96.8563 19.5625C96.8655 19.5414 96.8976 19.4672 96.9528 19.3401C97.0172 19.1919 97.0861 19.033 97.1597 18.8636C97.2273 18.679 97.2857 18.5155 97.3349 18.3733C97.3993 18.225 97.4377 18.1221 97.4502 18.0646C97.4653 18.0586 97.4975 17.9845 97.5467 17.8422C97.6111 17.694 97.6373 17.6047 97.6255 17.5744L97.6352 17.4653C97.6385 17.429 97.6342 17.3957 97.6224 17.3654C97.8142 17.0962 97.9956 16.8225 98.1664 16.5443C98.3312 16.2509 98.5382 15.9757 98.7873 15.7188C98.7965 15.6977 98.8845 15.61 99.0515 15.456C99.2276 15.2807 99.4189 15.0994 99.6252 14.9121C99.8408 14.7036 100.055 14.5133 100.267 14.3411C100.479 14.169 100.64 14.0437 100.749 13.9652C100.871 13.8292 100.991 13.6674 101.11 13.4799C101.229 13.2924 101.343 13.1154 101.453 12.9491C101.578 12.7768 101.693 12.6256 101.8 12.4956C101.9 12.3504 101.996 12.2598 102.087 12.2237L102.676 11.9888C102.691 11.9828 102.728 11.942 102.786 11.8664C102.81 11.8392 102.839 11.8014 102.872 11.753C102.927 11.7138 103.062 11.6338 103.277 11.5131C103.507 11.3865 103.66 11.3081 103.735 11.278L103.879 10.774C103.961 10.6712 104.049 10.5836 104.143 10.5111C104.231 10.4235 104.312 10.3388 104.385 10.2572C104.458 10.1756 104.51 10.0849 104.54 9.985C104.58 9.86394 104.593 9.71859 104.58 9.54893C104.561 9.18845 104.499 8.82787 104.392 8.46718C104.296 8.08531 104.185 7.73522 104.06 7.41689L103.865 6.91666C103.853 6.88635 103.775 6.82104 103.631 6.72075C103.487 6.62046 103.403 6.54 103.379 6.47936L102.654 5.42815L101.915 5.01297L101.478 4.63485C101.406 4.62863 101.316 4.57692 101.208 4.47975C101.1 4.38257 101.024 4.29909 100.979 4.22932C100.913 4.15042 100.767 4.11222 100.541 4.11471C100.309 4.10205 100.06 4.11359 99.7944 4.14931C99.5228 4.16988 99.2601 4.21318 99.0063 4.27922C98.7617 4.32408 98.5941 4.36458 98.5033 4.40071C98.4731 4.41276 98.3521 4.46093 98.1404 4.54525C97.938 4.60838 97.7687 4.66705 97.6326 4.72125C97.4965 4.77545 97.3134 4.86589 97.0833 4.99256C96.8624 5.09805 96.661 5.23085 96.4789 5.39096C96.2909 5.5359 96.1375 5.70213 96.0186 5.88965C95.9148 6.07114 95.9014 6.26041 95.9785 6.45747L96.0585 6.66211C96.0855 6.6864 96.1424 6.74257 96.2292 6.83061C96.3102 6.9035 96.397 6.99154 96.4898 7.09474C96.5766 7.18278 96.6559 7.27383 96.7277 7.3679C96.8086 7.44078 96.855 7.49238 96.8668 7.5227C96.8906 7.58333 96.9034 7.68331 96.9055 7.82265C96.9167 7.9408 96.931 8.06653 96.9481 8.19984C97.032 8.72707 97.0335 9.15566 96.9528 9.48562C96.8722 9.81558 96.6827 10.1801 96.3844 10.5792L96.1922 10.8923C96.1495 10.9618 96.1144 11.0284 96.0868 11.0919L94.363 11.7785C94.2269 11.8327 94.0928 11.8248 93.9605 11.7548C93.8283 11.6848 93.7053 11.5937 93.5915 11.4814C93.4717 11.3539 93.37 11.2279 93.2865 11.1035C93.1969 10.964 93.1374 10.8563 93.1077 10.7805C93.0722 10.6896 93.0399 10.5623 93.0108 10.3987C92.9818 10.2351 92.9709 10.073 92.978 9.91247C92.9792 9.73679 92.9863 9.57628 92.9994 9.43092C93.0217 9.26438 93.0558 9.12816 93.1017 9.02226C93.1056 8.89808 93.123 8.78606 93.1538 8.68617C93.1544 8.59834 93.161 8.52566 93.1734 8.46814C93.201 8.4046 93.2194 8.36224 93.2286 8.34106L93.4492 7.83272C93.6989 7.48801 93.8927 7.1568 94.0306 6.83909C94.1685 6.52138 94.3383 6.17345 94.5399 5.79531L95.7186 4.11704C95.8165 3.92039 95.9141 3.76766 96.0113 3.65885C96.1178 3.52885 96.2301 3.41402 96.3484 3.31434C96.4668 3.21467 96.588 3.12257 96.7123 3.03805C96.8516 2.94751 97.0048 2.8252 97.1717 2.67112C97.1868 2.6651 97.2187 2.63488 97.2673 2.58048C97.3311 2.52005 97.3948 2.45962 97.4586 2.39919C97.5164 2.3236 97.5772 2.2556 97.6409 2.19517C97.7047 2.13474 97.7487 2.09092 97.773 2.06372C97.8427 2.01845 97.9745 1.93092 98.1684 1.80113C98.3774 1.66532 98.594 1.5265 98.8182 1.38467C99.0574 1.23681 99.2846 1.10256 99.4995 0.981909C99.7145 0.861257 99.8673 0.782864 99.9581 0.74673C100.034 0.716618 100.114 0.719834 100.198 0.756378C100.291 0.771742 100.353 0.773401 100.383 0.761356C100.429 0.743289 100.5 0.723768 100.596 0.702792C100.687 0.666658 100.781 0.638103 100.877 0.617128C100.989 0.590129 101.086 0.569154 101.167 0.5542C101.258 0.518066 101.321 0.501556 101.358 0.50467C101.46 0.498853 101.599 0.496149 101.774 0.496559C101.943 0.481811 102.115 0.474642 102.29 0.475052C102.465 0.475462 102.621 0.474315 102.76 0.471611C102.899 0.468908 102.986 0.469113 103.023 0.472226C103.044 0.481362 103.096 0.504203 103.18 0.540747C103.265 0.577291 103.362 0.625982 103.473 0.686821C103.594 0.726479 103.707 0.769148 103.812 0.814828C103.917 0.860508 103.994 0.900063 104.042 0.933494C104.303 1.10978 104.555 1.26333 104.799 1.39415C105.057 1.51894 105.275 1.69512 105.451 1.9227C105.586 2.04417 105.704 2.18984 105.805 2.35969C105.916 2.50837 106.019 2.66006 106.114 2.81475C106.225 2.96343 106.34 3.10151 106.46 3.22901C106.58 3.3565 106.731 3.45378 106.915 3.52085L107.466 4.93058C107.857 5.93103 108.205 6.93138 108.508 7.93163C108.821 8.9107 109.161 9.91406 109.528 10.9417C109.527 11.1174 109.533 11.29 109.547 11.4597C109.555 11.6142 109.595 11.7824 109.666 11.9643C109.719 12.1007 109.794 12.2463 109.889 12.401C110 12.5496 110.07 12.6619 110.099 12.7377L110.064 13.251C110.073 13.3176 110.089 13.3813 110.113 13.4419L110.21 13.692C110.299 13.9194 110.402 14.1589 110.518 14.4106C110.633 14.6623 110.772 14.9049 110.933 15.1385C111.094 15.3721 111.272 15.5815 111.467 15.7667C111.677 15.9459 111.918 16.0692 112.188 16.1364C112.288 16.167 112.422 16.2188 112.59 16.2919C112.768 16.3438 112.887 16.3577 112.947 16.3336L113.038 16.2975C113.189 16.2372 113.354 16.1452 113.533 16.0215C113.706 15.8825 113.886 15.7406 114.074 15.5957C114.256 15.4356 114.441 15.283 114.629 15.1381C114.832 14.9871 115.04 14.8695 115.251 14.7852C115.539 14.6707 115.718 14.7045 115.789 14.8864C115.979 15.3715 116.064 15.8805 116.045 16.4135C116.042 16.9406 115.945 17.4522 115.754 17.9485C115.558 18.4297 115.285 18.8712 114.935 19.2733C114.58 19.6601 114.145 19.9559 113.631 20.1607C113.117 20.3655 112.609 20.5415 112.107 20.6887C111.6 20.8208 111.017 20.8951 110.36 20.9118L110.156 20.8613C110.114 20.843 110.003 20.7822 109.823 20.6788C109.652 20.5542 109.463 20.4281 109.255 20.3004C109.063 20.1666 108.885 20.0451 108.72 19.9356C108.549 19.8111 108.447 19.729 108.414 19.6896L107.683 19.4289L107.32 19.5734ZM100.86 18.2044C100.955 18.4469 101.102 18.7123 101.303 19.0005C101.518 19.2827 101.765 19.5347 102.044 19.7564C102.317 19.963 102.613 20.1167 102.932 20.2174C103.251 20.3181 103.561 20.3082 103.864 20.1878C103.924 20.1637 103.974 20.135 104.014 20.1018C104.053 20.0686 104.158 19.9567 104.328 19.7663L106.321 18.7624C106.355 18.714 106.399 18.6263 106.454 18.4992C106.518 18.3509 106.575 18.2057 106.624 18.0634C106.689 17.9151 106.741 17.7805 106.781 17.6594C106.836 17.5323 106.87 17.44 106.882 17.3825C106.898 17.3765 106.903 17.322 106.897 17.219C106.907 17.11 106.915 16.9752 106.923 16.8147C106.93 16.6542 106.926 16.4891 106.912 16.3194C106.914 16.1438 106.913 15.9863 106.911 15.8469C106.912 15.7591 106.89 15.6364 106.846 15.4788C106.817 15.3151 106.799 15.2257 106.793 15.2106C106.713 15.0499 106.633 14.8891 106.552 14.7284C106.472 14.5677 106.399 14.404 106.334 14.2372C106.275 14.0857 106.229 13.9462 106.197 13.8189C106.159 13.6765 106.12 13.534 106.082 13.3916L106.045 12.8281L105.885 12.4188C105.784 12.1612 105.609 11.9593 105.36 11.8134C105.111 11.6674 104.827 11.6576 104.51 11.7841C104.253 11.8865 104.057 12.0344 103.923 12.228C103.798 12.4003 103.655 12.615 103.494 12.8721C103.436 12.9477 103.317 13.0913 103.138 13.3029C102.952 13.4993 102.755 13.7094 102.545 13.933C102.345 14.1355 102.152 14.335 101.967 14.5314C101.796 14.7218 101.679 14.8472 101.616 14.9077L101.274 15.3067C101.243 15.3187 101.189 15.358 101.11 15.4244C101.031 15.4909 100.995 15.5317 101.001 15.5468L100.914 16.2645L100.583 17.027C100.573 17.2239 100.605 17.439 100.678 17.6724C100.746 17.8906 100.807 18.0679 100.86 18.2044Z" fill="#FADC71"/>
<path d="M47.3801 71.4653C49.3559 70.6784 50.7396 69.5353 51.5312 68.036C52.357 66.5231 52.416 64.8617 51.7082 63.0518C51.1341 61.5834 50.272 60.4863 49.122 59.7603C47.9719 59.0343 46.708 58.5707 45.3302 58.3696C43.9864 58.1549 42.1938 58.0006 39.9524 57.9067C37.3851 57.7846 35.2769 57.5784 33.6279 57.288C32.013 56.9839 30.4786 56.3321 29.0247 55.3325C27.5709 54.3328 26.4434 52.8085 25.6422 50.7596C24.9612 49.018 24.7357 47.2332 24.9657 45.405C25.2164 43.5291 25.9961 41.7978 27.3047 40.211C28.6133 38.6242 30.4769 37.3491 32.8955 36.3859C35.1096 35.504 37.2122 35.0415 39.2032 34.9984C41.2149 34.9076 42.9247 35.2528 44.3325 36.034C45.761 36.7674 46.7623 37.8684 47.3365 39.3368C48.0175 41.0784 48.0504 42.7229 47.435 44.2704C46.8537 45.8043 45.7796 46.8833 44.2127 47.5074C43.4973 47.7923 43.0595 47.7299 42.8993 47.3201C42.8592 47.2176 42.882 46.8731 42.9675 46.2865C43.0872 45.6863 43.1357 45.0552 43.1131 44.3933C43.1112 43.6837 42.9433 42.902 42.6095 42.0483C41.9819 40.4433 40.8783 39.383 39.2989 38.8676C37.7194 38.3521 35.9588 38.481 34.0171 39.2544C32.0073 40.0548 30.6844 41.2527 30.0483 42.8479C29.3989 44.4089 29.3947 46.009 30.0357 47.6482C30.5297 48.9117 31.3147 49.862 32.3906 50.4991C33.4665 51.1362 34.6526 51.5518 35.9489 51.7459C37.2453 51.94 38.9971 52.0908 41.2045 52.1983C43.84 52.2932 46.0296 52.5065 47.7734 52.8381C49.538 53.122 51.2013 53.8014 52.7633 54.8764C54.312 55.9172 55.507 57.5132 56.3482 59.6646C57.5366 62.7039 57.4628 65.5354 56.1266 68.1594C54.8245 70.7697 52.2829 72.8279 48.5018 74.3338C46.0492 75.3106 43.7355 75.8374 41.5609 75.9142C39.3728 75.9569 37.4935 75.5806 35.9227 74.7854C34.3726 73.9424 33.2838 72.7185 32.6562 71.1135C31.9752 69.3719 31.9594 67.7206 32.6088 66.1595C33.2923 64.5849 34.4686 63.4652 36.1377 62.8004C36.5124 62.6512 36.8117 62.6109 37.0354 62.6797C37.2458 62.7143 37.3844 62.817 37.4511 62.9877C37.4912 63.0902 37.4514 63.4415 37.3318 64.0417C37.1988 64.6077 37.1332 65.2456 37.1351 65.9552C37.137 66.6648 37.3049 67.4465 37.6387 68.3002C38.3464 70.1101 39.6019 71.3072 41.4051 71.8914C43.2084 72.4756 45.2 72.3336 47.3801 71.4653Z" fill="#FADC71"/>
<path d="M71.4113 64.2492C70.4435 64.6346 69.4878 64.8051 68.5442 64.7604C67.5946 64.7007 66.6938 64.3411 65.8418 63.6819L64.2859 62.9876C64.2411 62.9179 64.1319 62.7949 63.9582 62.6189C63.7845 62.4428 63.5973 62.2545 63.3966 62.0542C63.1959 61.8538 63.0117 61.6731 62.8439 61.5122C62.6761 61.3513 62.5804 61.2405 62.5567 61.1799L62.0766 59.952C61.9752 59.7822 61.86 59.6441 61.7311 59.5378C61.6113 59.4103 61.4794 59.2964 61.3354 59.1961C61.2005 59.0746 61.0761 58.9577 60.9623 58.8454C60.8425 58.7179 60.7471 58.5632 60.676 58.3813L59.7865 55.5033C59.7332 55.3669 59.6466 55.2349 59.5269 55.1074C59.4222 54.9739 59.3373 54.8238 59.2721 54.657C59.1891 54.4448 59.1407 54.2539 59.1268 54.0842C59.128 53.9085 59.1292 53.7329 59.1304 53.5572C59.1316 53.3815 59.1223 53.2013 59.1025 53.0165C59.0918 52.8105 59.0331 52.5711 58.9264 52.2982L59.7139 49.6195L59.4218 49.3417C59.4435 49.263 59.4697 49.1737 59.5006 49.0738C59.5222 48.9951 59.5409 48.9088 59.5566 48.8149C59.5875 48.7151 59.6108 48.6182 59.6265 48.5243C60.0859 47.0625 60.7779 45.7707 61.7025 44.6492C62.6211 43.5125 63.7094 42.4746 64.9675 41.5356L65.3313 41.2593C66.1478 40.9341 66.994 40.6847 67.8698 40.511C68.7607 40.3314 69.63 40.2304 70.4776 40.2082C70.6842 40.4237 70.9158 40.5242 71.1722 40.5097C71.4378 40.474 71.6765 40.4139 71.8882 40.3296C72.1191 40.518 72.3306 40.679 72.5227 40.8127C72.7148 40.9464 72.8918 41.0862 73.0537 41.2319C73.2155 41.3777 73.3606 41.5477 73.489 41.7418C73.6265 41.9148 73.7486 42.1377 73.8553 42.4105C74.0687 42.9563 74.0605 43.4939 73.8306 44.0234C73.6008 44.5529 73.1381 44.9562 72.4425 45.2332C72.3734 45.1906 72.2833 45.1389 72.1722 45.0781C72.0551 45.0021 71.9334 44.9367 71.8071 44.8819C71.6749 44.8119 71.5561 44.7541 71.4509 44.7084C71.3457 44.6627 71.2674 44.6413 71.2161 44.6442C71.1891 44.6199 71.1046 44.6273 70.9626 44.6664C70.8147 44.6902 70.7331 44.7052 70.718 44.7112C70.2899 44.689 69.9094 44.5427 69.5765 44.2724C69.2528 43.9808 68.9169 43.7029 68.5689 43.4386C68.2301 43.1531 67.8561 42.9341 67.447 42.7817C67.053 42.6233 66.5612 42.6615 65.9715 42.8964C65.533 43.071 65.1619 43.3064 64.8583 43.6025C64.5487 43.8835 64.275 44.2115 64.0372 44.5865C63.7935 44.9464 63.5826 45.3457 63.4047 45.7845C63.2359 46.2021 63.0655 46.6378 62.8935 47.0918C62.8804 47.2371 62.8325 47.4051 62.7498 47.5957C62.6611 47.7712 62.6178 47.9286 62.6199 48.0679L62.9844 49.0002L62.9097 49.3453C62.8574 49.9267 62.8718 50.4553 62.953 50.931C63.0342 51.4067 63.1844 51.925 63.4037 52.4859C63.4393 52.5769 63.4837 52.6905 63.5371 52.827C63.5845 52.9482 63.6425 53.0741 63.7109 53.2045C63.7735 53.3197 63.833 53.4274 63.8896 53.5275C63.9403 53.6124 63.9884 53.6458 64.0337 53.6278C64.0811 53.749 64.1404 53.9006 64.2115 54.0825C64.2919 54.2432 64.3722 54.4039 64.4525 54.5647C64.5328 54.7254 64.6043 54.8634 64.6668 54.9786C64.7293 55.0939 64.7606 55.1515 64.7606 55.1515L65.0892 55.3885L65.3382 56.0252C65.4745 56.3738 65.6082 56.6709 65.7392 56.9166C65.8853 57.1562 66.0436 57.3822 66.214 57.5947C66.3936 57.7859 66.5838 57.9817 66.7845 58.1821C66.9944 58.3613 67.2237 58.5678 67.4724 58.8016C67.4842 58.8319 67.5862 58.9139 67.7783 59.0477C67.9645 59.1662 68.1671 59.3045 68.3861 59.4625C68.5993 59.6054 68.8019 59.7437 68.994 59.8774C69.1802 59.996 69.2973 60.072 69.3453 60.1054C69.5196 60.1936 69.711 60.2138 69.9194 60.1658C70.1278 60.1178 70.3027 60.1182 70.4442 60.167C70.7572 60.2526 71.016 60.3334 71.2206 60.4096C71.4343 60.4647 71.6346 60.5075 71.8214 60.5383C72.0233 60.563 72.2238 60.5619 72.423 60.5351C72.6223 60.5083 72.8731 60.4347 73.1755 60.3143C73.8711 60.0372 74.5255 59.6102 75.1386 59.0331C75.7518 58.456 76.2476 57.8469 76.626 57.2056C76.7114 57.0665 76.7955 56.9016 76.8782 56.711C76.9701 56.4992 77.065 56.295 77.1629 56.0983C77.2608 55.9017 77.3646 55.7202 77.4743 55.5538C77.5991 55.3815 77.7371 55.2652 77.8884 55.205C78.1605 55.0966 78.3627 55.0774 78.4949 55.1473C78.6423 55.2113 78.7663 55.3721 78.8671 55.6298L78.9738 55.9027C79.0546 56.8691 78.9368 57.7744 78.6203 58.6187C78.319 59.457 77.8854 60.2254 77.3197 60.9237C76.748 61.6069 76.0848 62.2126 75.3302 62.7409C74.5756 63.2692 73.7976 63.693 72.9962 64.0121L72.2931 64.2922L71.7515 64.1137L71.4113 64.2492Z" fill="#FADC71"/>
<path d="M83.3427 58.0255C83.2953 57.9043 83.3383 57.7908 83.4717 57.6851C83.6144 57.5582 83.7087 57.4418 83.7546 57.3359C83.8498 57.0878 83.9885 56.8837 84.1705 56.7235C84.3677 56.5574 84.5028 56.4336 84.5757 56.3519C84.667 56.228 84.7146 56.1039 84.7185 55.9797C84.7164 55.8404 84.7867 55.7073 84.9293 55.5804L85.4026 55.1817C85.4933 55.1456 85.5422 55.0472 85.5494 54.8867C85.5565 54.7262 85.5647 54.6354 85.5739 54.6142C85.5291 54.5444 85.4712 54.4186 85.4 54.2367C85.3289 54.0548 85.2607 53.8805 85.1955 53.7137C85.1126 53.5015 85.0385 53.312 84.9733 53.1453C84.9021 52.9634 84.8504 52.8088 84.8181 52.6815L84.6875 51.9452L83.3183 48.4436C83.3064 48.4133 83.2873 48.342 83.2609 48.2299C83.2346 48.1178 83.2052 47.9981 83.1729 47.8708C83.1406 47.7435 83.1113 47.6238 83.0849 47.5116C83.0586 47.3995 83.047 47.3253 83.0503 47.2889L82.988 47.1298C82.9374 47.0448 82.8689 46.9144 82.7826 46.7386C82.6905 46.5475 82.6012 46.3641 82.515 46.1882C82.4228 45.9972 82.3395 45.8289 82.2651 45.6833C82.1908 45.5377 82.1476 45.4498 82.1358 45.4195C82.1029 45.38 82.0581 45.3103 82.0015 45.2102C81.9449 45.1101 81.8853 45.0024 81.8228 44.8872C81.7602 44.7719 81.7007 44.6643 81.644 44.5642C81.6026 44.4581 81.5729 44.3823 81.5551 44.3368C81.4268 44.1427 81.2712 43.9681 81.0883 43.8132C80.9054 43.6583 80.7133 43.5246 80.512 43.4121C80.3048 43.2844 80.093 43.1673 79.8765 43.0607C79.6542 42.9391 79.4424 42.8219 79.2411 42.7094C79.226 42.7154 79.1523 42.6835 79.0201 42.6135C78.882 42.5283 78.807 42.4706 78.7951 42.4403L76.9679 41.7227L77.6209 40.175C77.6453 40.1478 77.6939 40.0934 77.7668 40.0117C77.8549 39.9241 77.943 39.8365 78.031 39.7489C78.1283 39.64 78.2209 39.5418 78.309 39.4542C78.4122 39.3605 78.4911 39.2941 78.5456 39.2548C78.564 39.2125 78.6156 39.1656 78.7004 39.1144C78.7944 39.0419 78.8913 38.977 78.9913 38.9197C79.1063 38.8563 79.2092 38.8066 79.2999 38.7705C79.3998 38.7132 79.4649 38.6785 79.4951 38.6664C79.7469 38.461 79.9565 38.2374 80.1241 37.9955C80.3008 37.7324 80.4729 37.4799 80.6405 37.238C80.8021 36.9809 80.9726 36.7465 81.152 36.5349C81.3465 36.3173 81.595 36.1483 81.8974 36.0278L82.2603 35.8833C82.2813 35.8924 82.3971 35.9427 82.6076 36.034C82.8121 36.1102 82.9641 36.1636 83.0634 36.1941C83.2344 36.3187 83.3703 36.5098 83.4711 36.7675C83.5659 37.0101 83.6683 37.2496 83.7783 37.4861C83.8823 37.7075 84.0123 37.8834 84.1682 38.0141C84.3241 38.1447 84.5533 38.1497 84.8557 38.0293C84.9011 38.0112 84.9465 37.9932 84.9918 37.9751C85.0523 37.951 85.0766 37.9238 85.0648 37.8935C85.1193 37.8542 85.1906 37.7908 85.2787 37.7032C85.3608 37.6004 85.44 37.49 85.5162 37.3721C85.6076 37.2481 85.6838 37.1301 85.7449 37.0182C85.8211 36.9003 85.873 36.8095 85.9005 36.746L86.5548 35.6707C86.5732 35.6284 86.6448 35.521 86.7697 35.3487C86.8886 35.1612 86.9664 35.025 87.0032 34.9403C87.0183 34.9343 87.0788 34.9102 87.1847 34.868C87.2846 34.8107 87.3875 34.761 87.4933 34.7188C87.6083 34.6555 87.7158 34.5952 87.8158 34.5379C87.9157 34.4805 87.9853 34.4353 88.0248 34.402C88.0399 34.396 88.0793 34.3628 88.1431 34.3024C88.222 34.2359 88.3008 34.1695 88.3797 34.103C88.4737 34.0305 88.5526 33.9641 88.6163 33.9037C88.6801 33.8432 88.7195 33.81 88.7346 33.804L88.9841 33.7046C89.3319 33.5661 89.6531 33.5608 89.9478 33.6887C90.2576 33.8106 90.5536 33.9642 90.8358 34.1497C90.995 34.2439 91.1325 34.4169 91.2484 34.6686C91.3735 34.8991 91.4976 35.0599 91.6206 35.151C91.6384 35.1965 91.6788 35.233 91.742 35.2604L91.8683 35.3152C92.1528 36.0428 92.3018 36.7368 92.3153 37.3971C92.3381 38.0362 92.1757 38.6265 91.8281 39.1678C91.7039 39.2524 91.557 39.3459 91.3874 39.4485C91.2119 39.5359 91.0636 39.6037 90.9427 39.6519C90.6251 39.7784 90.3848 39.8566 90.2218 39.8865C90.0528 39.9012 89.9157 39.8858 89.8104 39.8401C89.7052 39.7944 89.5986 39.723 89.4907 39.6258C89.3979 39.5226 89.2584 39.4117 89.0723 39.2931C88.9131 39.1989 88.7431 39.144 88.5622 39.1284C88.3906 39.0916 88.2308 39.0852 88.0828 39.1091C87.929 39.1178 87.7886 39.1387 87.6617 39.1717C87.5499 39.1987 87.4789 39.2182 87.4487 39.2303L86.4111 39.4595L85.6835 40.0121L85.5536 40.4843C85.4839 40.5296 85.4077 40.6476 85.325 40.8382C85.2363 41.0136 85.1565 41.2119 85.0856 41.4328C85.0239 41.6326 84.9833 41.8415 84.9637 42.0595C84.9382 42.2624 84.9461 42.4169 84.9876 42.523L85.5144 44.2052L85.8767 44.7967L86.3391 45.9791C86.3509 46.0094 86.394 46.0973 86.4684 46.2429C86.552 46.3673 86.6238 46.4613 86.6836 46.5251L87.3251 48.6347L87.7861 49.3445C87.8276 49.4507 87.8389 49.5688 87.8199 49.699C87.816 49.8232 87.8467 49.9686 87.9119 50.1354L88.3729 50.8452L88.5431 51.7498C88.549 51.7649 88.5579 51.7876 88.5698 51.818C88.5816 51.8483 88.6027 51.8574 88.6329 51.8454C88.6836 51.9303 88.7794 52.0411 88.9202 52.1777C89.0761 52.3083 89.235 52.4465 89.3968 52.5923C89.5738 52.732 89.7327 52.8702 89.8735 53.0068C90.0235 53.1223 90.1284 53.2119 90.1883 53.2756C90.1943 53.2908 90.2212 53.3151 90.2693 53.3485C90.3173 53.3819 90.364 53.3896 90.4093 53.3716C90.5751 53.3931 90.7421 53.4405 90.9105 53.5136C91.094 53.5806 91.2883 53.6084 91.4935 53.5967C91.6171 53.6 91.771 53.5913 91.9551 53.5705C92.1333 53.5346 92.322 53.5033 92.5212 53.4765C92.7356 53.4436 92.9453 53.4214 93.1505 53.4098C93.3708 53.3921 93.5819 53.3957 93.7838 53.4204C93.9219 53.5055 94.0614 53.6164 94.2022 53.753C94.3581 53.8836 94.4746 54.0474 94.5517 54.2445C94.6169 54.4112 94.634 54.5446 94.6032 54.6444C94.5875 54.7383 94.5415 54.8442 94.4653 54.9622C94.3983 55.0589 94.2589 55.1495 94.0472 55.2338L93.3481 55.5911C93.1029 55.7238 92.8745 55.8323 92.6628 55.9166C92.4662 55.9949 92.2999 56.0611 92.1638 56.1153C92.0428 56.1635 91.9008 56.2025 91.7377 56.2324C91.5838 56.2412 91.4238 56.2786 91.2574 56.3449C90.834 56.5135 90.4541 56.7262 90.1175 56.9828C89.7869 57.2547 89.4251 57.4689 89.0319 57.6254L87.8779 57.6909L86.5597 58.6101L86.1741 58.7637L85.7676 58.6628C85.7374 58.6748 85.6513 58.7003 85.5092 58.7394C85.3613 58.7633 85.1529 58.8112 84.884 58.8833C84.8235 58.9074 84.7511 58.9012 84.667 58.8646C84.6157 58.8675 84.5312 58.8749 84.4135 58.8867C84.3109 58.8926 84.133 58.8846 83.8798 58.8628C83.6937 58.7442 83.5709 58.6091 83.5117 58.4576L83.3427 58.0255Z" fill="#FADC71"/>
<path d="M102.053 52.1767C101.871 52.249 101.74 52.3365 101.657 52.4393C101.596 52.5512 101.513 52.6282 101.407 52.6704C101.347 52.6945 101.259 52.6943 101.145 52.6698C101.045 52.6393 100.895 52.6117 100.693 52.5869C100.657 52.5838 100.619 52.555 100.58 52.5004C100.551 52.4246 100.503 52.3472 100.437 52.2683C100.371 52.1894 100.304 52.0848 100.236 51.9544C100.23 51.9392 100.23 51.8953 100.237 51.8226C100.252 51.7287 100.268 51.6349 100.284 51.541C100.294 51.432 100.306 51.3306 100.322 51.2367C100.338 51.1428 100.355 51.0747 100.373 51.0324L100.706 50.6106L101.205 50.4119C101.553 50.2734 101.854 50.1272 102.109 49.9733C102.372 49.7982 102.531 49.5336 102.585 49.1793C102.444 48.6399 102.296 48.1291 102.143 47.6472C101.989 47.1652 101.884 46.6728 101.827 46.1699L101.682 44.9928L100.855 42.8782L100.168 40.7867L99.6434 39.4451C99.6315 39.4148 99.5868 39.3451 99.5091 39.2358C99.4255 39.1114 99.339 38.9795 99.2495 38.84C99.154 38.6853 99.0645 38.5457 98.9809 38.4213C98.8914 38.2818 98.8318 38.1741 98.8022 38.0983L97.9575 35.9383C97.8319 35.7956 97.6536 35.6301 97.4226 35.4418C97.1917 35.2535 96.9875 35.1333 96.8099 35.0814L96.0178 35.1341C95.6897 35.0546 95.3782 34.9509 95.0836 34.823C94.804 34.689 94.5415 34.487 94.2961 34.2168C94.2309 34.0501 94.2183 33.9062 94.2583 33.7851C94.2984 33.6641 94.37 33.5567 94.4732 33.4631C94.5763 33.3694 94.6901 33.2803 94.8143 33.1958C94.9385 33.1113 95.0552 33.0298 95.1643 32.9513L96.5049 31.4188C96.6172 31.3039 96.7129 31.2133 96.7917 31.1468C96.8798 31.0592 96.9603 30.9746 97.0333 30.893C97.1062 30.8114 97.1686 30.7252 97.2205 30.6345C97.2875 30.5377 97.3502 30.4076 97.4087 30.2442L98.0487 29.9367C98.1243 29.9066 98.2406 29.869 98.3978 29.824C98.57 29.7729 98.6713 29.7413 98.7015 29.7293C98.7469 29.7112 98.8254 29.6887 98.9372 29.6617C99.049 29.6347 99.1713 29.6122 99.3041 29.5944C99.4369 29.5765 99.5622 29.5617 99.6799 29.5498C99.7976 29.538 99.8821 29.5306 99.9334 29.5277C100.093 29.5341 100.227 29.6299 100.334 29.8149C100.451 29.9787 100.538 30.1364 100.598 30.288L100.882 31.0156L100.937 31.6245C101.246 32.6399 101.588 33.6251 101.961 34.5801C102.335 35.5351 102.705 36.5264 103.072 37.5541L103.279 38.4178C103.269 38.439 103.275 38.498 103.295 38.595C103.331 38.686 103.372 38.7921 103.42 38.9133C103.467 39.0346 103.515 39.1559 103.562 39.2771C103.604 39.3832 103.636 39.4666 103.66 39.5272C103.701 39.6334 103.749 39.7546 103.802 39.891C103.856 40.0275 103.906 40.1563 103.953 40.2776C104.001 40.3989 104.042 40.505 104.078 40.5959C104.123 40.6657 104.153 40.6976 104.168 40.6915C104.185 40.737 104.242 40.8371 104.338 40.9918C104.427 41.1313 104.485 41.2132 104.512 41.2375L104.699 41.715C104.717 41.7605 104.757 41.8848 104.819 42.0879C104.88 42.2909 104.954 42.5243 105.04 42.7881C105.12 43.0366 105.199 43.2852 105.279 43.5337C105.368 43.7611 105.433 43.9278 105.475 44.034C105.528 44.1704 105.621 44.3872 105.755 44.6843C105.898 44.9603 106.05 45.259 106.21 45.5804C106.386 45.8958 106.548 46.1991 106.697 46.4902C106.84 46.7662 106.935 46.9648 106.983 47.0861C107.048 47.2528 107.184 47.3561 107.392 47.396C107.609 47.4147 107.777 47.4181 107.894 47.4062C107.94 47.3882 108.033 47.3596 108.175 47.3206C108.332 47.2755 108.497 47.2274 108.669 47.1764C108.842 47.1253 108.999 47.0802 109.141 47.0412C109.292 46.9809 109.398 46.9388 109.458 46.9147C109.612 46.9938 109.745 47.0895 109.859 47.2019C109.988 47.3082 110.094 47.4674 110.177 47.6797C110.26 47.8919 110.317 48.1055 110.349 48.3207C110.396 48.5298 110.366 48.6993 110.259 48.8293C110.137 49.0532 109.966 49.2178 109.745 49.3233C109.545 49.438 109.324 49.5435 109.082 49.6398L108.674 49.8024L108.041 49.7918L105.251 50.903C105.236 50.909 105.132 50.933 104.938 50.9749C104.739 51.0017 104.609 51.0272 104.549 51.0513L103.914 51.3042L102.053 52.1767ZM90.93 21.7874L91.3575 20.8025L91.8748 19.9133L91.9149 19.3454C92.0431 19.1367 92.2175 18.9797 92.4384 18.8742C92.6534 18.7535 92.8516 18.657 93.033 18.5848L93.2599 18.4944C93.2809 18.5036 93.3352 18.5082 93.4226 18.5085C93.5101 18.5087 93.5975 18.5089 93.685 18.5091C93.7725 18.5093 93.8524 18.5125 93.9247 18.5187C94.0062 18.5038 94.0621 18.4903 94.0924 18.4782C94.1647 18.4844 94.2673 18.4786 94.4001 18.4608C94.5421 18.4217 94.6871 18.3903 94.835 18.3664C94.977 18.3273 95.1115 18.2913 95.2384 18.2583C95.3594 18.2101 95.4425 18.177 95.4879 18.1589C95.5543 18.15 95.6579 18.2138 95.7987 18.3505C95.9395 18.4871 96.0741 18.6525 96.2024 18.8466C96.34 19.0196 96.4624 19.1986 96.5697 19.3836C96.6862 19.5474 96.7563 19.6597 96.78 19.7203C96.9282 20.0993 97.0221 20.4736 97.0618 20.8432C97.1106 21.1916 97.0343 21.5549 96.8326 21.933C96.8234 21.9542 96.7869 21.995 96.7232 22.0555C96.6686 22.0947 96.6095 22.1445 96.5457 22.205C96.4761 22.2502 96.4093 22.3031 96.3456 22.3635C96.291 22.4028 96.2638 22.4224 96.2638 22.4224C96.2605 22.4587 96.2434 22.5268 96.2126 22.6267C96.1758 22.7114 96.1344 22.8068 96.0885 22.9127C96.0366 23.0034 95.9847 23.0942 95.9328 23.1849C95.875 23.2605 95.8415 23.3089 95.8323 23.33C95.783 23.4723 95.6706 23.5871 95.4951 23.6746C95.3347 23.756 95.1789 23.8268 95.0277 23.887L94.1431 24.2393C93.9768 24.3055 93.8302 24.3552 93.7033 24.3882C93.5705 24.4061 93.3656 24.3738 93.0887 24.2913C92.6835 24.0148 92.3052 23.7625 91.9539 23.5345C91.6027 23.3065 91.3322 22.95 91.1425 22.4649L90.93 21.7874Z" fill="#FADC71"/>
<path d="M124.607 57.6998L123.403 58.442L118.798 60.2758C118.617 60.3481 118.419 60.4007 118.205 60.4335C118.006 60.4603 117.802 60.4537 117.594 60.4139C117.407 60.3831 117.231 60.3131 117.066 60.2036C116.916 60.0882 116.8 59.9243 116.717 59.7121C116.634 59.4999 116.578 59.312 116.549 59.1484C116.541 58.9939 116.631 58.8442 116.819 58.6992L118.305 57.7395C118.399 57.667 118.482 57.59 118.555 57.5084C118.619 57.4479 118.683 57.3875 118.746 57.3271C118.825 57.2606 118.881 57.2032 118.915 57.1548C118.975 57.1307 119.035 57.0809 119.092 57.0053C119.117 56.9781 119.138 56.9433 119.156 56.901C119.197 56.7799 119.228 56.5922 119.251 56.3378C119.28 56.0986 119.276 55.9335 119.241 55.8426C119.229 55.8123 119.195 55.7031 119.139 55.5152C119.089 55.3425 119.027 55.1394 118.953 54.906C118.9 54.6817 118.84 54.4605 118.772 54.2422C118.704 54.024 118.647 53.8542 118.599 53.733L118.119 52.5051C117.941 52.0504 117.756 51.5986 117.563 51.1499C117.376 50.7163 117.165 50.31 116.929 49.9308L116.624 49.553L116.286 48.689L116.236 48.1573L115.848 47.2341C115.783 47.0673 115.728 46.9052 115.684 46.7476C115.661 46.5991 115.664 46.4492 115.692 46.2978C115.311 45.5033 114.955 44.7256 114.622 43.9645C114.299 43.1823 113.98 42.3895 113.666 41.5861L113.382 40.8585L113.178 40.2038C113.172 40.1886 113.163 40.1659 113.151 40.1356C113.139 40.1053 113.105 40.0401 113.049 39.94C113.007 39.8339 112.934 39.6701 112.83 39.4488C112.726 39.2274 112.582 38.9257 112.398 38.5437C112.35 38.4224 112.306 38.3087 112.264 38.2026C112.223 38.0965 112.191 37.9692 112.167 37.8207L111.843 36.9249C111.596 36.5154 111.371 36.0969 111.169 35.6694C110.982 35.2358 110.797 34.7841 110.613 34.3142C110.441 33.8746 110.277 33.432 110.12 32.9863C109.972 32.5196 109.841 32.0286 109.727 31.5134L109.502 31.3402C109.445 31.328 109.356 31.302 109.236 31.2623C109.125 31.2015 109.017 31.1482 108.911 31.1026C108.785 31.0478 108.641 30.9914 108.478 30.9334C108.415 30.906 108.316 30.8755 108.18 30.8419C108.045 30.8082 107.894 30.7806 107.728 30.759C107.563 30.7375 107.4 30.7234 107.24 30.717C107.096 30.7046 106.987 30.6952 106.915 30.689C106.812 30.6948 106.731 30.7098 106.67 30.7338C106.619 30.7368 106.572 30.7291 106.53 30.7108C106.217 30.6253 106.013 30.4612 105.918 30.2187C105.906 30.1884 105.886 30.1353 105.856 30.0595C105.82 29.9686 105.812 29.9019 105.83 29.8596C105.843 29.802 105.85 29.7551 105.854 29.7188C105.851 29.6673 105.879 29.6037 105.936 29.5281L106.818 28.3626C106.857 28.3293 106.904 28.2931 106.959 28.2539C106.998 28.2206 107.037 28.1874 107.077 28.1542C107.116 28.121 107.151 28.0983 107.181 28.0863L108.1 27.3524L108.494 26.6173C108.605 26.2753 108.784 25.9501 109.03 25.6417C109.286 25.3122 109.557 25.0902 109.845 24.9758C110.177 24.8433 110.458 24.8015 110.687 24.8505C110.925 24.8784 111.133 24.9621 111.31 25.1019C111.487 25.2416 111.629 25.404 111.736 25.589C111.858 25.768 111.97 25.9424 112.072 26.1123C112.188 26.2761 112.3 26.4066 112.408 26.5038C112.525 26.5798 112.652 26.5907 112.788 26.5365L114.474 24.814L114.867 24.2106C115.053 23.9264 115.257 23.6876 115.478 23.4942C115.715 23.2949 115.96 23.1183 116.215 22.9644C116.469 22.8105 116.732 22.6794 117.004 22.571C117.286 22.4414 117.572 22.3012 117.862 22.1504L118.372 21.7109C118.69 21.5845 118.963 21.5018 119.193 21.463C119.431 21.403 119.656 21.3747 119.867 21.3782C120.078 21.3818 120.288 21.4035 120.496 21.4433C120.697 21.468 120.938 21.5034 121.219 21.5495C121.692 21.5536 122.175 21.5366 122.667 21.4984C123.168 21.439 123.668 21.4674 124.168 21.5837L127.221 23.022L127.463 23.2406C127.523 23.3044 127.58 23.3606 127.634 23.4091C127.703 23.4517 127.744 23.4882 127.756 23.5185L129.039 25.0571L129.821 25.7177C129.857 25.8087 129.915 25.8906 129.996 25.9635L130.158 26.1093L130.407 26.7459C130.452 26.8157 130.493 26.8779 130.532 26.9325C130.571 26.9871 130.607 27.0341 130.64 27.0736C130.673 27.113 130.695 27.1479 130.707 27.1782L131.021 27.5788C131.113 27.7698 131.202 27.9533 131.289 28.1292C131.369 28.2899 131.449 28.4506 131.529 28.6113C131.604 28.7569 131.665 28.8903 131.712 29.0116C131.829 30.0689 131.894 31.0853 131.908 32.0606C131.923 33.0359 131.874 34.0278 131.761 35.0362L131.621 36.3534L131.631 36.8486C131.569 37.1362 131.46 37.4162 131.304 37.6884C131.158 37.9394 130.985 38.192 130.788 38.4459C130.59 38.6999 130.389 38.9463 130.185 39.1851C129.976 39.4087 129.787 39.6415 129.62 39.8834L129.107 40.7182C128.912 41.0237 128.672 41.2593 128.388 41.4253C128.103 41.5912 127.787 41.7434 127.439 41.8819L126.418 42.2884C126.176 42.3848 125.95 42.4751 125.738 42.5594C125.541 42.6377 125.337 42.719 125.126 42.8033C124.908 42.8725 124.675 42.9477 124.427 43.0289C124.195 43.1041 123.929 43.1837 123.629 43.2678L122.995 43.389L122.654 43.6562L120.885 44.3609C120.687 44.7027 120.565 45.0401 120.521 45.3732C120.482 45.7214 120.487 46.0697 120.536 46.4182C120.6 46.7606 120.693 47.1091 120.814 47.4638C120.935 47.8185 121.067 48.1777 121.209 48.5415L122.045 50.6788C122.092 50.8001 122.168 50.9714 122.272 51.1928C122.376 51.4141 122.48 51.6355 122.584 51.8568C122.709 52.0873 122.815 52.2905 122.901 52.4664C122.987 52.6422 123.036 52.7453 123.048 52.7757L123.906 53.6954L124.119 54.2411L124.845 55.2923C124.881 55.3833 124.954 55.4153 125.066 55.3883C125.178 55.3613 125.287 55.3267 125.392 55.2845L125.927 54.5725L126.085 54.5093L126.533 54.5148L127.781 54.018C127.947 53.9518 128.11 53.9218 128.27 53.9283C128.445 53.9287 128.656 53.9761 128.902 54.0706C129.146 54.1136 129.316 54.1685 129.412 54.2354C129.514 54.3174 129.607 54.4645 129.69 54.6767L129.801 54.8951C129.896 55.1376 129.866 55.395 129.71 55.6672C129.56 55.9546 129.34 56.1737 129.05 56.3245L127.088 57.3421C126.738 57.3413 126.373 57.3465 125.993 57.3577C125.628 57.3629 125.31 57.4197 125.038 57.5281L124.607 57.6998ZM117.316 39.055C117.399 39.2672 117.472 39.4309 117.534 39.5461C117.591 39.6462 117.705 39.8025 117.875 40.0149C117.953 40.1241 118.062 40.2471 118.203 40.3837C118.359 40.5143 118.504 40.6403 118.639 40.7618C118.795 40.8924 118.964 41.0352 119.147 41.1901C119.159 41.2204 119.215 41.2508 119.314 41.2813C119.428 41.3058 119.55 41.3273 119.68 41.3458C119.809 41.3643 119.928 41.3782 120.037 41.3875C120.161 41.3908 120.237 41.3865 120.268 41.3744L121.22 41.731L122.302 41.6155L123.481 41.1457L123.798 41.151C124.115 41.0245 124.391 40.8798 124.624 40.7168C124.852 40.5386 125.053 40.3619 125.229 40.1866C125.415 39.9902 125.582 39.7922 125.731 39.5926C125.88 39.3931 126.032 39.2011 126.188 39.0167C126.319 38.7717 126.474 38.5873 126.653 38.4635C126.841 38.3185 127.002 38.1054 127.137 37.824C127.17 37.7756 127.198 37.7121 127.219 37.6334C127.256 37.5487 127.293 37.4639 127.33 37.3792L127.422 37.0796L127.011 35.6929L127.032 34.0028L126.87 33.2528L126.656 32.7071L126.595 31.6801L126.329 30.998C125.964 30.5125 125.693 30.0863 125.514 29.7194C125.33 29.3374 125.139 28.984 124.942 28.6595C124.871 28.5654 124.8 28.4971 124.731 28.4545C124.677 28.4059 124.616 28.3604 124.547 28.3178C124.478 28.2752 124.406 28.2251 124.331 28.1674C124.265 28.0885 124.18 27.9823 124.075 27.8487C124.003 27.7547 123.93 27.6349 123.856 27.4893C123.775 27.3286 123.688 27.1709 123.592 27.0162C123.512 26.8555 123.427 26.7053 123.337 26.5658C123.248 26.4262 123.149 26.3079 123.041 26.2107C122.984 26.1985 122.87 26.174 122.698 26.1372C122.536 26.0793 122.363 26.0168 122.179 25.9497C122.005 25.8615 121.836 25.7884 121.674 25.7305C121.521 25.6513 121.42 25.5951 121.372 25.5616L120.886 25.1243C120.875 25.094 120.826 25.0606 120.742 25.024C120.652 24.9723 120.557 24.9312 120.458 24.9007C120.353 24.855 120.243 24.8199 120.129 24.7954C120.008 24.7558 119.919 24.7298 119.862 24.7176L119.546 24.7123L118.412 25.164L117.565 25.212L117.18 25.3655C116.59 25.6004 116.13 25.8538 115.799 26.1256C115.469 26.3974 115.129 26.6904 114.78 27.0046L114.174 27.6665C114.016 27.7994 113.905 27.94 113.84 28.0883C113.791 28.2305 113.763 28.3819 113.756 28.5424C113.749 28.7029 113.755 28.8756 113.775 29.0604C113.789 29.23 113.801 29.4178 113.812 29.6238L113.8 30.7324C113.865 30.8991 113.942 31.0523 114.032 31.1918C114.13 31.3102 114.212 31.4527 114.278 31.6195L114.6 32.7788C114.807 33.3093 115.045 33.7839 115.314 34.2025C115.592 34.5999 115.908 35.0081 116.264 35.4269L116.451 35.9044L116.701 37.0135L117.075 37.9685L117.112 38.532L117.316 39.055Z" fill="#FADC71"/>
<path d="M137.356 28.0253L136.331 25.8057L135.542 23.3868L135.275 22.7047C135.261 22.6229 135.248 22.5229 135.237 22.4047C135.225 22.2866 135.205 22.1896 135.175 22.1138C135.003 21.6742 134.76 21.2541 134.447 20.8536C134.127 20.4379 133.843 20.0253 133.596 19.6158C133.403 19.5699 133.154 19.5814 132.849 19.6504C132.559 19.7133 132.266 19.7687 131.97 19.8164C131.668 19.849 131.385 19.8393 131.12 19.7872C130.87 19.729 130.689 19.556 130.576 19.268C130.452 18.9496 130.466 18.6725 130.618 18.4366C130.764 18.1856 130.961 17.9498 131.206 17.7293C131.461 17.4875 131.722 17.261 131.989 17.0496C132.271 16.8322 132.475 16.5934 132.6 16.3332C132.732 16.0881 132.871 15.7962 133.018 15.4573C133.165 15.1184 133.265 14.8597 133.317 14.6811C133.344 14.3904 133.384 14.024 133.438 13.5819C133.507 13.1338 133.598 12.6948 133.71 12.2649C133.815 11.8199 133.957 11.422 134.134 11.071C134.305 10.7049 134.527 10.4677 134.799 10.3593C134.981 10.287 135.145 10.2829 135.292 10.3468C135.449 10.3896 135.587 10.4747 135.707 10.6022C135.836 10.7085 135.948 10.839 136.044 10.9937C136.139 11.1484 136.224 11.2986 136.298 11.4441L137.33 14.0817L137.505 14.1957L138.571 13.7711C138.949 13.6205 139.288 13.4593 139.588 13.2873C139.882 13.1002 140.153 12.9222 140.401 12.7531C140.659 12.5629 140.908 12.3939 141.147 12.246C141.395 12.077 141.671 11.9322 141.973 11.8118C142.396 11.6432 142.814 11.6608 143.226 11.8647C143.638 12.0686 143.929 12.3904 144.101 12.83C144.238 13.1786 144.29 13.4907 144.258 13.7662C144.241 14.0358 144.153 14.2809 143.995 14.5017C143.836 14.7224 143.626 14.9203 143.362 15.0953C143.092 15.2552 142.784 15.4045 142.436 15.543L140.895 16.0255L139.805 16.5909L138.672 16.9108C138.46 16.9951 138.302 17.1719 138.198 17.4412C138.102 17.6894 138.087 17.8968 138.153 18.0636L139.024 19.6876C139.107 19.8998 139.156 20.1165 139.173 20.3376C139.19 20.5588 139.201 20.7905 139.209 21.0329C139.21 21.26 139.222 21.4918 139.245 21.7281C139.267 21.9644 139.323 22.1962 139.412 22.4236L139.572 22.8329L140.807 25.3891C140.798 25.4981 140.803 25.6011 140.823 25.6981C140.859 25.7891 140.903 25.9027 140.957 26.0392C140.998 26.1453 141.052 26.2378 141.118 26.3167C141.184 26.3956 141.231 26.4729 141.261 26.5487C141.478 26.9703 141.67 27.3932 141.836 27.8177C141.984 28.1966 142.111 28.5665 142.217 28.9271C142.323 29.2878 142.414 29.6545 142.49 30.0273C142.511 30.0364 142.559 30.0698 142.634 30.1276C142.703 30.1701 142.778 30.2279 142.859 30.3007C142.949 30.3524 143.035 30.4147 143.116 30.4876C143.191 30.5453 143.246 30.5758 143.282 30.5789C143.474 30.7126 143.664 30.7948 143.851 30.8256C144.037 30.8563 144.221 30.8794 144.402 30.895C144.592 30.8894 144.785 30.8913 144.981 30.9009C145.192 30.9044 145.411 30.9489 145.636 31.0342L146.498 30.6909C146.846 30.5524 147.164 30.382 147.452 30.1798C147.739 29.9775 148.012 29.7813 148.27 29.591C148.537 29.3796 148.791 29.1818 149.034 28.9977C149.292 28.8074 149.572 28.6521 149.874 28.5317C150.056 28.4594 150.227 28.4961 150.389 28.6419C150.551 28.7877 150.664 28.9439 150.73 29.1107C150.765 29.2016 150.787 29.2804 150.796 29.3471C150.814 29.3925 150.816 29.444 150.804 29.5016C150.791 29.5591 150.767 29.6302 150.73 29.7149C150.708 29.7936 150.68 29.9011 150.646 30.0373L150.507 30.6185C150.473 30.6669 150.427 30.7728 150.369 30.9362C150.325 31.0936 150.273 31.2722 150.211 31.472C150.144 31.6566 150.076 31.8412 150.008 32.0258C149.935 32.1952 149.88 32.3223 149.843 32.4071C149.757 32.634 149.592 32.8835 149.349 33.1555C149.106 33.4276 148.839 33.6829 148.548 33.9215C148.262 34.1753 147.973 34.3957 147.679 34.5828C147.4 34.7639 147.17 34.8905 146.989 34.9628L143.854 35.5279C143.568 35.5545 143.236 35.5552 142.859 35.5301C142.482 35.505 142.104 35.4542 141.725 35.3775C141.355 35.2798 141.006 35.1472 140.678 34.9798C140.366 34.8064 140.12 34.5802 139.941 34.3011L139.327 32.7322C139.05 32.247 138.77 31.798 138.486 31.3854C138.212 30.9517 137.977 30.4847 137.781 29.9844L137.356 28.0253Z" fill="#FADC71"/>
</svg>
