<svg width="165" height="123" viewBox="0 0 165 123" fill="none" xmlns="http://www.w3.org/2000/svg">
<path d="M26.4561 75.6412C27.2622 77.6839 28.0772 79.2587 28.901 80.3655C29.7116 81.4389 30.7536 82.3629 32.0268 83.1376L33.0366 83.7841L32.7008 84.8455L21.7004 89.1866L20.4237 87.7167L21.46 86.9594C22.6004 86.1223 23.2627 85.2998 23.4469 84.4917C23.6312 83.6837 23.426 82.5262 22.8313 81.0193L13.0389 56.2056C12.8671 55.7703 12.6644 55.502 12.4309 55.4006C12.1842 55.2658 11.8599 55.2776 11.4581 55.4362L8.54474 56.5859L7.20854 54.9653C8.42381 53.8278 10.1176 52.5788 12.2899 51.2184C14.4824 49.8113 16.667 48.6783 18.8436 47.8193C23.7997 45.8635 27.9259 45.5316 31.2224 46.8238C34.5056 48.0824 36.841 50.4698 38.2286 53.9859C39.0876 56.1625 39.432 58.31 39.2617 60.4284C39.0782 62.5133 38.2938 64.4484 36.9084 66.2336C35.5098 67.9853 33.471 69.3897 30.7921 70.4469C29.5531 70.9359 28.4388 71.2015 27.4492 71.2437C26.4931 71.2727 25.9027 71.0025 25.678 70.4333C25.5459 70.0984 25.5005 69.7873 25.542 69.5001C25.5834 69.2128 25.7381 69.0163 26.006 68.9106C26.1399 68.8577 26.4342 68.819 26.8889 68.7943C27.3639 68.723 27.9363 68.5552 28.606 68.2909C31.1175 67.2997 32.7593 65.723 33.5314 63.5606C34.3036 61.3982 34.1478 58.944 33.0642 56.1981C31.9937 53.4857 30.3615 51.5562 28.1674 50.4095C26.0068 49.2497 23.5703 49.205 20.8579 50.2754C18.3129 51.2797 17.3443 52.5521 17.9522 54.0925L26.4561 75.6412ZM51.5087 77.4232C51.3271 77.4949 51.1952 77.5819 51.1131 77.6843C51.0521 77.7958 50.9687 77.8725 50.8627 77.9143C50.8021 77.9382 50.7145 77.9378 50.5998 77.9131C50.5002 77.8824 50.3492 77.8545 50.1468 77.8294C50.1105 77.8262 50.0729 77.7973 50.0338 77.7427C50.004 77.667 49.956 77.5898 49.8898 77.5109C49.8237 77.432 49.7562 77.3274 49.6873 77.1971C49.6813 77.182 49.6815 77.1381 49.6879 77.0656C49.7034 76.972 49.719 76.8784 49.7345 76.7848C49.7441 76.676 49.7567 76.5748 49.7722 76.4812C49.7877 76.3876 49.8047 76.3196 49.823 76.2774L50.1559 75.8573L50.6555 75.6602C51.0037 75.5227 51.3051 75.3775 51.5597 75.2246C51.8235 75.0505 51.9819 74.7868 52.0349 74.4334C51.8923 73.8948 51.7436 73.3848 51.5886 72.9035C51.4337 72.4222 51.3272 71.9306 51.269 71.4286L51.1203 70.2537L50.2869 68.1417L49.5938 66.053L49.0651 64.7132C49.0531 64.6829 49.0081 64.6131 48.93 64.504C48.846 64.3797 48.7589 64.2478 48.6689 64.1083C48.5729 63.9538 48.4829 63.8143 48.3988 63.69C48.3088 63.5506 48.2489 63.443 48.219 63.3673L47.3676 61.2099C47.2413 61.0672 47.0622 60.9017 46.8304 60.7132C46.5985 60.5247 46.3936 60.4044 46.2155 60.3522L45.4219 60.4029C45.0928 60.3228 44.7805 60.2186 44.4848 60.0903C44.2044 59.956 43.9409 59.7538 43.6943 59.4837C43.6286 59.3171 43.6156 59.1735 43.6555 59.0528C43.6953 58.9321 43.7668 58.8251 43.87 58.7319C43.9732 58.6387 44.087 58.55 44.2113 58.466C44.3356 58.3819 44.4523 58.3009 44.5615 58.2228L45.9015 56.6966C46.0138 56.5823 46.1094 56.4921 46.1883 56.426C46.2764 56.3387 46.3569 56.2545 46.4298 56.1732C46.5027 56.0919 46.5651 56.0061 46.6169 55.9156C46.6838 55.8192 46.7464 55.6896 46.8045 55.5266L47.4452 55.2213C47.5209 55.1914 47.6374 55.1542 47.7948 55.1096C47.9673 55.059 48.0687 55.0277 48.099 55.0158C48.1444 54.9979 48.2231 54.9756 48.335 54.9489C48.447 54.9222 48.5695 54.9001 48.7026 54.8826C48.8356 54.8651 48.9611 54.8505 49.0791 54.839C49.197 54.8274 49.2817 54.8203 49.3331 54.8175C49.4932 54.8243 49.6273 54.9201 49.7352 55.105C49.8523 55.2687 49.9408 55.4263 50.0005 55.5777L50.2873 56.3044L50.3434 56.9122C50.6561 57.9261 51.0006 58.91 51.377 59.8638C51.7534 60.8176 52.1266 61.8077 52.4967 62.834L52.7057 63.6963C52.6966 63.7175 52.7023 63.7764 52.7231 63.8732C52.7589 63.9641 52.8007 64.0701 52.8485 64.1912C52.8963 64.3123 52.9441 64.4334 52.9919 64.5545C53.0337 64.6605 53.0666 64.7438 53.0905 64.8043C53.1323 64.9103 53.1801 65.0314 53.2339 65.1677C53.2877 65.3039 53.3385 65.4326 53.3862 65.5538C53.434 65.6749 53.4759 65.7809 53.5117 65.8717C53.5567 65.9414 53.5868 65.9733 53.6019 65.9673C53.6199 66.0127 53.6768 66.1127 53.7728 66.2673C53.8629 66.4068 53.9214 66.4886 53.9485 66.513L54.1367 66.9899C54.1546 67.0353 54.1949 67.1594 54.2574 67.3622C54.3199 67.565 54.3944 67.798 54.4808 68.0614C54.5613 68.3096 54.6417 68.5578 54.7222 68.806C54.8118 69.0331 54.8775 69.1997 54.9194 69.3056C54.9731 69.4419 55.0673 69.6584 55.202 69.9552C55.3458 70.231 55.4985 70.5294 55.6603 70.8505C55.8371 71.1656 56.0004 71.4686 56.1502 71.7595C56.294 72.0352 56.3898 72.2336 56.4376 72.3547C56.5033 72.5213 56.6404 72.6247 56.8487 72.6649C57.0663 72.6841 57.234 72.6879 57.3519 72.6763C57.3973 72.6584 57.4912 72.6301 57.6334 72.5915C57.7908 72.5469 57.9557 72.4993 58.1282 72.4487C58.3007 72.3981 58.4581 72.3535 58.6003 72.3149C58.7517 72.2551 58.8577 72.2133 58.9183 72.1894C59.072 72.2687 59.2061 72.3645 59.3204 72.4769C59.4499 72.5833 59.5565 72.7424 59.6401 72.9544C59.7238 73.1664 59.7817 73.3797 59.814 73.5944C59.8613 73.8032 59.8318 73.9723 59.7255 74.1018C59.6035 74.3249 59.432 74.4888 59.2109 74.5936C59.0109 74.7075 58.7898 74.8123 58.5475 74.9079L58.1387 75.0692L57.5041 75.0572L54.7108 76.1595C54.6957 76.1655 54.5913 76.1892 54.3977 76.2306C54.1981 76.2569 54.068 76.282 54.0074 76.3059L53.3715 76.5568L51.5087 77.4232ZM40.2926 47.073L40.7188 46.0912L41.2352 45.205L41.2741 44.6384C41.402 44.4305 41.5765 44.2741 41.7976 44.1694C42.0128 44.0495 42.2112 43.9537 42.3929 43.882L42.62 43.7923C42.6411 43.8015 42.6954 43.8063 42.7831 43.8067C42.8707 43.8071 42.9584 43.8075 43.046 43.8079C43.1337 43.8083 43.2138 43.8117 43.2863 43.8181C43.368 43.8034 43.4239 43.79 43.4542 43.7781C43.5267 43.7845 43.6295 43.7789 43.7626 43.7614C43.9048 43.7227 44.05 43.6917 44.1982 43.6682C44.3405 43.6295 44.4751 43.5939 44.6022 43.5612C44.7233 43.5134 44.8066 43.4806 44.852 43.4627C44.9186 43.4539 45.0225 43.5179 45.164 43.6545C45.3054 43.7912 45.4406 43.9565 45.5697 44.1506C45.7079 44.3235 45.831 44.5024 45.939 44.6872C46.0561 44.851 46.1266 44.9632 46.1505 45.0237C46.2998 45.4022 46.3948 45.7759 46.4354 46.1448C46.4852 46.4926 46.4095 46.855 46.2083 47.2319C46.1991 47.253 46.1626 47.2936 46.0989 47.3538C46.0443 47.3928 45.9851 47.4424 45.9214 47.5025C45.8517 47.5476 45.7849 47.6001 45.7212 47.6603C45.6666 47.6993 45.6393 47.7189 45.6393 47.7189C45.6361 47.7551 45.6192 47.823 45.5885 47.9226C45.5518 48.0071 45.5106 48.1021 45.4648 48.2077C45.413 48.2981 45.3612 48.3885 45.3094 48.479C45.2516 48.5543 45.2181 48.6025 45.2089 48.6236C45.1599 48.7654 45.0476 48.8797 44.8719 48.9666C44.7113 49.0474 44.5553 49.1177 44.4039 49.1775L43.5182 49.527C43.3517 49.5927 43.2049 49.6419 43.0778 49.6746C42.9447 49.6921 42.7394 49.6594 42.4617 49.5765C42.0549 49.2996 41.6753 49.047 41.3227 48.8187C40.9702 48.5903 40.6983 48.234 40.5071 47.7495L40.2926 47.073ZM71.2434 69.6351C71.0769 69.7009 70.9014 69.7439 70.7169 69.7642C70.5476 69.7785 70.3783 69.7928 70.209 69.8072C70.0337 69.8063 69.8538 69.8161 69.6693 69.8364C69.5 69.8507 69.3245 69.8937 69.1428 69.9654C68.7492 70.1208 68.3524 70.3124 67.9524 70.5402C67.5615 70.7469 67.139 70.9399 66.6848 71.1192C66.4728 71.2028 66.2836 71.2775 66.1171 71.3432C65.9445 71.3938 65.772 71.4444 65.5995 71.495C65.4362 71.5244 65.2682 71.5645 65.0957 71.6151C64.9172 71.6505 64.716 71.6949 64.4921 71.7483L63.8748 71.9131C63.621 71.8908 63.3539 71.8125 63.0734 71.6782C62.787 71.5288 62.59 71.3178 62.4825 71.0453L62.357 70.7274L63.3056 68.542L63.6075 66.9793C63.6262 66.8494 63.6553 66.768 63.6948 66.7349C63.7434 66.6807 63.7904 66.6447 63.8358 66.6268C63.8812 66.6088 63.9312 66.5804 63.9858 66.5413C64.0344 66.4871 64.0862 66.3967 64.1412 66.27C64.2213 65.9409 64.256 65.6298 64.2453 65.3366C64.2437 65.0222 64.2768 64.7292 64.3446 64.4575C64.4159 64.0619 64.4524 63.6888 64.454 63.3382C64.4497 62.9725 64.3939 62.6095 64.2868 62.2494C64.5275 61.8394 64.7438 61.4566 64.9359 61.1008C65.1371 60.724 65.311 60.3666 65.4577 60.0288C65.5892 59.6969 65.701 59.3816 65.793 59.0828C65.9002 58.778 65.9983 58.4944 66.0871 58.2318C66.033 57.5183 66.0271 56.8382 66.0694 56.1916C66.0642 56.0012 66.1226 55.7944 66.2445 55.5713C66.3605 55.3331 66.431 55.1128 66.4561 54.9104C66.4904 54.6869 66.4777 54.4995 66.4179 54.3481C66.3522 54.1815 66.3576 53.9957 66.4341 53.7905L67.0581 53.1768C67.0915 53.1286 67.1011 53.0199 67.0868 52.8505C67.0816 52.6601 67.0735 52.4621 67.0623 52.2565C67.0452 52.0358 67.0159 51.8286 66.9745 51.635C66.9423 51.4203 66.9188 51.272 66.9041 51.1904C66.9985 51.0306 67.0176 50.8131 66.9615 50.5378C66.9205 50.2565 66.8731 50.0478 66.8193 49.9115C66.7775 49.8055 66.6962 49.7326 66.5755 49.6928C66.4488 49.6378 66.3054 49.6069 66.1452 49.6001C66.0002 49.5873 65.8536 49.5927 65.7054 49.6162C65.5723 49.6337 65.4604 49.6604 65.3695 49.6962C65.1516 49.7647 64.9337 49.8332 64.7157 49.9018C64.513 49.9643 64.3283 50.0284 64.1618 50.0941L62.9623 50.6462C62.8376 50.8179 62.6828 50.9577 62.4979 51.0657C62.3282 51.1677 62.1374 51.2605 61.9254 51.3441L60.2449 52.0073C59.8421 52.1838 59.4811 52.4662 59.162 52.8546C58.8428 53.243 58.5567 53.6709 58.3037 54.1382C58.0599 54.5844 57.8341 55.0322 57.6265 55.4815C57.434 55.9249 57.2585 56.3004 57.0999 56.608L56.8364 56.7382C56.7001 56.792 56.5537 56.7535 56.3971 56.6229C56.2406 56.4922 56.1249 56.3541 56.05 56.2087L56.4442 51.355C56.4474 51.3187 56.4809 51.2705 56.5446 51.2104C56.6175 51.1291 56.6769 51.0357 56.7227 50.9301L56.9271 50.8495C57.1176 50.8443 57.249 50.8449 57.3215 50.8513C57.4032 50.8366 57.4668 50.8202 57.5122 50.8023C57.5727 50.7784 57.6363 50.7621 57.7028 50.7533C57.7785 50.7235 57.901 50.7014 58.0703 50.687C58.3759 50.6189 58.6558 50.5522 58.91 50.4869C59.1582 50.4064 59.3988 50.329 59.6319 50.2545C59.865 50.18 60.0951 50.098 60.3222 50.0083C60.5493 49.9187 60.7915 49.8231 61.0489 49.7216C61.4274 49.5722 61.7517 49.3742 62.0218 49.1276C62.3011 48.8599 62.6073 48.6604 62.9404 48.5289C65.0277 48.1426 67.0795 47.5779 69.0958 46.8346C69.4743 46.6853 69.8062 46.4843 70.0915 46.2318C70.3919 45.9732 70.7162 45.7752 71.0644 45.6378C71.1856 45.59 71.3429 45.5454 71.5366 45.504C71.7394 45.4415 71.9465 45.4122 72.1581 45.4162C72.3636 45.4051 72.5585 45.4332 72.7425 45.5005C72.9266 45.5679 73.0545 45.6924 73.1261 45.8741L73.1435 46.0509C72.9837 46.6214 72.8569 47.2314 72.7632 47.8808C72.6787 48.509 72.5476 49.0857 72.3699 49.6108C72.1495 50.2052 71.9957 50.7908 71.9084 51.3677C71.8151 51.9294 71.7957 52.5233 71.8502 53.1491L70.8383 55.307L70.8555 56.4813L70.219 57.8611C70.0632 58.22 69.9528 58.5611 69.8878 58.8842C69.838 59.2013 69.8033 59.5124 69.7837 59.8176C69.7642 60.1228 69.7476 60.4355 69.7341 60.7558C69.7356 61.0702 69.7099 61.404 69.6569 61.7574L69.2666 62.8301C69.2677 63.2321 69.2055 63.6065 69.08 63.9535C68.9545 64.3005 68.8503 64.6129 68.7674 64.8906C68.7084 65.2288 68.6827 65.5627 68.6902 65.8921C68.7129 66.2156 68.7158 66.5557 68.6991 66.9122C68.6959 66.9485 68.6973 66.9742 68.7033 66.9893L68.7391 67.0802C68.8885 67.4587 69.1339 67.6593 69.4753 67.682C69.8108 67.6896 70.148 67.6353 70.4871 67.519C70.6958 67.4716 70.9273 67.4152 71.1815 67.3499C71.4357 67.2846 71.6899 67.2193 71.944 67.154C72.1922 67.0735 72.4329 66.996 72.666 66.9215C72.9142 66.8411 73.1367 66.762 73.3335 66.6844C74.4236 66.2542 75.3419 65.6993 76.0886 65.0197C76.8293 64.3249 77.4453 63.4694 77.9366 62.4531C78.0466 62.1998 78.1307 61.9916 78.1888 61.8287C78.2562 61.6446 78.3219 61.4787 78.3861 61.3309C78.4502 61.1831 78.5325 61.0369 78.6329 60.8923C78.7274 60.7325 78.8702 60.5624 79.0615 60.3819C79.1372 60.3521 79.2686 60.3527 79.4559 60.3838C79.6431 60.4149 79.7593 60.4653 79.8043 60.535C79.8521 60.6561 79.8891 60.8165 79.9154 61.0161C79.9417 61.2157 79.9636 61.382 79.9811 61.5151C80.1898 62.1326 80.3666 62.7802 80.5116 63.4579C80.6717 64.1296 80.8166 64.8073 80.9465 65.491C80.8691 65.8715 80.6653 66.1531 80.335 66.336C80.0047 66.5188 79.6201 66.6969 79.181 66.8701C78.7268 67.0494 78.2577 67.1908 77.7736 67.2943C77.2955 67.413 76.822 67.5211 76.3531 67.6187C75.8842 67.7162 75.4182 67.8214 74.9553 67.9341C74.4864 68.0317 74.0324 68.1671 73.5933 68.3403L71.2434 69.6351ZM92.7722 61.1391C92.6056 61.2048 92.4301 61.2478 92.2457 61.2681C92.0764 61.2825 91.907 61.2968 91.7377 61.3111C91.5624 61.3103 91.3825 61.3201 91.1981 61.3404C91.0288 61.3547 90.8533 61.3977 90.6716 61.4694C90.2779 61.6247 89.8811 61.8163 89.4811 62.0442C89.0903 62.2509 88.6677 62.4439 88.2135 62.6232C88.0016 62.7068 87.8123 62.7815 87.6458 62.8472C87.4733 62.8978 87.3008 62.9484 87.1283 62.9989C86.9649 63.0284 86.797 63.0684 86.6245 63.119C86.446 63.1545 86.2448 63.1989 86.0209 63.2522L85.4035 63.4171C85.1498 63.3948 84.8826 63.3165 84.6022 63.1822C84.3157 63.0328 84.1188 62.8218 84.0112 62.5493L83.8857 62.2313L84.8343 60.046L85.1363 58.4833C85.155 58.3534 85.1841 58.272 85.2235 58.2389C85.2721 58.1847 85.3191 58.1487 85.3646 58.1307C85.41 58.1128 85.46 58.0843 85.5146 58.0453C85.5632 57.9911 85.615 57.9007 85.67 57.774C85.7501 57.4449 85.7848 57.1338 85.774 56.8405C85.7725 56.5262 85.8056 56.2332 85.8733 55.9615C85.9447 55.5659 85.9811 55.1928 85.9828 54.8422C85.9784 54.4765 85.9227 54.1135 85.8155 53.7533C86.0562 53.3434 86.2726 52.9606 86.4646 52.6048C86.6659 52.2279 86.8398 51.8706 86.9864 51.5328C87.1179 51.2009 87.2297 50.8856 87.3218 50.5868C87.429 50.282 87.527 49.9984 87.6159 49.7358C87.5617 49.0223 87.5558 48.3422 87.5981 47.6956C87.5929 47.5052 87.6513 47.2984 87.7733 47.0753C87.8892 46.8371 87.9598 46.6168 87.9849 46.4144C88.0192 46.1909 88.0064 46.0034 87.9467 45.852C87.881 45.6855 87.8863 45.4996 87.9629 45.2945L88.5868 44.6808C88.6203 44.6326 88.6298 44.5238 88.6155 44.3545C88.6104 44.1641 88.6022 43.9661 88.5911 43.7605C88.574 43.5398 88.5447 43.3326 88.5033 43.139C88.471 42.9242 88.4475 42.776 88.4328 42.6943C88.5272 42.5346 88.5464 42.3171 88.4902 42.0418C88.4492 41.7605 88.4018 41.5517 88.3481 41.4155C88.3062 41.3095 88.225 41.2366 88.1042 41.1967C87.9776 41.1417 87.8341 41.1109 87.674 41.1041C87.529 41.0913 87.3824 41.0967 87.2341 41.1202C87.1011 41.1377 86.9891 41.1644 86.8983 41.2002C86.6804 41.2687 86.4624 41.3372 86.2445 41.4057C86.0417 41.4683 85.857 41.5324 85.6905 41.5981L84.4911 42.1502C84.3664 42.3219 84.2116 42.4617 84.0267 42.5697C83.857 42.6716 83.6661 42.7645 83.4542 42.8481L81.7737 43.5113C81.3709 43.6877 81.0099 43.9702 80.6907 44.3586C80.3716 44.747 80.0855 45.1749 79.8325 45.6422C79.5886 46.0884 79.3629 46.5361 79.1553 46.9855C78.9628 47.4289 78.7873 47.8044 78.6287 48.112L78.3651 48.2422C78.2289 48.296 78.0825 48.2575 77.9259 48.1268C77.7693 47.9961 77.6536 47.8581 77.5787 47.7127L77.973 42.859C77.9762 42.8227 78.0096 42.7745 78.0734 42.7144C78.1463 42.6331 78.2057 42.5397 78.2515 42.4341L78.4559 42.3534C78.6463 42.3483 78.7778 42.3489 78.8503 42.3553C78.932 42.3405 78.9955 42.3242 79.0409 42.3063C79.1015 42.2824 79.165 42.2661 79.2316 42.2573C79.3073 42.2274 79.4298 42.2053 79.5991 42.191C79.9047 42.1229 80.1846 42.0562 80.4387 41.9909C80.687 41.9104 80.9276 41.8329 81.1607 41.7585C81.3937 41.684 81.6238 41.6019 81.8509 41.5123C82.078 41.4227 82.3202 41.3271 82.5776 41.2255C82.9561 41.0762 83.2804 40.8782 83.5506 40.6316C83.8299 40.3639 84.1361 40.1643 84.4691 40.0329C86.5564 39.6466 88.6082 39.0819 90.6246 38.3386C91.0031 38.1893 91.335 37.9883 91.6202 37.7357C91.9207 37.4772 92.245 37.2792 92.5932 37.1418C92.7143 37.094 92.8717 37.0494 93.0653 37.008C93.2681 36.9454 93.4753 36.9162 93.6868 36.9202C93.8924 36.909 94.0872 36.9371 94.2713 37.0045C94.4553 37.0718 94.5832 37.1963 94.6549 37.378L94.6722 37.5549C94.5124 38.1254 94.3857 38.7354 94.292 39.3847C94.2075 40.013 94.0763 40.5897 93.8986 41.1148C93.6782 41.7092 93.5244 42.2948 93.4371 42.8717C93.3438 43.4334 93.3245 44.0272 93.379 44.6531L92.3671 46.811L92.3843 47.9853L91.7477 49.3651C91.5919 49.724 91.4815 50.065 91.4166 50.3881C91.3667 50.7053 91.332 51.0164 91.3125 51.3216C91.2929 51.6268 91.2764 51.9395 91.2628 52.2598C91.2644 52.5741 91.2386 52.908 91.1856 53.2614L90.7953 54.334C90.7965 54.736 90.7343 55.1105 90.6088 55.4575C90.4832 55.8045 90.379 56.1169 90.2961 56.3945C90.2371 56.7328 90.2114 57.0666 90.2189 57.3961C90.2416 57.7196 90.2446 58.0596 90.2278 58.4162C90.2246 58.4525 90.226 58.4782 90.232 58.4933L90.2678 58.5841C90.4172 58.9626 90.6626 59.1633 91.004 59.186C91.3395 59.1936 91.6767 59.1392 92.0158 59.0229C92.2246 58.9755 92.456 58.9192 92.7102 58.8539C92.9644 58.7886 93.2186 58.7232 93.4728 58.6579C93.721 58.5775 93.9616 58.5 94.1947 58.4255C94.4429 58.3451 94.6654 58.266 94.8622 58.1883C95.9523 57.7582 96.8707 57.2033 97.6173 56.5237C98.358 55.8289 98.974 54.9734 99.4653 53.9571C99.5753 53.7037 99.6594 53.4956 99.7176 53.3326C99.7849 53.1486 99.8507 52.9827 99.9148 52.8349C99.979 52.6871 100.061 52.5408 100.162 52.3962C100.256 52.2365 100.399 52.0664 100.59 51.8859C100.666 51.856 100.797 51.8567 100.985 51.8877C101.172 51.9188 101.288 51.9692 101.333 52.039C101.381 52.1601 101.418 52.3204 101.444 52.5201C101.47 52.7197 101.492 52.886 101.51 53.0191C101.719 53.6366 101.895 54.2842 102.04 54.9619C102.2 55.6336 102.345 56.3113 102.475 56.995C102.398 57.3754 102.194 57.6571 101.864 57.8399C101.533 58.0228 101.149 58.2008 100.71 58.3741C100.256 58.5533 99.7864 58.6947 99.3024 58.7983C98.8243 58.917 98.3508 59.0251 97.8818 59.1226C97.4129 59.2202 96.947 59.3253 96.484 59.4381C96.0151 59.5356 95.5611 59.671 95.1221 59.8443L92.7722 61.1391ZM114.583 49.4346C114.535 49.4888 114.472 49.6184 114.396 49.8236C114.328 50.0077 114.257 50.1146 114.181 50.1445L113.488 50.9165C113.464 50.9436 113.426 51.0024 113.374 51.0928C113.332 51.1621 113.28 51.2526 113.219 51.3641C113.167 51.4545 113.123 51.542 113.086 51.6265C113.043 51.6958 113.015 51.7334 112.999 51.7394C112.975 51.7665 112.921 51.8055 112.836 51.8565C112.766 51.9015 112.681 51.9525 112.581 52.0095C112.496 52.0605 112.411 52.1114 112.326 52.1624C112.251 52.1923 112.19 52.2162 112.145 52.2341C112.036 52.3122 111.943 52.41 111.867 52.5275C111.806 52.6391 111.743 52.7688 111.679 52.9166C111.624 53.0432 111.557 53.1835 111.478 53.3372C111.393 53.4759 111.289 53.6129 111.168 53.7484L109.01 54.5998C108.934 54.6296 108.823 54.6563 108.674 54.6798C108.541 54.6973 108.39 54.7133 108.221 54.7276C108.067 54.7359 107.909 54.7367 107.749 54.7299C107.589 54.7231 107.462 54.712 107.369 54.6964C107.357 54.6662 107.284 54.6159 107.152 54.5458C107.028 54.4546 106.944 54.3741 106.899 54.3044C106.857 54.286 106.819 54.2571 106.786 54.2177C106.723 54.1902 106.682 54.1538 106.664 54.1083L105.818 53.7599C105.601 53.5654 105.376 53.3044 105.141 52.9769C104.916 52.6283 104.756 52.3329 104.66 52.0907L104.631 51.551L104.284 51.1368L104.177 50.8643C104.147 50.7886 104.123 50.6843 104.105 50.5512C104.097 50.397 104.092 50.2504 104.089 50.1113C104.081 49.9572 104.079 49.8181 104.082 49.6942C104.08 49.5552 104.085 49.457 104.097 49.3996C104.106 49.3785 104.138 49.3046 104.193 49.1779C104.258 49.0301 104.326 48.8717 104.4 48.7028C104.467 48.5188 104.525 48.3558 104.574 48.214C104.638 48.0662 104.677 47.9636 104.689 47.9062C104.704 47.9003 104.736 47.8264 104.785 47.6845C104.849 47.5367 104.875 47.4477 104.863 47.4174L104.873 47.3087C104.876 47.2724 104.872 47.2391 104.86 47.2089C105.052 46.9408 105.233 46.6681 105.403 46.3908C105.568 46.0984 105.775 45.8243 106.024 45.5685C106.033 45.5474 106.121 45.4602 106.288 45.3068C106.464 45.1323 106.655 44.9519 106.861 44.7654C107.077 44.5579 107.291 44.3685 107.503 44.1972C107.716 44.0259 107.876 43.9012 107.986 43.8231C108.107 43.6877 108.227 43.5265 108.346 43.3397C108.465 43.1529 108.579 42.9766 108.689 42.8108C108.813 42.6391 108.929 42.4886 109.035 42.3591C109.136 42.2145 109.231 42.1242 109.322 42.0884L109.912 41.8554C109.928 41.8494 109.964 41.8088 110.022 41.7335C110.046 41.7064 110.075 41.6688 110.109 41.6205C110.163 41.5815 110.298 41.502 110.513 41.3821C110.743 41.2563 110.896 41.1784 110.972 41.1485L111.115 40.6459C111.197 40.5436 111.285 40.4563 111.379 40.3842C111.467 40.297 111.548 40.2127 111.621 40.1315C111.693 40.0502 111.745 39.9598 111.776 39.8602C111.816 39.7394 111.829 39.5944 111.814 39.4251C111.795 39.0653 111.731 38.7054 111.624 38.3452C111.526 37.9639 111.415 37.6143 111.289 37.2964L111.092 36.7968C111.08 36.7665 111.002 36.7012 110.857 36.6008C110.713 36.5003 110.628 36.4199 110.604 36.3593L109.875 35.3087L109.133 34.8927L108.695 34.5143C108.623 34.508 108.532 34.4562 108.424 34.3589C108.316 34.2617 108.239 34.1783 108.194 34.1085C108.128 34.0296 107.981 33.9912 107.755 33.9932C107.522 33.98 107.273 33.9909 107.006 34.026C106.734 34.0459 106.471 34.0885 106.217 34.1538C105.972 34.198 105.804 34.238 105.713 34.2738C105.683 34.2858 105.562 34.3336 105.35 34.4172C105.147 34.4798 104.978 34.5379 104.841 34.5917C104.705 34.6455 104.522 34.7353 104.291 34.8612C104.07 34.9659 103.869 35.098 103.687 35.2573C103.499 35.4015 103.345 35.5671 103.226 35.7539C103.123 35.9348 103.11 36.1236 103.188 36.3204L103.268 36.5248C103.295 36.5491 103.352 36.6053 103.44 36.6933C103.521 36.7663 103.608 36.8543 103.701 36.9575C103.789 37.0456 103.868 37.1366 103.94 37.2306C104.022 37.3035 104.068 37.3551 104.08 37.3854C104.104 37.446 104.117 37.5458 104.12 37.6848C104.131 37.8027 104.146 37.9282 104.163 38.0613C104.248 38.5876 104.251 39.0153 104.171 39.3444C104.091 39.6734 103.902 40.0368 103.604 40.4343L103.412 40.7463C103.369 40.8156 103.334 40.8819 103.307 40.9453L101.581 41.6264C101.444 41.6802 101.31 41.672 101.177 41.6018C101.045 41.5317 100.921 41.4405 100.807 41.3281C100.687 41.2006 100.584 41.0747 100.5 40.9504C100.41 40.811 100.35 40.7034 100.32 40.6277C100.285 40.5368 100.252 40.4097 100.222 40.2464C100.193 40.0831 100.182 39.9213 100.188 39.7611C100.189 39.5858 100.196 39.4257 100.209 39.2807C100.231 39.1145 100.265 38.9787 100.31 38.8731C100.314 38.7492 100.331 38.6375 100.362 38.5379C100.362 38.4502 100.369 38.3777 100.381 38.3203C100.409 38.257 100.427 38.2148 100.436 38.1937L100.656 37.6869C100.905 37.3435 101.099 37.0135 101.236 36.6967C101.374 36.38 101.543 36.0332 101.744 35.6564L102.922 33.9844C103.019 33.7884 103.117 33.6362 103.214 33.5278C103.32 33.3984 103.433 33.284 103.551 33.1848C103.669 33.0856 103.791 32.994 103.915 32.91C104.055 32.8199 104.208 32.6982 104.375 32.5449C104.39 32.5389 104.422 32.5088 104.47 32.4546C104.534 32.3945 104.598 32.3343 104.662 32.2742C104.719 32.1989 104.78 32.1312 104.844 32.071C104.908 32.0109 104.952 31.9672 104.976 31.9401C105.046 31.8951 105.178 31.8081 105.372 31.679C105.581 31.544 105.797 31.406 106.022 31.2649C106.261 31.118 106.489 30.9845 106.704 30.8646C106.919 30.7447 107.072 30.6668 107.163 30.631C107.238 30.6011 107.318 30.6045 107.403 30.6412C107.497 30.6567 107.558 30.6585 107.589 30.6466C107.634 30.6286 107.705 30.6093 107.802 30.5886C107.893 30.5528 107.987 30.5245 108.084 30.5038C108.196 30.4771 108.292 30.4564 108.374 30.4417C108.465 30.4058 108.528 30.3895 108.565 30.3927C108.667 30.3871 108.807 30.3847 108.982 30.3855C109.151 30.3712 109.323 30.3645 109.499 30.3653C109.674 30.3661 109.831 30.3653 109.97 30.3629C110.109 30.3605 110.197 30.3609 110.233 30.3641C110.254 30.3733 110.307 30.3962 110.392 30.4329C110.476 30.4695 110.574 30.5183 110.686 30.5793C110.806 30.6192 110.919 30.662 111.025 30.7078C111.131 30.7536 111.207 30.7933 111.256 30.8268C111.518 31.0033 111.771 31.1571 112.015 31.2882C112.275 31.4133 112.493 31.5896 112.67 31.8171C112.806 31.9386 112.924 32.0843 113.026 32.254C113.137 32.4026 113.241 32.5542 113.337 32.7088C113.448 32.8574 113.564 32.9955 113.684 33.123C113.804 33.2505 113.957 33.3479 114.141 33.4152L114.696 34.8232C115.091 35.8225 115.441 36.8215 115.748 37.8203C116.064 38.798 116.407 39.8 116.777 40.8263C116.776 41.0016 116.783 41.1739 116.797 41.3432C116.805 41.4974 116.845 41.6654 116.917 41.847C116.971 41.9833 117.046 42.1287 117.142 42.2833C117.253 42.4319 117.323 42.5441 117.353 42.6198L117.319 43.1319C117.328 43.1984 117.344 43.262 117.368 43.3226L117.467 43.5724C117.556 43.7995 117.659 44.0387 117.776 44.2901C117.893 44.5415 118.032 44.7839 118.194 45.0174C118.356 45.2509 118.535 45.4603 118.731 45.6455C118.942 45.8248 119.183 45.9484 119.455 46.0161C119.554 46.0468 119.688 46.0988 119.857 46.1721C120.035 46.2243 120.155 46.2385 120.215 46.2146L120.306 46.1787C120.458 46.119 120.623 46.0276 120.802 45.9045C120.975 45.7663 121.155 45.625 121.343 45.4808C121.525 45.3215 121.71 45.1697 121.898 45.0255C122.101 44.8753 122.309 44.7584 122.521 44.6748C122.809 44.5613 122.988 44.5953 123.06 44.777C123.251 45.2615 123.338 45.7697 123.32 46.3015C123.318 46.8274 123.222 47.3377 123.032 47.8325C122.837 48.3122 122.564 48.7522 122.215 49.1526C121.859 49.5378 121.424 49.832 120.909 50.0351C120.395 50.2383 119.886 50.4127 119.384 50.5585C118.875 50.6891 118.292 50.762 117.633 50.7771L117.429 50.7262C117.387 50.7079 117.275 50.6469 117.094 50.5433C116.923 50.4186 116.733 50.2923 116.525 50.1644C116.332 50.0305 116.153 49.9088 115.987 49.7992C115.815 49.6745 115.713 49.5924 115.68 49.553L114.947 49.2912L114.788 49.3539L114.583 49.4346ZM108.107 48.0536C108.202 48.2958 108.351 48.5609 108.552 48.849C108.768 49.1311 109.016 49.3831 109.296 49.605C109.57 49.8118 109.867 49.9658 110.187 50.0671C110.507 50.1683 110.819 50.1591 111.121 50.0396C111.182 50.0158 111.232 49.9873 111.271 49.9542C111.311 49.9211 111.416 49.8098 111.586 49.6202L113.581 48.6229C113.614 48.5747 113.658 48.4873 113.713 48.3606C113.777 48.2128 113.834 48.068 113.883 47.9262C113.947 47.7784 113.999 47.6441 114.039 47.5234C114.094 47.3967 114.128 47.3047 114.14 47.2473C114.155 47.2413 114.16 47.187 114.154 47.0842C114.164 46.9754 114.172 46.841 114.179 46.6808C114.186 46.5206 114.182 46.3559 114.168 46.1866C114.168 46.0113 114.168 45.8541 114.165 45.7151C114.166 45.6274 114.144 45.5049 114.099 45.3475C114.069 45.1842 114.052 45.0949 114.046 45.0798C113.965 44.9192 113.884 44.7587 113.803 44.5981C113.722 44.4376 113.649 44.274 113.583 44.1075C113.524 43.9561 113.477 43.8168 113.445 43.6897C113.406 43.5475 113.367 43.4053 113.329 43.263L113.291 42.7007L113.129 42.2919C113.028 42.0345 112.852 41.8327 112.602 41.6865C112.352 41.5403 112.067 41.5299 111.75 41.6554C111.492 41.7569 111.297 41.9041 111.163 42.0969C111.038 42.2686 110.895 42.4826 110.734 42.7387C110.676 42.814 110.557 42.957 110.378 43.1678C110.193 43.3634 109.995 43.5725 109.786 43.7952C109.585 43.9968 109.392 44.1954 109.207 44.391C109.037 44.5806 108.92 44.7055 108.856 44.7656L108.514 45.163C108.484 45.1749 108.43 45.214 108.351 45.2801C108.272 45.3462 108.235 45.3869 108.241 45.402L108.156 46.1179L107.826 46.878C107.816 47.0745 107.849 47.2892 107.923 47.5223C107.992 47.7402 108.053 47.9173 108.107 48.0536Z" fill="black"/>
<path d="M54.5464 101.903C56.5246 101.123 57.9087 99.9853 58.6986 98.491C59.5227 96.9833 59.578 95.3256 58.8646 93.5179C58.2858 92.0513 57.4194 90.9545 56.2652 90.2274C55.1111 89.5003 53.8434 89.0348 52.4621 88.831C51.115 88.6136 49.3182 88.4555 47.0717 88.3566C44.4985 88.2289 42.3853 88.0183 40.7321 87.7246C39.113 87.4176 37.5738 86.7636 36.1146 85.7627C34.6553 84.7619 33.5218 83.2382 32.7143 81.1918C32.0278 79.4524 31.7977 77.6708 32.0241 75.847C32.2711 73.9757 33.0485 72.2499 34.3563 70.6694C35.6641 69.089 37.5288 67.821 39.9504 66.8654C42.1673 65.9905 44.2734 65.5338 46.2686 65.4954C48.2844 65.4094 49.9987 65.7578 51.4113 66.5406C52.8446 67.2757 53.8506 68.3766 54.4293 69.8432C55.1158 71.5827 55.1525 73.2238 54.5393 74.7666C53.9603 76.2959 52.8863 77.3701 51.3174 77.9893C50.6011 78.2719 50.1623 78.2086 50.0008 77.7993C49.9604 77.697 49.9824 77.3533 50.0668 76.7681C50.1853 76.1695 50.2325 75.5399 50.2083 74.8793C50.2048 74.1711 50.0348 73.3907 49.6983 72.5381C49.0657 70.935 47.9573 69.8745 46.3733 69.3565C44.7892 68.8385 43.0251 68.9631 41.081 69.7303C39.0687 70.5245 37.7457 71.7167 37.1119 73.307C36.4646 74.8633 36.464 76.46 37.1101 78.0971C37.6081 79.3591 38.397 80.3091 39.4766 80.9474C40.5563 81.5856 41.7459 82.0031 43.0455 82.1997C44.3451 82.3964 46.1011 82.5509 48.3134 82.6633C50.9548 82.7641 53.1497 82.9819 54.898 83.3168C56.667 83.6042 58.3354 84.286 59.9033 85.3622C61.4577 86.4044 62.6589 87.9998 63.5069 90.1486C64.7048 93.1841 64.6372 96.0095 63.3042 98.6247C62.0053 101.227 59.4629 103.274 55.677 104.768C53.2213 105.738 50.9039 106.258 48.7247 106.33C46.5321 106.367 44.6477 105.987 43.0718 105.19C41.5164 104.345 40.4225 103.122 39.7899 101.519C39.1034 99.7791 39.0838 98.1312 39.7311 96.575C40.4124 95.0053 41.5887 93.8907 43.2599 93.2311C43.6351 93.0831 43.9349 93.0436 44.1593 93.1127C44.3702 93.1478 44.5093 93.2505 44.5766 93.4211C44.617 93.5234 44.5779 93.8739 44.4594 94.4725C44.3274 95.037 44.2632 95.6734 44.2667 96.3815C44.2702 97.0897 44.4402 97.8701 44.7767 98.7227C45.4901 100.53 46.751 101.728 48.5594 102.315C50.3679 102.902 52.3635 102.765 54.5464 101.903ZM78.6129 94.7581C77.644 95.1405 76.6866 95.3083 75.7408 95.2616C74.789 95.1998 73.8855 94.839 73.0302 94.1791L71.4693 93.4828C71.4243 93.4131 71.3145 93.2902 71.14 93.1141C70.9655 92.9379 70.7775 92.7497 70.5759 92.5493C70.3744 92.3489 70.1893 92.1682 70.0208 92.0072C69.8523 91.8462 69.7561 91.7355 69.7322 91.6749L69.2483 90.4486C69.1463 90.2789 69.0306 90.1408 68.9011 90.0344C68.7808 89.9069 68.6483 89.793 68.5037 89.6926C68.3683 89.571 68.2434 89.4541 68.129 89.3417C68.0087 89.2142 67.9127 89.0596 67.841 88.878L66.9431 86.004C66.8893 85.8678 66.8023 85.7359 66.682 85.6084C66.5768 85.4749 66.4914 85.3249 66.4256 85.1584C66.342 84.9464 66.293 84.7558 66.2787 84.5865C66.2795 84.4112 66.2803 84.2359 66.2811 84.0606C66.2819 83.8853 66.2722 83.7054 66.2519 83.5209C66.2407 83.3153 66.1814 83.0763 66.0739 82.8038L66.857 80.1326L66.5636 79.8547C66.5851 79.7762 66.6112 79.6871 66.6419 79.5875C66.6634 79.5091 66.6819 79.423 66.6975 79.3294C66.7281 79.2298 66.7513 79.1332 66.7668 79.0396C67.2239 77.5818 67.9144 76.2945 68.8384 75.1774C69.7564 74.0453 70.8448 73.0121 72.1034 72.078L72.4674 71.8031C73.2849 71.4805 74.1323 71.2335 75.0096 71.0623C75.9021 70.8851 76.773 70.7863 77.6224 70.7661C77.8299 70.9817 78.0622 71.0825 78.3191 71.0685C78.5853 71.0335 78.8243 70.9742 79.0363 70.8905C79.2681 71.079 79.4805 71.2402 79.6733 71.374C79.8661 71.5079 80.0438 71.6478 80.2063 71.7936C80.3688 71.9394 80.5146 72.1094 80.6437 72.3034C80.7819 72.4763 80.9048 72.699 81.0124 72.9715C81.2275 73.5166 81.2204 74.053 80.9913 74.5809C80.7622 75.1087 80.2994 75.5101 79.603 75.7849C79.5337 75.7423 79.4432 75.6905 79.3317 75.6295C79.2142 75.5534 79.0921 75.4879 78.9654 75.4329C78.8327 75.3628 78.7136 75.3048 78.608 75.259C78.5024 75.2131 78.424 75.1916 78.3726 75.1944C78.3455 75.1701 78.2608 75.1773 78.1186 75.2159C77.9704 75.2394 77.8887 75.2541 77.8736 75.2601C77.4445 75.2369 77.0628 75.0901 76.7286 74.8196C76.4035 74.5279 76.0663 74.2498 75.7169 73.9852C75.3767 73.6995 75.0014 73.4802 74.5911 73.3272C74.1959 73.1682 73.7031 73.2052 73.1126 73.4382C72.6736 73.6115 72.3022 73.8455 71.9986 74.1403C71.6891 74.4199 71.4155 74.7466 71.178 75.1203C70.9346 75.4788 70.7242 75.8768 70.5469 76.3142C70.3787 76.7305 70.209 77.165 70.0376 77.6175C70.0248 77.7626 69.9772 77.9301 69.8947 78.1201C69.8063 78.295 69.7632 78.452 69.7656 78.591L70.1331 79.5221L70.0589 79.8663C70.0079 80.4464 70.0236 80.9739 70.106 81.4488C70.1884 81.9237 70.3402 82.4412 70.5612 83.0014C70.5971 83.0922 70.6419 83.2058 70.6957 83.342C70.7435 83.4631 70.8018 83.5888 70.8707 83.7191C70.9337 83.8343 70.9936 83.9418 71.0506 84.0419C71.1016 84.1267 71.1498 84.1602 71.1952 84.1423C71.243 84.2634 71.3027 84.4148 71.3744 84.5965C71.4553 84.757 71.5362 84.9176 71.617 85.0781C71.6979 85.2387 71.7698 85.3766 71.8327 85.4917C71.8957 85.6068 71.9271 85.6644 71.9271 85.6644L72.257 85.9017L72.5079 86.5376C72.6453 86.8858 72.78 87.1826 72.9118 87.428C73.0588 87.6675 73.2179 87.8934 73.3892 88.1057C73.5697 88.297 73.7607 88.4928 73.9623 88.6932C74.173 88.8725 74.4033 89.0791 74.6531 89.313C74.665 89.3433 74.7674 89.4254 74.9602 89.5593C75.1471 89.678 75.3504 89.8165 75.5703 89.9746C75.7843 90.1177 75.9876 90.2561 76.1804 90.39C76.3673 90.5088 76.4848 90.5849 76.533 90.6183C76.7079 90.7068 76.8997 90.7273 77.1085 90.6799C77.3173 90.6325 77.4926 90.6334 77.6344 90.6824C77.9483 90.7685 78.2079 90.8498 78.413 90.9263C78.6274 90.9817 78.8282 91.0249 79.0154 91.056C79.2178 91.0811 79.4188 91.0805 79.6184 91.0543C79.818 91.028 80.0692 90.9551 80.372 90.8356C81.0684 90.5608 81.7232 90.1361 82.3364 89.5617C82.9496 88.9872 83.4451 88.3805 83.8228 87.7415C83.9081 87.6029 83.992 87.4385 84.0744 87.2485C84.1661 87.0374 84.2607 86.8338 84.3584 86.6378C84.456 86.4418 84.5596 86.2609 84.6692 86.0952C84.7939 85.9235 84.9319 85.8078 85.0833 85.748C85.3558 85.6405 85.5584 85.6218 85.6911 85.6919C85.8389 85.7561 85.9636 85.9168 86.0651 86.1742L86.1727 86.4467C86.2559 87.4113 86.1399 88.3144 85.8246 89.1562C85.5246 89.992 85.0918 90.7577 84.5265 91.4533C83.9551 92.1337 83.2919 92.7366 82.5369 93.2621C81.7819 93.7875 81.0032 94.2085 80.2007 94.5252L79.4967 94.803L78.9535 94.6237L78.6129 94.7581ZM90.5559 88.5752C90.5081 88.454 90.551 88.3409 90.6844 88.2357C90.8271 88.1095 90.9213 87.9935 90.9671 87.888C91.062 87.6406 91.2004 87.4372 91.3825 87.2778C91.5797 87.1125 91.7148 86.9892 91.7877 86.908C91.879 86.7845 91.9264 86.6608 91.93 86.5369C91.9276 86.3978 91.9977 86.2652 92.1404 86.1389L92.6137 85.7421C92.7045 85.7063 92.7534 85.6083 92.7601 85.4481C92.7669 85.2879 92.7749 85.1973 92.7841 85.1762C92.7391 85.1065 92.6807 84.9808 92.609 84.7991C92.5373 84.6174 92.4686 84.4433 92.4029 84.2768C92.3192 84.0648 92.2445 83.8756 92.1788 83.709C92.1071 83.5274 92.0549 83.373 92.0223 83.2459L91.8897 82.5108L90.5095 79.0135C90.4976 78.9832 90.4783 78.9121 90.4516 78.8002C90.4249 78.6882 90.3952 78.5687 90.3626 78.4416C90.3299 78.3145 90.3002 78.195 90.2736 78.083C90.2469 77.9711 90.2351 77.897 90.2383 77.8607L90.1756 77.7018C90.1246 77.6169 90.0557 77.4866 89.9688 77.3109C89.876 77.1201 89.7862 76.9368 89.6994 76.7611C89.6066 76.5703 89.5227 76.4021 89.4478 76.2567C89.3729 76.1113 89.3295 76.0234 89.3176 75.9931C89.2845 75.9537 89.2395 75.884 89.1825 75.784C89.1256 75.684 89.0656 75.5764 89.0027 75.4613C88.9398 75.3461 88.8798 75.2385 88.8228 75.1385C88.781 75.0326 88.7511 74.9569 88.7332 74.9114C88.6042 74.7174 88.4478 74.5429 88.2641 74.3879C88.0805 74.2329 87.8877 74.099 87.6857 73.9863C87.4777 73.8584 87.2652 73.741 87.0481 73.6342C86.825 73.5123 86.6125 73.3949 86.4105 73.2822C86.3953 73.2881 86.3214 73.2561 86.1888 73.1859C86.0501 73.1007 85.9748 73.0429 85.9629 73.0126L84.1301 72.2923L84.781 70.7494C84.8053 70.7223 84.854 70.6681 84.9269 70.5869C85.0149 70.4996 85.103 70.4124 85.191 70.3251C85.2883 70.2168 85.3809 70.119 85.4689 70.0317C85.5721 69.9385 85.651 69.8724 85.7056 69.8334C85.7239 69.7911 85.7755 69.7445 85.8604 69.6935C85.9544 69.6214 86.0514 69.5569 86.1515 69.4999C86.2666 69.437 86.3696 69.3876 86.4604 69.3517C86.5604 69.2948 86.6256 69.2603 86.6558 69.2484C86.9077 69.044 87.1172 68.8213 87.2846 68.5803C87.4611 68.3182 87.633 68.0666 87.8004 67.8256C87.9618 67.5694 88.1321 67.336 88.3114 67.1252C88.5058 66.9085 88.7544 66.7404 89.0572 66.6209L89.4206 66.4775C89.4417 66.4867 89.5578 66.5371 89.769 66.6288C89.9742 66.7053 90.1265 66.7589 90.2261 66.7896C90.3978 66.9143 90.5345 67.1053 90.636 67.3627C90.7316 67.6049 90.8348 67.8442 90.9455 68.0804C91.0503 68.3016 91.181 68.4775 91.3375 68.6082C91.4941 68.7388 91.7238 68.7444 92.0265 68.625C92.072 68.607 92.1174 68.5891 92.1628 68.5712C92.2234 68.5473 92.2477 68.5202 92.2357 68.4899C92.2903 68.4509 92.3616 68.3877 92.4497 68.3005C92.5318 68.1981 92.6109 68.0882 92.687 67.9706C92.7782 67.8471 92.8543 67.7296 92.9153 67.6181C92.9914 67.5005 93.0432 67.4101 93.0707 67.3468L93.7239 66.2753C93.7423 66.2331 93.8138 66.1261 93.9385 65.9544C94.0572 65.7676 94.1349 65.6319 94.1716 65.5475C94.1867 65.5415 94.2473 65.5176 94.3533 65.4758C94.4533 65.4188 94.5563 65.3694 94.6623 65.3276C94.7774 65.2647 94.885 65.2047 94.985 65.1478C95.085 65.0908 95.1547 65.0458 95.1942 65.0127C95.2093 65.0067 95.2487 64.9737 95.3125 64.9135C95.3914 64.8474 95.4703 64.7813 95.5492 64.7151C95.6432 64.643 95.7221 64.5769 95.7858 64.5168C95.8496 64.4566 95.889 64.4235 95.9042 64.4176L96.154 64.319C96.5022 64.1816 96.8241 64.177 97.1197 64.3053C97.4304 64.4277 97.7274 64.5817 98.0107 64.7674C98.1704 64.8618 98.3087 65.0347 98.4254 65.2861C98.5512 65.5164 98.6759 65.6772 98.7994 65.7684C98.8173 65.8138 98.858 65.8503 98.9213 65.8778L99.048 65.9328C99.3348 66.6595 99.4857 67.3523 99.5008 68.0113C99.5251 68.6491 99.3637 69.2377 99.0166 69.7771C98.8923 69.8612 98.7453 69.9542 98.5755 70.0562C98.3998 70.143 98.2514 70.2103 98.1303 70.2581C97.8124 70.3836 97.5717 70.4611 97.4084 70.4905C97.2391 70.5049 97.1016 70.4891 96.996 70.4433C96.8905 70.3975 96.7835 70.3259 96.6752 70.2287C96.5819 70.1255 96.4419 70.0146 96.2551 69.8958C96.0953 69.8014 95.9248 69.7462 95.7435 69.7302C95.5714 69.6932 95.4113 69.6864 95.2631 69.7099C95.1089 69.7182 94.9682 69.7387 94.8412 69.7714C94.7292 69.7981 94.6581 69.8174 94.6278 69.8293L93.5886 70.0557L92.8606 70.6055L92.7315 71.0764C92.6618 71.1214 92.5857 71.2389 92.5032 71.4289C92.4147 71.6038 92.3352 71.8014 92.2647 72.0217C92.2033 72.2209 92.1631 72.4293 92.1439 72.6468C92.1188 72.8492 92.1272 73.0034 92.169 73.1094L92.7007 74.7893L93.0652 75.3803L93.5312 76.5612C93.5432 76.5915 93.5866 76.6794 93.6615 76.8248C93.7455 76.9491 93.8176 77.0431 93.8778 77.1069L94.5254 79.2135L94.9891 79.9229C95.0309 80.0288 95.0424 80.1468 95.0237 80.2767C95.0201 80.4006 95.0512 80.5458 95.1169 80.7123L95.5806 81.4217L95.7532 82.3247C95.7592 82.3398 95.7681 82.3625 95.7801 82.3928C95.792 82.4231 95.8131 82.4323 95.8434 82.4203C95.8944 82.5052 95.9906 82.6159 96.132 82.7526C96.2886 82.8833 96.4481 83.0216 96.6107 83.1674C96.7884 83.3072 96.9479 83.4455 97.0893 83.5822C97.2399 83.6977 97.3453 83.7874 97.4054 83.8511C97.4114 83.8663 97.4385 83.8906 97.4867 83.924C97.5349 83.9575 97.5817 83.9653 97.6271 83.9473C97.7933 83.9693 97.9608 84.0169 98.1297 84.0902C98.3138 84.1576 98.5086 84.1857 98.7142 84.1745C98.8381 84.1781 98.9922 84.1698 99.1767 84.1495C99.3552 84.114 99.5442 84.0832 99.7438 84.0569C99.9586 84.0246 100.169 84.0029 100.374 83.9918C100.595 83.9747 100.807 83.9787 101.009 84.0038C101.148 84.0891 101.288 84.2001 101.429 84.3367C101.586 84.4674 101.703 84.6312 101.78 84.828C101.846 84.9945 101.864 85.1276 101.833 85.2272C101.817 85.3208 101.772 85.4264 101.695 85.5439C101.629 85.6403 101.489 85.7303 101.277 85.814L100.577 86.1689C100.332 86.3007 100.103 86.4085 99.8912 86.4921C99.6944 86.5698 99.5279 86.6355 99.3916 86.6893C99.2705 86.7371 99.1283 86.7757 98.9649 86.8052C98.8107 86.8136 98.6504 86.8506 98.4838 86.9163C98.0599 87.0836 97.6796 87.2949 97.343 87.5503C97.0123 87.8208 96.6501 88.0337 96.2565 88.189L95.1001 88.2517L93.7811 89.1659L93.3951 89.3182L92.9875 89.2166C92.9572 89.2285 92.871 89.2538 92.7287 89.2925C92.5805 89.316 92.3718 89.3634 92.1024 89.4346C92.0419 89.4585 91.9694 89.4522 91.8849 89.4155C91.8335 89.4183 91.7488 89.4255 91.6309 89.437C91.5281 89.4426 91.3498 89.4342 91.0961 89.4119C90.9092 89.2931 90.7859 89.158 90.7262 89.0066L90.6993 88.9385L90.5559 88.5752ZM109.293 82.7818C109.111 82.8535 108.979 82.9406 108.897 83.043C108.836 83.1545 108.753 83.2312 108.647 83.273C108.586 83.2969 108.499 83.2965 108.384 83.2718C108.284 83.2411 108.133 83.2132 107.931 83.1881C107.895 83.1849 107.857 83.156 107.818 83.1014C107.788 83.0257 107.74 82.9484 107.674 82.8696C107.608 82.7907 107.54 82.6861 107.472 82.5558C107.466 82.5407 107.466 82.4968 107.472 82.4243C107.488 82.3307 107.503 82.2371 107.519 82.1435C107.528 82.0347 107.541 81.9335 107.556 81.8399C107.572 81.7462 107.589 81.6783 107.607 81.6361L107.94 81.216L108.44 81.0188C108.788 80.8814 109.089 80.7362 109.344 80.5833C109.608 80.4092 109.766 80.1455 109.819 79.7921C109.677 79.2534 109.528 78.7435 109.373 78.2622C109.218 77.7809 109.111 77.2893 109.053 76.7873L108.905 75.6124L108.071 73.5004L107.378 71.4117L106.849 70.0718C106.837 70.0416 106.792 69.9718 106.714 69.8627C106.63 69.7384 106.543 69.6065 106.453 69.467C106.357 69.3124 106.267 69.173 106.183 69.0487C106.093 68.9092 106.033 68.8017 106.003 68.726L105.152 66.5685C105.026 66.4259 104.847 66.2604 104.615 66.0719C104.383 65.8834 104.178 65.7631 104 65.7109L103.206 65.7616C102.877 65.6815 102.565 65.5773 102.269 65.449C101.989 65.3147 101.725 65.1125 101.479 64.8424C101.413 64.6758 101.4 64.5322 101.44 64.4115C101.48 64.2908 101.551 64.1838 101.654 64.0906C101.758 63.9974 101.871 63.9087 101.996 63.8247C102.12 63.7406 102.237 63.6596 102.346 63.5815L103.686 62.0553C103.798 61.941 103.894 61.8508 103.973 61.7846C104.061 61.6974 104.141 61.6131 104.214 61.5319C104.287 61.4506 104.349 61.3648 104.401 61.2743C104.468 61.1779 104.531 61.0482 104.589 60.8853L105.229 60.58C105.305 60.5501 105.422 60.5129 105.579 60.4683C105.752 60.4177 105.853 60.3864 105.883 60.3745C105.929 60.3565 106.007 60.3342 106.119 60.3076C106.231 60.2809 106.354 60.2588 106.487 60.2413C106.62 60.2237 106.745 60.2092 106.863 60.1977C106.981 60.1861 107.066 60.179 107.117 60.1762C107.277 60.183 107.412 60.2788 107.519 60.4637C107.637 60.6274 107.725 60.785 107.785 60.9364L108.072 61.6631L108.128 62.2709C108.44 63.2848 108.785 64.2687 109.161 65.2225C109.538 66.1763 109.911 67.1664 110.281 68.1927L110.49 69.055C110.481 69.0761 110.487 69.1351 110.507 69.2319C110.543 69.3228 110.585 69.4287 110.633 69.5499C110.681 69.671 110.728 69.7921 110.776 69.9132C110.818 70.0192 110.851 70.1025 110.875 70.163C110.917 70.269 110.964 70.3901 111.018 70.5264C111.072 70.6626 111.123 70.7913 111.171 70.9124C111.218 71.0336 111.26 71.1395 111.296 71.2304C111.341 71.3001 111.371 71.332 111.386 71.326C111.404 71.3714 111.461 71.4714 111.557 71.626C111.647 71.7655 111.706 71.8473 111.733 71.8716L111.921 72.3485C111.939 72.394 111.979 72.5181 112.042 72.7209C112.104 72.9237 112.179 73.1567 112.265 73.4201C112.346 73.6683 112.426 73.9165 112.506 74.1647C112.596 74.3918 112.662 74.5583 112.704 74.6643C112.757 74.8006 112.852 75.0171 112.986 75.3139C113.13 75.5896 113.283 75.8881 113.445 76.2092C113.621 76.5243 113.785 76.8273 113.934 77.1182C114.078 77.3939 114.174 77.5923 114.222 77.7134C114.288 77.88 114.425 77.9833 114.633 78.0236C114.851 78.0427 115.018 78.0465 115.136 78.035C115.182 78.0171 115.275 77.9888 115.418 77.9502C115.575 77.9056 115.74 77.858 115.912 77.8074C116.085 77.7568 116.242 77.7122 116.385 77.6736C116.536 77.6138 116.642 77.572 116.703 77.5481C116.856 77.6274 116.99 77.7232 117.105 77.8356C117.234 77.942 117.341 78.1011 117.424 78.3131C117.508 78.525 117.566 78.7384 117.598 78.9531C117.646 79.1619 117.616 79.331 117.51 79.4605C117.388 79.6836 117.216 79.8475 116.995 79.9523C116.795 80.0662 116.574 80.171 116.332 80.2666L115.923 80.4279L115.288 80.4159L112.495 81.5182C112.48 81.5242 112.376 81.5479 112.182 81.5893C111.982 81.6156 111.852 81.6406 111.792 81.6645L111.156 81.9155L109.293 82.7818ZM98.0769 52.4317L98.5031 51.4498L99.0195 50.5636L99.0584 49.9971C99.1863 49.7892 99.3608 49.6328 99.5819 49.528C99.797 49.4081 99.9955 49.3123 100.177 49.2407L100.404 49.151C100.425 49.1602 100.48 49.165 100.567 49.1654C100.655 49.1658 100.743 49.1662 100.83 49.1666C100.918 49.167 100.998 49.1704 101.071 49.1768C101.152 49.1621 101.208 49.1487 101.238 49.1368C101.311 49.1431 101.414 49.1376 101.547 49.1201C101.689 49.0814 101.834 49.0504 101.983 49.0269C102.125 48.9882 102.259 48.9526 102.386 48.9199C102.508 48.8721 102.591 48.8393 102.636 48.8213C102.703 48.8126 102.807 48.8765 102.948 49.0132C103.09 49.1499 103.225 49.3152 103.354 49.5093C103.492 49.6822 103.615 49.8611 103.723 50.0459C103.84 50.2097 103.911 50.3218 103.935 50.3824C104.084 50.7609 104.179 51.1346 104.22 51.5035C104.269 51.8513 104.194 52.2137 103.993 52.5905C103.983 52.6117 103.947 52.6523 103.883 52.7124C103.829 52.7515 103.769 52.8011 103.706 52.8612C103.636 52.9062 103.569 52.9588 103.505 53.019C103.451 53.058 103.424 53.0775 103.424 53.0775C103.42 53.1138 103.403 53.1817 103.373 53.2813C103.336 53.3658 103.295 53.4608 103.249 53.5664C103.197 53.6568 103.145 53.7472 103.094 53.8377C103.036 53.913 103.002 53.9612 102.993 53.9823C102.944 54.1241 102.832 54.2384 102.656 54.3253C102.496 54.4061 102.34 54.4764 102.188 54.5362L101.303 54.8857C101.136 54.9514 100.989 55.0006 100.862 55.0333C100.729 55.0508 100.524 55.0181 100.246 54.9352C99.8392 54.6583 99.4596 54.4057 99.107 54.1773C98.7544 53.949 98.4826 53.5926 98.2914 53.1082L98.0769 52.4317ZM131.908 88.3451L130.703 89.083L126.093 90.9023C125.912 90.974 125.713 91.026 125.499 91.0582C125.299 91.0845 125.095 91.0775 124.887 91.0373C124.699 91.0062 124.523 90.9358 124.357 90.8263C124.207 90.7107 124.09 90.547 124.006 90.335C123.922 90.1231 123.866 89.9354 123.836 89.7721C123.828 89.6179 123.918 89.4687 124.106 89.3245L125.593 88.3702C125.687 88.2981 125.77 88.2215 125.843 88.1402C125.907 88.08 125.971 88.0199 126.034 87.9597C126.113 87.8936 126.169 87.8364 126.203 87.7882C126.263 87.7643 126.323 87.7147 126.38 87.6394C126.405 87.6124 126.426 87.5777 126.444 87.5355C126.484 87.4148 126.515 87.2275 126.538 86.9737C126.566 86.7351 126.562 86.5703 126.526 86.4795C126.514 86.4492 126.48 86.3403 126.424 86.1526C126.373 85.9801 126.31 85.7773 126.236 85.5442C126.183 85.3203 126.122 85.0994 126.053 84.8815C125.985 84.6635 125.927 84.494 125.879 84.3729L125.395 83.1466C125.216 82.6924 125.029 82.2412 124.834 81.793C124.646 81.3599 124.433 80.9539 124.196 80.575L123.89 80.1973L123.549 79.3343L123.497 78.8036L123.107 77.8815C123.041 77.715 122.986 77.553 122.942 77.3956C122.918 77.2474 122.92 77.0978 122.948 76.9469C122.565 76.1532 122.206 75.3763 121.871 74.6161C121.545 73.8348 121.224 73.043 120.907 72.2406L120.62 71.5139L120.415 70.8601C120.409 70.8449 120.4 70.8222 120.388 70.7919C120.376 70.7616 120.342 70.6965 120.285 70.5965C120.243 70.4905 120.169 70.327 120.065 70.1059C119.96 69.8847 119.815 69.5833 119.629 69.2016C119.581 69.0805 119.537 68.967 119.495 68.861C119.453 68.755 119.42 68.6279 119.397 68.4797L119.07 67.5851C118.821 67.1759 118.595 66.7578 118.391 66.3307C118.203 65.8976 118.016 65.4464 117.831 64.977C117.657 64.538 117.492 64.0959 117.334 63.6509C117.185 63.1848 117.052 62.6945 116.937 62.1802L116.711 62.0069C116.654 61.9945 116.565 61.9684 116.444 61.9286C116.332 61.8676 116.224 61.8142 116.118 61.7684C115.992 61.7134 115.847 61.6568 115.684 61.5986C115.62 61.5711 115.521 61.5404 115.385 61.5066C115.249 61.4727 115.098 61.4448 114.932 61.4229C114.766 61.4009 114.603 61.3866 114.443 61.3798C114.298 61.367 114.189 61.3574 114.116 61.3511C114.014 61.3566 113.932 61.3714 113.871 61.3953C113.82 61.3981 113.773 61.3903 113.731 61.372C113.417 61.2859 113.212 61.1217 113.117 60.8795C113.105 60.8492 113.084 60.7962 113.054 60.7205C113.018 60.6297 113.009 60.5631 113.028 60.5209C113.04 60.4635 113.048 60.4167 113.051 60.3805C113.048 60.3291 113.076 60.2657 113.133 60.1904L114.014 59.0294C114.053 58.9963 114.1 58.9603 114.155 58.9212C114.194 58.8882 114.234 58.8551 114.273 58.822C114.313 58.789 114.347 58.7665 114.378 58.7545L115.297 58.0243L115.69 57.2917C115.801 56.9507 115.979 56.6266 116.225 56.3194C116.481 55.9912 116.752 55.7703 117.04 55.6568C117.373 55.5253 117.654 55.4843 117.884 55.5337C118.122 55.562 118.33 55.6461 118.508 55.786C118.686 55.9258 118.828 56.0882 118.936 56.2731C119.06 56.452 119.172 56.6263 119.274 56.796C119.391 56.9598 119.504 57.0902 119.612 57.1875C119.73 57.2636 119.857 57.2747 119.993 57.221L121.678 55.506L122.071 54.9048C122.257 54.6216 122.46 54.3838 122.682 54.1913C122.918 53.993 123.164 53.8173 123.419 53.6643C123.673 53.5114 123.937 53.3811 124.209 53.2736C124.491 53.1449 124.777 53.0057 125.068 52.8559L125.578 52.4185C125.896 52.293 126.17 52.2112 126.4 52.173C126.639 52.1136 126.864 52.086 127.076 52.09C127.287 52.094 127.497 52.1161 127.705 52.1564C127.908 52.1815 128.149 52.2173 128.43 52.264C128.905 52.2692 129.388 52.2533 129.881 52.2163C130.383 52.1582 130.885 52.1877 131.386 52.3049L134.449 53.7472L134.692 53.9659C134.753 54.0296 134.81 54.0858 134.864 54.1344C134.933 54.1771 134.974 54.2135 134.986 54.2438L136.275 55.7821L137.061 56.4432C137.097 56.534 137.155 56.6159 137.237 56.6888L137.399 56.8346L137.65 57.4705C137.695 57.5402 137.737 57.6024 137.776 57.657C137.815 57.7115 137.851 57.7586 137.884 57.798C137.918 57.8374 137.94 57.8723 137.952 57.9026L138.267 58.303C138.36 58.4938 138.45 58.6771 138.537 58.8528C138.618 59.0134 138.699 59.1739 138.78 59.3345C138.854 59.4799 138.916 59.6132 138.964 59.7343C139.083 60.7897 139.15 61.804 139.167 62.7773C139.184 63.7506 139.137 64.7402 139.026 65.7462L138.889 67.0603L138.9 67.5545C138.838 67.8414 138.73 68.1204 138.574 68.3917C138.428 68.6419 138.256 68.8935 138.059 69.1465C137.861 69.3994 137.66 69.6448 137.457 69.8827C137.247 70.1054 137.059 70.3372 136.891 70.5782L136.38 71.41C136.185 71.7144 135.945 71.949 135.66 72.114C135.375 72.2789 135.059 72.43 134.711 72.5675L133.689 72.9707C133.446 73.0663 133.219 73.156 133.007 73.2396C132.81 73.3173 132.606 73.3979 132.394 73.4816C132.176 73.5501 131.943 73.6246 131.695 73.705C131.462 73.7795 131.196 73.8584 130.896 73.9416L130.261 74.0611L129.919 74.327L128.148 75.026C127.95 75.3666 127.829 75.7031 127.785 76.0353C127.747 76.3827 127.753 76.7303 127.803 77.0781C127.868 77.42 127.962 77.768 128.084 78.1222C128.206 78.4764 128.339 78.8351 128.482 79.1985L129.325 81.3332C129.373 81.4543 129.449 81.6254 129.554 81.8466C129.658 82.0677 129.763 82.2888 129.868 82.5099C129.994 82.7402 130.1 82.9432 130.187 83.1189C130.274 83.2946 130.323 83.3976 130.335 83.4279L131.197 84.3477L131.412 84.8927L132.141 85.9433C132.177 86.0342 132.251 86.0663 132.363 86.0396C132.475 86.0129 132.584 85.9786 132.69 85.9368L133.224 85.2275L133.383 85.1648L133.832 85.1714L135.081 84.6785C135.247 84.6128 135.41 84.5833 135.571 84.5901C135.746 84.5909 135.957 84.6387 136.205 84.7336C136.449 84.777 136.62 84.8322 136.716 84.8991C136.819 84.9812 136.912 85.1282 136.995 85.3402L137.108 85.5583C137.203 85.8006 137.173 86.0573 137.018 86.3286C136.868 86.6151 136.648 86.8332 136.357 86.9829L134.394 87.9939C134.044 87.9923 133.678 87.9966 133.297 88.007C132.931 88.0113 132.612 88.0673 132.34 88.1748L131.908 88.3451ZM124.559 69.7232C124.643 69.9351 124.716 70.0987 124.779 70.2138C124.836 70.3138 124.95 70.47 125.122 70.6824C125.2 70.7915 125.309 70.9145 125.451 71.0511C125.607 71.1818 125.753 71.3079 125.889 71.4294C126.045 71.5601 126.215 71.703 126.399 71.858C126.411 71.8883 126.467 71.9187 126.566 71.9494C126.681 71.9741 126.803 71.9959 126.933 72.0146C127.063 72.0333 127.183 72.0475 127.291 72.0571C127.415 72.0606 127.492 72.0565 127.523 72.0445L128.478 72.4026L129.562 72.2897L130.743 71.8237L131.06 71.8297C131.378 71.7042 131.653 71.5604 131.887 71.3983C132.114 71.221 132.316 71.0452 132.492 70.8707C132.678 70.6751 132.845 70.4779 132.994 70.2791C133.143 70.0803 133.295 69.8891 133.45 69.7054C133.581 69.4612 133.736 69.2776 133.915 69.1545C134.103 69.0103 134.264 68.7979 134.398 68.5175C134.432 68.4693 134.459 68.4059 134.481 68.3274C134.517 68.243 134.554 68.1585 134.591 68.0741L134.683 67.7753L134.268 66.3906L134.285 64.7042L134.12 63.9554L133.905 63.4103L133.842 62.3854L133.573 61.7041C133.207 61.2189 132.933 60.7929 132.754 60.4264C132.568 60.0447 132.376 59.6917 132.178 59.3674C132.106 59.2734 132.036 59.205 131.966 59.1624C131.912 59.1138 131.85 59.0682 131.781 59.0255C131.712 58.9829 131.639 58.9327 131.564 58.8749C131.498 58.796 131.412 58.6899 131.307 58.5564C131.235 58.4624 131.162 58.3426 131.087 58.1972C131.006 58.0366 130.917 57.8791 130.821 57.7245C130.741 57.5639 130.655 57.4139 130.565 57.2745C130.475 57.135 130.376 57.0167 130.268 56.9195C130.21 56.9071 130.095 56.8824 129.923 56.8453C129.76 56.7871 129.587 56.7244 129.403 56.657C129.228 56.5686 129.059 56.4953 128.896 56.4371C128.742 56.3578 128.641 56.3014 128.593 56.2679L128.105 55.8304C128.094 55.8002 128.045 55.7667 127.961 55.73C127.87 55.6782 127.775 55.637 127.676 55.6063C127.57 55.5605 127.46 55.5252 127.345 55.5005C127.225 55.4607 127.136 55.4345 127.078 55.4222L126.761 55.4162L125.625 55.8643L124.777 55.9102L124.391 56.0626C123.801 56.2956 123.34 56.5474 123.01 56.8178C122.679 57.0883 122.339 57.3799 121.99 57.6926L121.384 58.3517C121.226 58.484 121.115 58.624 121.051 58.7718C121.002 58.9137 120.974 59.0646 120.967 59.2248C120.961 59.385 120.967 59.5573 120.988 59.7417C121.002 59.911 121.015 60.0985 121.026 60.3041L121.016 61.4102C121.082 61.5768 121.16 61.7298 121.25 61.8692C121.349 61.9875 121.432 62.13 121.497 62.2965L121.823 63.4541C122.032 63.984 122.272 64.4581 122.542 64.8765C122.821 65.2737 123.139 65.6817 123.497 66.1004L123.685 66.5773L123.939 67.6847L124.315 68.6385L124.353 69.2009L124.559 69.7232ZM144.617 58.7631L143.584 56.5459L142.789 54.1303L142.52 53.4491C142.505 53.3674 142.492 53.2676 142.48 53.1497C142.469 53.0317 142.448 52.9349 142.418 52.8592C142.245 52.4202 142.001 52.0004 141.685 51.6C141.364 51.1844 141.078 50.7721 140.829 50.3629C140.636 50.3167 140.387 50.3276 140.081 50.3957C139.791 50.4578 139.497 50.5124 139.201 50.5594C138.899 50.5912 138.615 50.5808 138.349 50.5282C138.098 50.4696 137.916 50.2965 137.803 50.0089C137.677 49.6909 137.691 49.4144 137.843 49.1794C137.989 48.9292 138.185 48.6944 138.431 48.4749C138.686 48.2342 138.947 48.0088 139.214 47.7984C139.496 47.5821 139.699 47.3443 139.825 47.085C139.956 46.8408 140.095 46.5497 140.241 46.2119C140.388 45.8741 140.487 45.6161 140.539 45.438C140.565 45.148 140.604 44.7825 140.658 44.3414C140.726 43.8944 140.816 43.4566 140.927 43.0279C141.032 42.5841 141.173 42.1873 141.35 41.8376C141.52 41.4726 141.742 41.2364 142.015 41.1289C142.196 41.0572 142.361 41.0534 142.509 41.1175C142.666 41.1606 142.805 41.2459 142.925 41.3734C143.054 41.4797 143.167 41.6102 143.263 41.7648C143.359 41.9194 143.445 42.0694 143.519 42.2148L144.559 44.8491L144.735 44.9633L145.803 44.5421C146.181 44.3927 146.52 44.2326 146.82 44.0617C147.114 43.8757 147.386 43.6986 147.634 43.5305C147.892 43.3413 148.141 43.1732 148.38 43.0262C148.629 42.8581 148.905 42.7143 149.207 42.5948C149.631 42.4275 150.05 42.4461 150.463 42.6505C150.876 42.8549 151.169 43.1766 151.342 43.6157C151.48 43.9639 151.533 44.2755 151.501 44.5504C151.485 44.8193 151.398 45.0637 151.24 45.2836C151.081 45.5035 150.87 45.7005 150.607 45.8746C150.337 46.0335 150.028 46.1817 149.68 46.3191L148.136 46.797L147.045 47.3587L145.911 47.6753C145.699 47.759 145.541 47.935 145.437 48.2036C145.342 48.451 145.327 48.6579 145.393 48.8245L146.269 50.447C146.353 50.659 146.403 50.8753 146.421 51.096C146.438 51.3168 146.45 51.548 146.458 51.7899C146.46 52.0165 146.473 52.2478 146.496 52.4837C146.519 52.7195 146.575 52.951 146.665 53.1781L146.826 53.5869L148.07 56.1405C148.061 56.2493 148.066 56.3521 148.087 56.4489C148.123 56.5397 148.167 56.6533 148.221 56.7895C148.263 56.8955 148.317 56.988 148.383 57.0668C148.449 57.1457 148.497 57.223 148.527 57.2987C148.746 57.7199 148.939 58.1424 149.106 58.5663C149.256 58.9448 149.384 59.3141 149.491 59.6743C149.598 60.0344 149.69 60.4006 149.767 60.7727C149.788 60.7819 149.836 60.8153 149.912 60.8731C149.981 60.9157 150.056 60.9735 150.137 61.0464C150.228 61.0982 150.314 61.1606 150.395 61.2335C150.47 61.2913 150.526 61.3218 150.562 61.325C150.755 61.4588 150.945 61.5413 151.132 61.5724C151.32 61.6035 151.504 61.627 151.685 61.643C151.876 61.6378 152.069 61.6402 152.265 61.6502C152.477 61.6542 152.696 61.699 152.922 61.7847L153.785 61.4442C154.133 61.3067 154.451 61.1374 154.74 60.9363C155.028 60.7351 155.301 60.5399 155.558 60.3507C155.825 60.1404 156.08 59.9436 156.323 59.7603C156.58 59.5711 156.861 59.4168 157.164 59.2973C157.345 59.2256 157.517 59.2626 157.68 59.4085C157.842 59.5543 157.957 59.7105 158.022 59.877C158.058 59.9679 158.08 60.0465 158.089 60.1131C158.107 60.1585 158.11 60.2099 158.098 60.2673C158.085 60.3246 158.061 60.3955 158.024 60.48C158.002 60.5585 157.975 60.6656 157.941 60.8015L157.802 61.3812C157.769 61.4294 157.723 61.5349 157.665 61.6979C157.622 61.8548 157.569 62.0329 157.508 62.2321C157.441 62.4162 157.373 62.6002 157.306 62.7843C157.233 62.9532 157.178 63.0799 157.141 63.1643C157.055 63.3906 156.891 63.6392 156.648 63.9101C156.405 64.181 156.138 64.4352 155.847 64.6726C155.561 64.9251 155.272 65.1444 154.978 65.3305C154.699 65.5105 154.468 65.6364 154.287 65.7081L151.147 66.2648C150.86 66.2907 150.527 66.2906 150.15 66.2647C149.772 66.2388 149.393 66.1871 149.012 66.1098C148.641 66.0114 148.291 65.8783 147.962 65.7105C147.649 65.5368 147.402 65.3105 147.222 65.0316L146.604 63.4646C146.325 62.9797 146.043 62.5311 145.757 62.1187C145.481 61.6853 145.245 61.2187 145.048 60.7191L144.617 58.7631Z" fill="black"/>
</svg>
