<svg width="407" height="239" viewBox="0 0 407 239" fill="none" xmlns="http://www.w3.org/2000/svg">
<g filter="url(#filter0_d_98_6)">
<path d="M4 0H403V231H4V0Z" fill="#64040B"/>
<path d="M74.0033 133.489C75.8401 138.179 77.6996 141.793 79.5818 144.332C81.4339 146.795 83.817 148.912 86.731 150.686L89.0419 152.166L88.2667 154.607L63.0332 164.64L60.1149 161.269L62.494 159.524C65.1118 157.594 66.634 155.701 67.0605 153.843C67.4869 151.985 67.0227 149.326 65.6677 145.867L43.3555 88.8997C42.9641 87.9002 42.501 87.2847 41.9664 87.053C41.4017 86.7445 40.6584 86.7734 39.7367 87.14L33.0538 89.7972L30 86.0803C32.7911 83.46 36.6795 80.5811 41.665 77.4436C46.6973 74.1987 51.7099 71.5836 56.7028 69.5983C68.0713 65.0778 77.5296 64.2935 85.0777 67.2452C92.5956 70.1201 97.9354 75.5936 101.097 83.6659C103.054 88.663 103.832 93.5959 103.431 98.4646C103 103.256 101.192 107.707 98.0072 111.817C94.7927 115.849 90.1128 119.087 83.9677 121.531C81.1256 122.661 78.5704 123.277 76.3022 123.379C74.1109 123.451 72.7593 122.833 72.2474 121.526C71.9463 120.758 71.8439 120.043 71.9404 119.383C72.0369 118.722 72.3924 118.27 73.0069 118.026C73.3142 117.903 73.9889 117.813 75.0311 117.754C76.12 117.587 77.4326 117.199 78.9689 116.588C84.73 114.297 88.501 110.665 90.2819 105.692C92.0627 100.719 91.7186 95.0807 89.2495 88.7766C86.8106 82.5495 83.0799 78.1243 78.0574 75.501C73.1119 72.8473 67.5281 72.7574 61.3061 75.2314C55.4682 77.5527 53.2418 80.4816 54.6269 84.018L74.0033 133.489Z" fill="#FADC71"/>
<path d="M131.41 137.452C130.993 137.618 130.69 137.818 130.502 138.054C130.361 138.311 130.17 138.487 129.926 138.584C129.788 138.639 129.587 138.639 129.324 138.583C129.096 138.513 128.75 138.449 128.286 138.393C128.203 138.385 128.117 138.319 128.028 138.194C127.96 138.02 127.85 137.843 127.699 137.662C127.548 137.481 127.394 137.241 127.236 136.942C127.223 136.907 127.223 136.807 127.239 136.64C127.275 136.425 127.311 136.209 127.347 135.994C127.369 135.744 127.399 135.512 127.435 135.296C127.471 135.081 127.51 134.925 127.552 134.828L128.317 133.861L129.464 133.405C130.262 133.088 130.954 132.752 131.538 132.4C132.143 131.998 132.508 131.391 132.631 130.579C132.307 129.342 131.969 128.171 131.616 127.066C131.264 125.961 131.022 124.832 130.892 123.678L130.557 120.979L128.658 116.131L127.081 111.335L125.876 108.259C125.849 108.189 125.746 108.029 125.567 107.779C125.375 107.494 125.177 107.191 124.971 106.871C124.752 106.516 124.546 106.196 124.354 105.911C124.149 105.591 124.012 105.344 123.944 105.17L122.004 100.217C121.715 99.8904 121.306 99.5109 120.775 99.0791C120.245 98.6472 119.776 98.3718 119.368 98.2528L117.549 98.3735C116.795 98.1912 116.08 97.9534 115.403 97.6601C114.761 97.353 114.158 96.8898 113.594 96.2703C113.445 95.888 113.416 95.558 113.508 95.2804C113.6 95.0028 113.764 94.7567 114.001 94.5419C114.238 94.3272 114.499 94.1229 114.785 93.9291C115.07 93.7353 115.338 93.5484 115.589 93.3684L118.668 89.8544C118.926 89.5911 119.145 89.3833 119.326 89.2309C119.529 89.0299 119.714 88.8359 119.881 88.6488C120.049 88.4617 120.192 88.2641 120.311 88.056C120.465 87.8341 120.609 87.5358 120.743 87.1611L122.213 86.4561C122.387 86.387 122.654 86.3009 123.015 86.1975C123.411 86.0804 123.643 86.008 123.713 85.9804C123.817 85.939 123.997 85.8873 124.254 85.8254C124.511 85.7635 124.792 85.712 125.097 85.6711C125.402 85.6301 125.689 85.5961 125.96 85.5689C126.23 85.5418 126.424 85.5249 126.542 85.5182C126.909 85.533 127.216 85.7524 127.462 86.1767C127.73 86.5523 127.931 86.914 128.068 87.2615L128.721 88.9299L128.846 90.3262C129.558 92.6545 130.342 94.9135 131.2 97.1033C132.057 99.293 132.908 101.566 133.75 103.922L134.225 105.903C134.204 105.952 134.217 106.087 134.264 106.309C134.345 106.518 134.441 106.761 134.55 107.039C134.658 107.317 134.767 107.595 134.876 107.873C134.972 108.117 135.046 108.308 135.101 108.447C135.196 108.69 135.305 108.968 135.428 109.281C135.55 109.594 135.666 109.889 135.775 110.167C135.884 110.446 135.979 110.689 136.061 110.897C136.163 111.057 136.232 111.13 136.267 111.117C136.308 111.221 136.438 111.45 136.657 111.805C136.863 112.125 136.996 112.313 137.058 112.369L137.487 113.463C137.528 113.568 137.62 113.853 137.762 114.318C137.904 114.784 138.074 115.319 138.27 115.924C138.453 116.494 138.636 117.064 138.819 117.634C139.024 118.155 139.173 118.537 139.269 118.781C139.391 119.094 139.606 119.591 139.913 120.272C140.241 120.905 140.59 121.59 140.959 122.327C141.362 123.05 141.735 123.745 142.077 124.413C142.405 125.046 142.623 125.501 142.732 125.779C142.882 126.162 143.196 126.398 143.673 126.49C144.171 126.533 144.556 126.54 144.826 126.513C144.93 126.472 145.145 126.406 145.471 126.317C145.832 126.214 146.211 126.103 146.606 125.986C147.002 125.869 147.363 125.766 147.689 125.676C148.036 125.538 148.279 125.441 148.418 125.386C148.77 125.568 149.077 125.787 149.338 126.045C149.635 126.288 149.878 126.654 150.069 127.14C150.259 127.627 150.391 128.117 150.464 128.61C150.571 129.09 150.503 129.478 150.258 129.776C149.978 130.29 149.584 130.667 149.076 130.909C148.617 131.172 148.11 131.414 147.554 131.635L146.617 132.008L145.162 131.983L138.755 134.531C138.72 134.545 138.481 134.6 138.037 134.696C137.579 134.758 137.281 134.816 137.142 134.871L135.683 135.451L131.41 137.452ZM105.864 67.77L106.845 65.5116L108.034 63.4725L108.126 62.1705C108.42 61.692 108.821 61.3318 109.328 61.0899C109.822 60.8132 110.277 60.592 110.694 60.4263L111.215 60.2192C111.263 60.2401 111.388 60.2509 111.588 60.2513C111.789 60.2518 111.99 60.2523 112.191 60.2527C112.392 60.2532 112.575 60.2606 112.742 60.2749C112.929 60.2406 113.057 60.2096 113.127 60.182C113.293 60.1963 113.528 60.1829 113.833 60.142C114.16 60.0525 114.493 59.9803 114.832 59.9256C115.158 59.836 115.467 59.7534 115.759 59.6777C116.037 59.5672 116.228 59.4913 116.332 59.4498C116.484 59.4294 116.722 59.5758 117.046 59.8891C117.369 60.2024 117.678 60.5816 117.973 61.0268C118.289 61.4234 118.57 61.8338 118.816 62.258C119.084 62.6337 119.245 62.8911 119.299 63.0301C119.64 63.899 119.855 64.7573 119.947 65.6048C120.059 66.4038 119.883 67.2368 119.42 68.1038C119.399 68.1524 119.315 68.246 119.169 68.3845C119.044 68.4745 118.908 68.5888 118.761 68.7274C118.601 68.8312 118.448 68.9523 118.302 69.0909C118.176 69.1809 118.114 69.2259 118.114 69.2259C118.106 69.3092 118.067 69.4654 117.996 69.6944C117.912 69.8887 117.817 70.1072 117.711 70.3501C117.592 70.5582 117.473 70.7662 117.354 70.9743C117.221 71.1476 117.144 71.2586 117.123 71.3071C117.01 71.6333 116.752 71.8966 116.348 72.0971C115.98 72.2837 115.622 72.4461 115.275 72.5842L113.243 73.392C112.861 73.5439 112.524 73.6577 112.233 73.7335C111.928 73.7744 111.457 73.7004 110.822 73.5114C109.891 72.8772 109.022 72.2987 108.215 71.7759C107.408 71.2531 106.787 70.4356 106.352 69.3234L105.864 67.77Z" fill="#FADC71"/>
<path d="M176.679 119.452C176.297 119.604 175.894 119.703 175.471 119.751C175.083 119.785 174.695 119.819 174.307 119.852C173.905 119.851 173.493 119.875 173.07 119.922C172.682 119.956 172.279 120.056 171.863 120.222C170.96 120.581 170.049 121.023 169.131 121.549C168.234 122.026 167.265 122.472 166.223 122.886C165.737 123.079 165.303 123.252 164.921 123.404C164.525 123.521 164.13 123.638 163.734 123.755C163.36 123.824 162.974 123.917 162.579 124.034C162.17 124.116 161.708 124.219 161.195 124.343L159.779 124.725C159.198 124.675 158.586 124.497 157.944 124.19C157.288 123.848 156.838 123.364 156.593 122.738L156.307 122.008L158.492 116.982L159.192 113.389C159.236 113.091 159.303 112.903 159.394 112.827C159.505 112.702 159.613 112.619 159.717 112.578C159.822 112.536 159.936 112.471 160.062 112.381C160.173 112.256 160.293 112.048 160.419 111.757C160.605 111 160.686 110.285 160.663 109.611C160.661 108.889 160.738 108.215 160.895 107.591C161.06 106.681 161.146 105.824 161.152 105.018C161.143 104.178 161.018 103.344 160.774 102.517C161.328 101.574 161.826 100.693 162.268 99.8742C162.731 99.0071 163.131 98.1851 163.469 97.408C163.772 96.6447 164.03 95.9196 164.243 95.2325C164.49 94.5316 164.716 93.8793 164.921 93.2755C164.801 91.6362 164.791 90.0735 164.891 88.5874C164.88 88.1499 165.015 87.6745 165.296 87.1612C165.563 86.6131 165.726 86.1065 165.784 85.6413C165.864 85.1275 165.836 84.6969 165.7 84.3493C165.55 83.967 165.563 83.5399 165.74 83.068L167.173 81.6545C167.25 81.5436 167.272 81.2936 167.24 80.9046C167.229 80.4671 167.212 80.0121 167.187 79.5398C167.149 79.0327 167.083 78.5568 166.989 78.1121C166.917 77.6188 166.864 77.2783 166.83 77.0908C167.047 76.7232 167.092 76.2232 166.965 75.5909C166.873 74.9448 166.765 74.4653 166.643 74.1525C166.547 73.9092 166.362 73.7421 166.085 73.6511C165.795 73.5254 165.466 73.4552 165.099 73.4405C164.767 73.4119 164.431 73.425 164.091 73.4798C163.786 73.5207 163.53 73.5826 163.321 73.6655C162.821 73.8241 162.322 73.9826 161.822 74.1412C161.357 74.286 160.933 74.4343 160.551 74.5862L157.799 75.8612C157.513 76.2564 157.157 76.5785 156.733 76.8275C156.343 77.0627 155.906 77.277 155.419 77.4703L151.564 79.0032C150.64 79.4108 149.812 80.0617 149.078 80.9559C148.345 81.8501 147.687 82.8348 147.104 83.9099C146.543 84.9365 146.024 85.9666 145.545 87.0003C145.102 88.0202 144.698 88.884 144.333 89.5915L143.728 89.8922C143.415 90.0165 143.08 89.9289 142.722 89.6294C142.364 89.3299 142.099 89.0133 141.928 88.6796L142.857 77.5243C142.865 77.441 142.942 77.33 143.088 77.1914C143.256 77.0043 143.392 76.7893 143.498 76.5465L143.967 76.3601C144.403 76.3472 144.705 76.3479 144.871 76.3622C145.058 76.3279 145.204 76.2901 145.308 76.2486C145.447 76.1934 145.593 76.1555 145.745 76.1351C145.919 76.066 146.2 76.0146 146.588 75.9808C147.288 75.8227 147.93 75.6679 148.513 75.5165C149.082 75.3303 149.634 75.151 150.169 74.9786C150.703 74.8062 151.231 74.6165 151.752 74.4093C152.273 74.2022 152.829 73.9813 153.419 73.7465C154.287 73.4013 155.031 72.9446 155.652 72.3766C156.293 71.76 156.996 71.2998 157.76 70.996C162.546 70.0973 167.251 68.7888 171.876 67.0702C172.744 66.725 173.506 66.2615 174.161 65.6796C174.851 65.0839 175.595 64.6273 176.394 64.3097C176.672 64.1992 177.033 64.0959 177.477 63.9997C177.942 63.8549 178.417 63.7866 178.902 63.7947C179.373 63.768 179.819 63.8315 180.241 63.9853C180.662 64.1391 180.955 64.4245 181.118 64.8416L181.157 65.248C180.787 66.5598 180.494 67.962 180.276 69.4547C180.079 70.8989 179.775 72.2247 179.365 73.4322C178.857 74.7992 178.501 76.1457 178.298 77.4718C178.081 78.7631 178.034 80.1277 178.156 81.5657L175.825 86.5295L175.858 89.2278L174.392 92.4018C174.033 93.2274 173.779 94.0116 173.628 94.7544C173.512 95.4834 173.431 96.1985 173.385 96.8999C173.338 97.6012 173.299 98.32 173.266 99.0561C173.268 99.7784 173.207 100.546 173.084 101.358L172.184 103.825C172.184 104.749 172.04 105.609 171.75 106.408C171.461 107.206 171.22 107.924 171.029 108.562C170.892 109.34 170.831 110.107 170.847 110.864C170.897 111.607 170.902 112.389 170.862 113.208C170.854 113.292 170.857 113.351 170.871 113.385L170.952 113.594C171.293 114.463 171.854 114.923 172.637 114.973C173.405 114.989 174.179 114.862 174.956 114.593C175.435 114.483 175.966 114.352 176.549 114.201C177.131 114.049 177.714 113.898 178.297 113.747C178.866 113.56 179.418 113.381 179.953 113.209C180.522 113.022 181.033 112.84 181.484 112.66C183.984 111.666 186.092 110.386 187.807 108.82C189.508 107.22 190.924 105.251 192.056 102.913C192.309 102.33 192.503 101.851 192.637 101.477C192.792 101.053 192.944 100.672 193.092 100.332C193.239 99.9918 193.429 99.6554 193.66 99.3226C193.877 98.955 194.205 98.5634 194.644 98.1477C194.818 98.0786 195.119 98.0793 195.548 98.1498C195.977 98.2203 196.243 98.3355 196.346 98.4955C196.455 98.7735 196.539 99.1418 196.598 99.6003C196.657 100.059 196.707 100.441 196.746 100.747C197.221 102.165 197.623 103.652 197.952 105.208C198.315 106.751 198.644 108.307 198.938 109.878C198.758 110.752 198.29 111.401 197.532 111.823C196.774 112.244 195.892 112.656 194.884 113.056C193.843 113.47 192.767 113.798 191.657 114.038C190.56 114.313 189.475 114.564 188.399 114.791C187.324 115.018 186.256 115.262 185.194 115.523C184.119 115.75 183.078 116.064 182.071 116.464L176.679 119.452Z" fill="#FADC71"/>
<path d="M226.063 99.8151C225.681 99.967 225.278 100.067 224.855 100.114C224.467 100.148 224.079 100.182 223.691 100.216C223.289 100.215 222.877 100.238 222.454 100.286C222.066 100.32 221.664 100.419 221.247 100.585C220.344 100.944 219.433 101.387 218.515 101.912C217.619 102.389 216.649 102.835 215.607 103.249C215.121 103.443 214.687 103.615 214.305 103.767C213.909 103.884 213.514 104.002 213.118 104.119C212.744 104.187 212.359 104.28 211.963 104.397C211.554 104.48 211.092 104.583 210.579 104.707L209.163 105.089C208.582 105.039 207.97 104.86 207.328 104.553C206.672 104.211 206.222 103.727 205.977 103.102L205.691 102.372L207.876 97.3452L208.577 93.7527C208.62 93.4542 208.687 93.2668 208.778 93.1907C208.89 93.0659 208.998 92.9828 209.102 92.9414C209.206 92.8999 209.321 92.8342 209.446 92.7442C209.558 92.6195 209.677 92.4114 209.803 92.12C209.989 91.3634 210.07 90.6483 210.047 89.9745C210.045 89.2522 210.122 88.5787 210.279 87.954C210.445 87.0446 210.53 86.1871 210.536 85.3814C210.528 84.541 210.402 83.7073 210.158 82.8803C210.712 81.937 211.21 81.0561 211.652 80.2376C212.115 79.3706 212.515 78.5485 212.853 77.7714C213.156 77.0082 213.414 76.283 213.627 75.5959C213.874 74.8951 214.1 74.2427 214.305 73.639C214.185 71.9996 214.175 70.4369 214.275 68.9509C214.264 68.5133 214.399 68.0379 214.68 67.5246C214.947 66.9766 215.11 66.47 215.168 66.0048C215.248 65.491 215.22 65.0603 215.084 64.7128C214.934 64.3304 214.947 63.9033 215.124 63.4315L216.557 62.018C216.634 61.9071 216.656 61.6571 216.624 61.2681C216.614 60.8305 216.596 60.3756 216.572 59.9032C216.533 59.3961 216.467 58.9202 216.374 58.4755C216.301 57.9822 216.248 57.6418 216.214 57.4542C216.432 57.0866 216.477 56.5867 216.349 55.9544C216.257 55.3082 216.149 54.8288 216.027 54.516C215.932 54.2727 215.746 54.1055 215.469 54.0146C215.179 53.8889 214.851 53.8187 214.484 53.8039C214.151 53.7754 213.815 53.7885 213.476 53.8432C213.17 53.8842 212.914 53.9461 212.705 54.029C212.206 54.1875 211.706 54.3461 211.206 54.5047C210.741 54.6494 210.317 54.7978 209.935 54.9497L207.184 56.2246C206.897 56.6198 206.541 56.9419 206.117 57.191C205.728 57.4262 205.29 57.6405 204.804 57.8338L200.949 59.3666C200.025 59.7742 199.196 60.4251 198.462 61.3193C197.729 62.2135 197.071 63.1982 196.489 64.2734C195.927 65.2999 195.408 66.3301 194.93 67.3638C194.486 68.3837 194.082 69.2474 193.717 69.955L193.112 70.2557C192.8 70.38 192.464 70.2924 192.106 69.9929C191.748 69.6934 191.484 69.3768 191.313 69.043L192.242 57.8877C192.249 57.8044 192.326 57.6935 192.473 57.5549C192.64 57.3678 192.777 57.1528 192.882 56.91L193.351 56.7235C193.787 56.7107 194.089 56.7114 194.255 56.7257C194.442 56.6914 194.588 56.6535 194.692 56.6121C194.831 56.5569 194.977 56.519 195.129 56.4985C195.303 56.4295 195.584 56.378 195.972 56.3442C196.673 56.1861 197.314 56.0314 197.897 55.8799C198.467 55.6937 199.018 55.5145 199.553 55.3421C200.088 55.1697 200.615 54.9799 201.136 54.7728C201.657 54.5657 202.213 54.3447 202.803 54.11C203.671 53.7647 204.416 53.3081 205.036 52.74C205.678 52.1234 206.38 51.6632 207.144 51.3594C211.93 50.4608 216.635 49.1522 221.26 47.4337C222.129 47.0885 222.89 46.6249 223.545 46.0431C224.235 45.4474 224.98 44.9907 225.778 44.6731C226.056 44.5627 226.417 44.4593 226.861 44.3631C227.326 44.2184 227.801 44.15 228.286 44.1581C228.757 44.1314 229.203 44.195 229.625 44.3488C230.046 44.5026 230.339 44.788 230.502 45.2051L230.541 45.6115C230.172 46.9232 229.878 48.3255 229.66 49.8182C229.463 51.2623 229.159 52.5882 228.749 53.7957C228.241 55.1627 227.885 56.5092 227.682 57.8353C227.466 59.1266 227.418 60.4912 227.54 61.9291L225.209 66.8929L225.243 69.5912L223.777 72.7652C223.418 73.5909 223.163 74.3751 223.012 75.1179C222.896 75.8468 222.815 76.562 222.769 77.2633C222.722 77.9647 222.683 78.6834 222.65 79.4195C222.652 80.1419 222.591 80.9092 222.468 81.7215L221.568 84.1884C221.568 85.1121 221.424 85.9729 221.134 86.771C220.845 87.569 220.604 88.2872 220.413 88.9258C220.276 89.7033 220.215 90.4706 220.231 91.2277C220.281 91.9709 220.286 92.7523 220.246 93.5717C220.238 93.655 220.241 93.7141 220.255 93.7488L220.337 93.9574C220.677 94.8263 221.238 95.286 222.021 95.3364C222.789 95.3521 223.563 95.2255 224.34 94.9564C224.819 94.8464 225.35 94.7157 225.933 94.5643C226.516 94.4128 227.098 94.2614 227.681 94.11C228.251 93.9238 228.803 93.7445 229.337 93.5721C229.906 93.3859 230.417 93.2031 230.868 93.0236C233.369 92.0293 235.476 90.7494 237.191 89.1838C238.892 87.5834 240.308 85.6143 241.44 83.2764C241.693 82.6936 241.887 82.2149 242.021 81.8401C242.176 81.4169 242.328 81.0352 242.476 80.6953C242.624 80.3553 242.813 80.0189 243.044 79.6861C243.261 79.3185 243.589 78.9268 244.029 78.5111C244.202 78.4421 244.504 78.4428 244.933 78.5133C245.361 78.5837 245.627 78.6989 245.73 78.8589C245.839 79.137 245.923 79.5053 245.982 79.9638C246.041 80.4223 246.091 80.8044 246.13 81.1101C246.605 82.528 247.007 84.0152 247.336 85.5717C247.699 87.1144 248.028 88.6709 248.322 90.2412C248.143 91.1159 247.674 91.7642 246.916 92.186C246.158 92.6079 245.276 93.0191 244.269 93.4196C243.227 93.8338 242.151 94.1612 241.041 94.4017C239.945 94.6769 238.859 94.9279 237.784 95.1546C236.708 95.3812 235.64 95.6253 234.578 95.8867C233.503 96.1134 232.462 96.427 231.455 96.8274L226.063 99.8151Z" fill="#FADC71"/>
<path d="M276.111 72.8044C275.999 72.9291 275.855 73.2274 275.679 73.6993C275.523 74.1226 275.359 74.3687 275.185 74.4378L273.594 76.2155C273.538 76.2779 273.45 76.4131 273.331 76.6212C273.233 76.7807 273.114 76.9888 272.974 77.2454C272.854 77.4535 272.753 77.6547 272.668 77.8489C272.57 78.0084 272.504 78.0951 272.469 78.1089C272.413 78.1713 272.288 78.2613 272.093 78.3789C271.933 78.4827 271.738 78.6003 271.509 78.7317C271.314 78.8493 271.119 78.967 270.924 79.0846C270.751 79.1536 270.612 79.2089 270.508 79.2503C270.257 79.4303 270.044 79.6555 269.869 79.9259C269.729 80.1826 269.585 80.4809 269.437 80.8209C269.31 81.1123 269.156 81.4349 268.973 81.7886C268.777 82.1076 268.539 82.4231 268.26 82.735L263.311 84.7028C263.138 84.7718 262.881 84.8337 262.541 84.8885C262.236 84.9295 261.89 84.9668 261.501 85.0007C261.148 85.0207 260.788 85.0233 260.421 85.0085C260.054 84.9938 259.763 84.9688 259.549 84.9336C259.521 84.8641 259.356 84.7491 259.052 84.5886C258.77 84.3796 258.577 84.1951 258.474 84.0351C258.377 83.9932 258.291 83.9271 258.216 83.8366C258.071 83.7737 257.978 83.6902 257.937 83.5859L256 82.7896C255.504 82.344 254.989 81.7455 254.453 80.9941C253.939 80.1942 253.574 79.5162 253.356 78.9601L253.292 77.7202L252.498 76.7704L252.253 76.1447C252.185 75.9709 252.131 75.7312 252.092 75.4255C252.073 75.0713 252.062 74.7344 252.057 74.4149C252.039 74.0607 252.034 73.7412 252.043 73.4564C252.038 73.137 252.05 72.9113 252.079 72.7794C252.1 72.7308 252.174 72.5608 252.301 72.2694C252.448 71.9294 252.607 71.5652 252.776 71.1767C252.931 70.7534 253.065 70.3786 253.178 70.0525C253.326 69.7125 253.414 69.4766 253.443 69.3447C253.478 69.3309 253.552 69.1609 253.665 68.8347C253.812 68.4948 253.873 68.29 253.845 68.2205L253.868 67.9705C253.875 67.8872 253.866 67.8108 253.838 67.7413C254.279 67.1242 254.695 66.4966 255.088 65.8586C255.466 65.1858 255.942 64.5549 256.514 63.9659C256.535 63.9173 256.737 63.7164 257.121 63.3631C257.525 62.9612 257.964 62.5455 258.438 62.116C258.934 61.638 259.425 61.2016 259.912 60.8068C260.4 60.4121 260.769 60.1247 261.02 59.9448C261.299 59.6329 261.575 59.262 261.848 58.832C262.121 58.402 262.384 57.9963 262.636 57.615C262.923 57.2197 263.188 56.8731 263.433 56.575C263.664 56.2422 263.883 56.0344 264.092 55.9515L265.446 55.413C265.481 55.3991 265.564 55.3056 265.697 55.1323C265.753 55.0699 265.82 54.9832 265.896 54.8723C266.022 54.7823 266.331 54.599 266.825 54.3223C267.353 54.0319 267.704 53.8521 267.878 53.7831L268.208 52.6275C268.397 52.3918 268.599 52.1908 268.815 52.0246C269.017 51.8237 269.202 51.6297 269.37 51.4425C269.537 51.2554 269.656 51.0473 269.727 50.8183C269.819 50.5407 269.849 50.2074 269.817 49.8184C269.774 48.9918 269.631 48.165 269.388 47.338C269.165 46.4624 268.911 45.6596 268.625 44.9297L268.176 43.7827C268.148 43.7132 267.969 43.5634 267.638 43.3335C267.308 43.1035 267.115 42.919 267.06 42.78L265.394 40.3696L263.697 39.4176L262.695 38.5505C262.529 38.5363 262.322 38.4177 262.074 38.1949C261.826 37.9721 261.651 37.7807 261.548 37.6207C261.397 37.4397 261.061 37.3521 260.542 37.3579C260.009 37.3288 259.437 37.3553 258.827 37.4372C258.203 37.4844 257.6 37.5837 257.017 37.7351C256.455 37.8379 256.07 37.9308 255.862 38.0137C255.792 38.0413 255.514 38.1518 255.028 38.3451C254.563 38.4898 254.174 38.6244 253.862 38.7486C253.549 38.8729 253.129 39.0803 252.6 39.3708C252.093 39.6126 251.63 39.9172 251.212 40.2843C250.78 40.6166 250.428 40.9978 250.155 41.4278C249.916 41.8439 249.886 42.2779 250.063 42.7298L250.247 43.199C250.308 43.2547 250.439 43.3835 250.639 43.5854C250.825 43.7525 251.024 43.9544 251.237 44.191C251.437 44.3929 251.619 44.6017 251.783 44.8173C251.969 44.9845 252.076 45.1028 252.103 45.1723C252.158 45.3113 252.187 45.5406 252.192 45.8601C252.218 46.131 252.25 46.4193 252.29 46.725C252.482 47.9339 252.486 48.9167 252.301 49.6732C252.115 50.4298 251.68 51.2657 250.995 52.1809L250.554 52.8987C250.456 53.0582 250.375 53.2108 250.312 53.3565L246.352 54.9307C246.04 55.055 245.732 55.0369 245.428 54.8765C245.124 54.716 244.842 54.507 244.58 54.2494C244.305 53.9571 244.072 53.6683 243.88 53.3831C243.674 53.0631 243.538 52.8163 243.469 52.6425C243.388 52.4339 243.314 52.1421 243.247 51.7669C243.18 51.3917 243.155 51.02 243.171 50.652C243.174 50.2492 243.191 49.8811 243.221 49.5478C243.272 49.1659 243.35 48.8536 243.456 48.6108C243.465 48.326 243.504 48.0692 243.575 47.8401C243.577 47.6387 243.592 47.4721 243.62 47.3402C243.684 47.1945 243.726 47.0973 243.747 47.0488L244.254 45.8832C244.827 45.0928 245.272 44.3333 245.589 43.6048C245.906 42.8763 246.296 42.0785 246.759 41.2114L249.466 37.3632C249.691 36.9123 249.915 36.5621 250.138 36.3126C250.383 36.0145 250.641 35.7512 250.913 35.5226C251.184 35.2941 251.463 35.0829 251.748 34.8891C252.068 34.6815 252.42 34.401 252.803 34.0477C252.838 34.0339 252.911 33.9647 253.023 33.8399C253.169 33.7013 253.316 33.5628 253.462 33.4242C253.595 33.2509 253.735 33.095 253.881 32.9564C254.027 32.8178 254.129 32.7174 254.184 32.655C254.344 32.5512 254.647 32.3505 255.092 32.0529C255.573 31.7415 256.07 31.4232 256.585 31.0979C257.134 30.7589 257.656 30.4511 258.15 30.1744C258.643 29.8978 258.994 29.718 259.203 29.6352C259.376 29.5661 259.56 29.5735 259.753 29.6573C259.968 29.6925 260.11 29.6963 260.179 29.6687C260.283 29.6273 260.447 29.5825 260.669 29.5344C260.877 29.4516 261.092 29.3861 261.314 29.338C261.571 29.2761 261.793 29.228 261.98 29.1937C262.188 29.1108 262.334 29.073 262.417 29.0801C262.653 29.0668 262.971 29.0606 263.373 29.0615C263.761 29.0277 264.156 29.0113 264.558 29.0122C264.96 29.0132 265.32 29.0105 265.639 29.0043C265.957 28.9981 266.158 28.9986 266.241 29.0057C266.29 29.0267 266.41 29.0791 266.604 29.1628C266.797 29.2466 267.022 29.3583 267.277 29.4978C267.553 29.5887 267.812 29.6866 268.054 29.7913C268.296 29.8961 268.472 29.9868 268.582 30.0634C269.182 30.4676 269.761 30.8197 270.32 31.1197C270.914 31.4058 271.413 31.8098 271.818 32.3316C272.128 32.6102 272.4 32.9442 272.632 33.3337C272.886 33.6746 273.123 34.0224 273.342 34.3771C273.596 34.718 273.861 35.0346 274.136 35.327C274.411 35.6193 274.759 35.8424 275.18 35.9962L276.446 39.2286C277.345 41.5226 278.143 43.8164 278.841 46.11C279.559 48.3549 280.34 50.6556 281.183 53.012C281.18 53.4148 281.194 53.8108 281.226 54.1998C281.245 54.554 281.336 54.9397 281.499 55.3568C281.621 55.6696 281.792 56.0034 282.012 56.3581C282.265 56.699 282.426 56.9563 282.495 57.1301L282.414 58.3071C282.433 58.46 282.471 58.6059 282.525 58.7449L282.75 59.3185C282.954 59.8398 283.189 60.389 283.455 60.9661C283.721 61.5432 284.04 62.0996 284.41 62.6352C284.78 63.1708 285.189 63.651 285.636 64.0757C286.118 64.4866 286.671 64.7692 287.293 64.9234C287.521 64.9934 287.828 65.1122 288.215 65.2798C288.623 65.3988 288.896 65.4307 289.035 65.3755L289.244 65.2926C289.591 65.1545 289.97 64.9436 290.381 64.6598C290.778 64.3413 291.192 64.0158 291.624 63.6834C292.042 63.3163 292.467 62.9666 292.898 62.6342C293.365 62.2881 293.841 62.0183 294.328 61.825C294.987 61.5626 295.399 61.64 295.562 62.0571C295.998 63.1693 296.194 64.3366 296.151 65.5588C296.143 66.7673 295.92 67.9405 295.483 69.0785C295.032 70.1817 294.405 71.1942 293.602 72.1161C292.785 73.0031 291.787 73.6814 290.606 74.1509C289.425 74.6204 288.259 75.024 287.107 75.3616C285.941 75.6645 284.603 75.835 283.092 75.8731L282.626 75.7574C282.529 75.7155 282.274 75.576 281.86 75.3389C281.467 75.0533 281.033 74.764 280.557 74.4712C280.115 74.1646 279.705 73.8858 279.326 73.6349C278.933 73.3492 278.699 73.1612 278.623 73.0707L276.944 72.473L276.111 72.8044ZM261.275 69.6651C261.493 70.2213 261.831 70.8298 262.291 71.4906C262.785 72.1377 263.352 72.7155 263.993 73.224C264.62 73.6977 265.3 74.05 266.033 74.2809C266.765 74.5118 267.479 74.4892 268.173 74.213C268.312 74.1578 268.427 74.0921 268.518 74.0159C268.608 73.9397 268.849 73.6833 269.24 73.2467L273.817 70.9446C273.894 70.8337 273.996 70.6325 274.123 70.3411C274.27 70.0011 274.401 69.6681 274.514 69.3419C274.662 69.002 274.782 68.6932 274.874 68.4156C275 68.1242 275.078 67.9125 275.106 67.7806C275.141 67.7668 275.152 67.6419 275.14 67.4057C275.163 67.1557 275.182 66.8467 275.199 66.4786C275.215 66.1106 275.207 65.7321 275.175 65.343C275.178 64.9402 275.177 64.5791 275.172 64.2596C275.174 64.0582 275.124 63.7768 275.022 63.4154C274.956 63.0402 274.915 62.8352 274.902 62.8005C274.717 62.4319 274.533 62.0634 274.348 61.6949C274.164 61.3264 273.997 60.9509 273.847 60.5686C273.711 60.221 273.606 59.9013 273.532 59.6094C273.444 59.2828 273.356 58.9562 273.268 58.6295L273.184 57.3375L272.816 56.3991C272.585 55.8082 272.183 55.3454 271.61 55.0107C271.037 54.676 270.386 54.6536 269.657 54.9436C269.067 55.1784 268.618 55.5176 268.31 55.9614C268.023 56.3566 267.694 56.8489 267.323 57.4384C267.19 57.6117 266.918 57.941 266.506 58.4262C266.08 58.8766 265.627 59.3582 265.145 59.8711C264.685 60.3353 264.242 60.7927 263.816 61.2431C263.425 61.6797 263.156 61.9673 263.01 62.1059L262.225 63.0208C262.155 63.0484 262.03 63.1384 261.849 63.2908C261.667 63.4432 261.584 63.5367 261.597 63.5715L261.399 65.217L260.639 66.9654C260.615 67.4168 260.688 67.9101 260.857 68.4453C261.013 68.9457 261.152 69.3523 261.275 69.6651Z" fill="#FADC71"/>
<path d="M138.445 191.791C142.983 189.987 146.161 187.366 147.979 183.928C149.876 180.459 150.011 176.649 148.386 172.499C147.067 169.132 145.087 166.617 142.446 164.952C139.804 163.287 136.902 162.224 133.737 161.763C130.651 161.271 126.534 160.917 121.386 160.702C115.489 160.422 110.647 159.949 106.86 159.283C103.151 158.586 99.6268 157.091 96.2876 154.799C92.9485 152.507 90.3589 149.012 88.5188 144.314C86.9547 140.32 86.4368 136.227 86.965 132.036C87.5409 127.734 89.3316 123.764 92.3371 120.126C95.3427 116.487 99.6229 113.564 105.178 111.355C110.263 109.333 115.092 108.272 119.665 108.174C124.285 107.965 128.212 108.757 131.445 110.548C134.726 112.23 137.026 114.754 138.345 118.121C139.909 122.115 139.984 125.886 138.571 129.434C137.236 132.951 134.769 135.425 131.17 136.856C129.527 137.51 128.522 137.366 128.154 136.427C128.062 136.192 128.114 135.402 128.311 134.057C128.585 132.681 128.697 131.234 128.645 129.716C128.64 128.089 128.255 126.296 127.488 124.339C126.047 120.658 123.512 118.227 119.885 117.045C116.257 115.863 112.213 116.159 107.754 117.932C103.138 119.768 100.099 122.514 98.6386 126.172C97.1471 129.752 97.1374 133.421 98.6095 137.179C99.7442 140.076 101.547 142.255 104.018 143.716C106.489 145.177 109.213 146.13 112.191 146.575C115.168 147.02 119.192 147.366 124.261 147.613C130.314 147.83 135.343 148.319 139.348 149.079C143.401 149.73 147.221 151.288 150.809 153.753C154.366 156.14 157.11 159.8 159.042 164.733C161.772 171.701 161.602 178.194 158.534 184.211C155.543 190.196 149.706 194.916 141.021 198.369C135.388 200.609 130.074 201.816 125.08 201.993C120.055 202.09 115.738 201.227 112.13 199.404C108.57 197.471 106.07 194.665 104.628 190.985C103.064 186.991 103.028 183.205 104.519 179.625C106.089 176.015 108.791 173.447 112.624 171.923C113.485 171.581 114.172 171.488 114.686 171.646C115.169 171.725 115.487 171.961 115.641 172.352C115.733 172.587 115.641 173.393 115.367 174.769C115.061 176.067 114.911 177.53 114.915 179.157C114.919 180.784 115.305 182.576 116.072 184.534C117.697 188.684 120.581 191.429 124.722 192.768C128.864 194.108 133.438 193.782 138.445 191.791Z" fill="#FADC71"/>
<path d="M193.638 175.245C191.416 176.129 189.221 176.519 187.053 176.417C184.872 176.28 182.804 175.456 180.847 173.944L177.273 172.352C177.17 172.192 176.92 171.91 176.521 171.507C176.122 171.103 175.692 170.671 175.231 170.212C174.77 169.752 174.347 169.338 173.961 168.969C173.576 168.6 173.356 168.346 173.302 168.207L172.199 165.392C171.966 165.002 171.702 164.686 171.406 164.442C171.131 164.149 170.828 163.888 170.497 163.658C170.187 163.38 169.901 163.112 169.64 162.854C169.365 162.562 169.146 162.207 168.982 161.79L166.939 155.191C166.817 154.878 166.618 154.575 166.343 154.283C166.103 153.977 165.908 153.633 165.758 153.25C165.567 152.764 165.456 152.326 165.424 151.937C165.427 151.534 165.43 151.131 165.432 150.728C165.435 150.326 165.414 149.912 165.368 149.489C165.344 149.016 165.209 148.467 164.964 147.842L166.773 141.699L166.102 141.062C166.151 140.882 166.212 140.677 166.283 140.448C166.332 140.268 166.375 140.07 166.411 139.854C166.482 139.625 166.536 139.403 166.572 139.188C167.627 135.836 169.216 132.874 171.34 130.303C173.45 127.696 175.949 125.316 178.839 123.163L179.674 122.53C181.55 121.784 183.493 121.212 185.505 120.814C187.551 120.402 189.547 120.17 191.494 120.119C191.969 120.614 192.5 120.844 193.089 120.811C193.699 120.729 194.248 120.591 194.734 120.398C195.264 120.83 195.75 121.199 196.191 121.506C196.632 121.812 197.039 122.133 197.411 122.467C197.782 122.801 198.115 123.191 198.41 123.636C198.726 124.033 199.007 124.544 199.252 125.169C199.742 126.421 199.723 127.653 199.195 128.868C198.667 130.082 197.604 131.006 196.007 131.642C195.848 131.544 195.641 131.425 195.386 131.286C195.117 131.112 194.838 130.962 194.547 130.836C194.244 130.676 193.971 130.543 193.729 130.438C193.488 130.334 193.308 130.284 193.19 130.291C193.128 130.235 192.934 130.252 192.608 130.342C192.268 130.397 192.081 130.431 192.046 130.445C191.063 130.394 190.189 130.058 189.424 129.438C188.681 128.77 187.91 128.133 187.11 127.527C186.332 126.872 185.473 126.37 184.534 126.02C183.629 125.657 182.499 125.745 181.145 126.283C180.137 126.684 179.285 127.224 178.588 127.903C177.877 128.547 177.248 129.299 176.702 130.159C176.142 130.984 175.658 131.9 175.249 132.906C174.862 133.863 174.47 134.862 174.075 135.903C174.045 136.237 173.935 136.622 173.745 137.059C173.542 137.461 173.442 137.822 173.447 138.142L174.284 140.279L174.112 141.071C173.992 142.404 174.026 143.616 174.212 144.707C174.398 145.797 174.743 146.986 175.247 148.272C175.329 148.48 175.431 148.741 175.553 149.054C175.662 149.332 175.795 149.621 175.953 149.92C176.096 150.184 176.233 150.431 176.363 150.66C176.48 150.855 176.59 150.932 176.694 150.89C176.803 151.168 176.939 151.516 177.102 151.933C177.287 152.301 177.471 152.67 177.656 153.038C177.84 153.407 178.004 153.723 178.148 153.988C178.292 154.252 178.364 154.384 178.364 154.384L179.118 154.928L179.69 156.387C180.003 157.187 180.31 157.868 180.611 158.431C180.947 158.981 181.31 159.499 181.702 159.986C182.114 160.425 182.551 160.874 183.012 161.333C183.494 161.744 184.021 162.218 184.592 162.754C184.619 162.823 184.853 163.011 185.294 163.318C185.722 163.59 186.187 163.907 186.69 164.269C187.18 164.597 187.645 164.914 188.087 165.22C188.514 165.492 188.783 165.667 188.893 165.743C189.294 165.946 189.733 165.992 190.212 165.882C190.691 165.772 191.092 165.773 191.417 165.885C192.136 166.081 192.731 166.266 193.2 166.441C193.691 166.567 194.151 166.665 194.58 166.736C195.044 166.792 195.505 166.79 195.962 166.729C196.42 166.667 196.996 166.498 197.69 166.222C199.288 165.587 200.791 164.608 202.199 163.285C203.607 161.961 204.746 160.564 205.615 159.094C205.811 158.775 206.004 158.397 206.195 157.96C206.406 157.474 206.624 157.006 206.848 156.555C207.073 156.104 207.312 155.688 207.564 155.307C207.85 154.911 208.167 154.645 208.515 154.507C209.14 154.258 209.604 154.214 209.908 154.375C210.246 154.521 210.531 154.89 210.762 155.481L211.007 156.106C211.193 158.322 210.922 160.398 210.196 162.334C209.504 164.257 208.508 166.018 207.208 167.62C205.895 169.186 204.372 170.575 202.639 171.786C200.906 172.998 199.119 173.969 197.279 174.701L195.664 175.343L194.42 174.934L193.638 175.245Z" fill="#FADC71"/>
<path d="M221.042 160.974C220.933 160.696 221.032 160.436 221.338 160.194C221.666 159.903 221.882 159.636 221.988 159.393C222.206 158.824 222.525 158.356 222.943 157.989C223.396 157.608 223.706 157.324 223.874 157.137C224.083 156.852 224.193 156.568 224.202 156.283C224.197 155.964 224.358 155.658 224.686 155.368L225.773 154.453C225.981 154.37 226.093 154.145 226.11 153.777C226.126 153.409 226.145 153.201 226.166 153.152C226.063 152.992 225.93 152.704 225.767 152.286C225.604 151.869 225.447 151.47 225.297 151.087C225.107 150.601 224.936 150.166 224.787 149.784C224.623 149.367 224.505 149.012 224.43 148.72L224.13 147.032L220.986 139.003C220.958 138.933 220.915 138.77 220.854 138.513C220.793 138.256 220.726 137.981 220.652 137.69C220.578 137.398 220.51 137.123 220.45 136.866C220.389 136.609 220.363 136.439 220.37 136.355L220.227 135.99C220.111 135.796 219.954 135.497 219.755 135.093C219.544 134.655 219.339 134.235 219.141 133.831C218.929 133.393 218.738 133.007 218.567 132.674C218.396 132.34 218.297 132.138 218.27 132.069C218.194 131.978 218.091 131.818 217.961 131.589C217.831 131.359 217.695 131.112 217.551 130.848C217.407 130.584 217.27 130.337 217.14 130.108C217.045 129.864 216.977 129.69 216.936 129.586C216.641 129.141 216.284 128.741 215.864 128.386C215.444 128.03 215.003 127.724 214.54 127.466C214.064 127.173 213.578 126.904 213.081 126.66C212.57 126.381 212.084 126.113 211.621 125.855C211.587 125.868 211.418 125.795 211.114 125.635C210.797 125.439 210.624 125.307 210.597 125.238L206.4 123.592L207.9 120.043C207.956 119.981 208.068 119.856 208.235 119.669C208.438 119.468 208.64 119.267 208.842 119.066C209.066 118.817 209.278 118.591 209.481 118.39C209.718 118.176 209.899 118.023 210.024 117.933C210.066 117.836 210.185 117.729 210.38 117.611C210.595 117.445 210.818 117.296 211.048 117.165C211.312 117.02 211.548 116.906 211.757 116.823C211.986 116.691 212.135 116.612 212.205 116.584C212.783 116.113 213.265 115.6 213.649 115.046C214.055 114.442 214.451 113.863 214.835 113.309C215.207 112.719 215.598 112.182 216.01 111.697C216.457 111.198 217.028 110.81 217.722 110.534L218.556 110.203C218.604 110.223 218.87 110.339 219.353 110.548C219.823 110.723 220.172 110.845 220.4 110.915C220.793 111.201 221.105 111.639 221.337 112.23C221.554 112.786 221.79 113.335 222.042 113.878C222.281 114.385 222.58 114.789 222.938 115.088C223.296 115.388 223.822 115.399 224.517 115.123C224.621 115.082 224.725 115.04 224.829 114.999C224.968 114.944 225.024 114.881 224.997 114.812C225.122 114.722 225.286 114.576 225.488 114.375C225.677 114.14 225.859 113.887 226.034 113.616C226.243 113.332 226.419 113.061 226.559 112.805C226.734 112.534 226.853 112.326 226.916 112.181L228.419 109.715C228.461 109.618 228.626 109.372 228.913 108.977C229.186 108.547 229.365 108.235 229.449 108.04C229.484 108.026 229.623 107.971 229.866 107.875C230.095 107.743 230.331 107.629 230.575 107.532C230.839 107.387 231.086 107.249 231.315 107.117C231.545 106.986 231.705 106.882 231.795 106.806C231.83 106.792 231.921 106.716 232.067 106.577C232.248 106.425 232.429 106.273 232.61 106.12C232.826 105.954 233.007 105.802 233.154 105.663C233.3 105.525 233.391 105.449 233.426 105.435L233.999 105.207C234.797 104.889 235.535 104.877 236.212 105.17C236.923 105.45 237.603 105.802 238.251 106.227C238.617 106.443 238.933 106.84 239.199 107.417C239.486 107.946 239.771 108.314 240.054 108.523C240.095 108.628 240.188 108.711 240.333 108.774L240.623 108.9C241.276 110.568 241.618 112.159 241.65 113.674C241.702 115.139 241.329 116.493 240.531 117.734C240.245 117.928 239.908 118.142 239.518 118.377C239.115 118.578 238.775 118.733 238.497 118.844C237.768 119.134 237.216 119.313 236.841 119.382C236.453 119.416 236.138 119.38 235.896 119.275C235.655 119.171 235.41 119.007 235.162 118.784C234.949 118.547 234.629 118.293 234.201 118.021C233.835 117.805 233.445 117.679 233.03 117.643C232.635 117.559 232.268 117.544 231.929 117.599C231.575 117.619 231.253 117.667 230.961 117.743C230.705 117.805 230.542 117.849 230.472 117.877L228.089 118.403L226.418 119.67L226.12 120.753C225.96 120.856 225.785 121.127 225.594 121.564C225.391 121.966 225.208 122.421 225.045 122.927C224.903 123.385 224.81 123.864 224.765 124.364C224.706 124.83 224.724 125.184 224.82 125.427L226.03 129.285L226.862 130.641L227.924 133.352C227.951 133.421 228.05 133.623 228.221 133.957C228.413 134.242 228.577 134.458 228.715 134.604L230.188 139.441L231.247 141.069C231.342 141.312 231.368 141.583 231.325 141.882C231.316 142.166 231.386 142.5 231.536 142.882L232.595 144.51L232.986 146.584C232.999 146.619 233.02 146.671 233.047 146.74C233.074 146.81 233.123 146.831 233.192 146.803C233.308 146.998 233.528 147.252 233.852 147.565C234.21 147.865 234.575 148.182 234.947 148.516C235.353 148.836 235.718 149.153 236.041 149.466C236.386 149.731 236.627 149.937 236.764 150.083C236.778 150.117 236.84 150.173 236.95 150.25C237.061 150.327 237.168 150.344 237.272 150.303C237.653 150.352 238.036 150.461 238.423 150.628C238.844 150.782 239.291 150.846 239.762 150.819C240.046 150.827 240.399 150.807 240.822 150.759C241.231 150.677 241.665 150.605 242.122 150.543C242.615 150.468 243.096 150.417 243.568 150.39C244.074 150.35 244.558 150.358 245.022 150.415C245.339 150.61 245.66 150.864 245.983 151.177C246.341 151.477 246.609 151.852 246.786 152.304C246.936 152.687 246.975 152.992 246.904 153.221C246.868 153.437 246.762 153.679 246.587 153.95C246.433 154.172 246.113 154.379 245.627 154.573L244.021 155.392C243.458 155.696 242.934 155.945 242.447 156.138C241.996 156.318 241.614 156.47 241.301 156.594C241.024 156.705 240.697 156.794 240.323 156.863C239.969 156.883 239.602 156.969 239.22 157.12C238.247 157.507 237.375 157.995 236.602 158.583C235.842 159.207 235.011 159.698 234.108 160.057L231.458 160.207L228.43 162.315L227.545 162.667L226.611 162.435C226.542 162.463 226.344 162.521 226.018 162.611C225.678 162.666 225.199 162.776 224.582 162.941C224.443 162.996 224.277 162.982 224.083 162.898C223.965 162.905 223.771 162.922 223.501 162.949C223.265 162.962 222.857 162.944 222.275 162.894C221.848 162.622 221.566 162.312 221.43 161.965L221.042 160.974Z" fill="#FADC71"/>
<path d="M264.014 147.563C263.597 147.729 263.295 147.929 263.106 148.165C262.966 148.422 262.774 148.598 262.531 148.695C262.392 148.75 262.191 148.75 261.928 148.694C261.7 148.624 261.354 148.56 260.89 148.504C260.807 148.496 260.721 148.43 260.632 148.305C260.564 148.131 260.454 147.954 260.303 147.773C260.152 147.592 259.998 147.352 259.841 147.053C259.827 147.018 259.828 146.918 259.843 146.751C259.879 146.536 259.915 146.321 259.951 146.105C259.974 145.855 260.003 145.623 260.039 145.408C260.075 145.192 260.114 145.036 260.157 144.939L260.922 143.972L262.068 143.516C262.867 143.199 263.558 142.863 264.142 142.511C264.748 142.109 265.112 141.502 265.235 140.69C264.912 139.453 264.573 138.282 264.221 137.177C263.868 136.072 263.627 134.943 263.496 133.789L263.161 131.09L261.262 126.242L259.685 121.446L258.48 118.37C258.453 118.3 258.35 118.14 258.172 117.89C257.98 117.605 257.781 117.302 257.575 116.982C257.356 116.627 257.151 116.307 256.959 116.022C256.753 115.702 256.616 115.455 256.548 115.282L254.608 110.329C254.32 110.001 253.91 109.622 253.38 109.19C252.849 108.758 252.38 108.483 251.972 108.364L250.153 108.485C249.399 108.302 248.684 108.064 248.007 107.771C247.365 107.464 246.762 107.001 246.199 106.381C246.049 105.999 246.02 105.669 246.112 105.391C246.204 105.114 246.368 104.868 246.605 104.653C246.842 104.438 247.104 104.234 247.389 104.04C247.674 103.846 247.942 103.659 248.193 103.479L251.272 99.9655C251.53 99.7022 251.75 99.4943 251.931 99.3419C252.133 99.141 252.318 98.947 252.485 98.7598C252.653 98.5727 252.796 98.3751 252.915 98.167C253.069 97.9452 253.213 97.6469 253.348 97.2721L254.817 96.5672C254.991 96.4981 255.258 96.4119 255.619 96.3086C256.015 96.1914 256.247 96.1191 256.317 96.0914C256.421 96.05 256.602 95.9984 256.858 95.9364C257.115 95.8745 257.396 95.8231 257.701 95.7822C258.006 95.7412 258.294 95.7071 258.564 95.68C258.834 95.6528 259.028 95.6359 259.146 95.6293C259.513 95.644 259.82 95.8635 260.066 96.2877C260.334 96.6634 260.536 97.025 260.672 97.3726L261.325 99.041L261.451 100.437C262.162 102.766 262.946 105.025 263.804 107.214C264.662 109.404 265.512 111.677 266.354 114.034L266.829 116.014C266.808 116.063 266.821 116.198 266.868 116.42C266.95 116.629 267.045 116.872 267.154 117.15C267.263 117.428 267.372 117.706 267.481 117.985C267.576 118.228 267.651 118.419 267.705 118.558C267.8 118.801 267.909 119.079 268.032 119.392C268.154 119.705 268.27 120 268.379 120.279C268.488 120.557 268.583 120.8 268.665 121.008C268.768 121.168 268.836 121.242 268.871 121.228C268.912 121.332 269.042 121.561 269.261 121.916C269.467 122.236 269.601 122.424 269.663 122.48L270.091 123.575C270.132 123.679 270.224 123.964 270.366 124.429C270.508 124.895 270.678 125.43 270.874 126.035C271.058 126.605 271.241 127.175 271.424 127.745C271.628 128.266 271.778 128.648 271.873 128.892C271.996 129.205 272.21 129.702 272.517 130.383C272.845 131.016 273.194 131.701 273.563 132.438C273.967 133.161 274.339 133.856 274.681 134.524C275.009 135.157 275.228 135.612 275.337 135.89C275.486 136.273 275.8 136.509 276.277 136.601C276.776 136.644 277.16 136.652 277.43 136.624C277.534 136.583 277.75 136.517 278.076 136.428C278.437 136.325 278.815 136.214 279.211 136.097C279.606 135.98 279.967 135.877 280.293 135.787C280.641 135.649 280.884 135.552 281.023 135.497C281.375 135.679 281.681 135.898 281.943 136.156C282.239 136.399 282.482 136.765 282.673 137.251C282.863 137.738 282.995 138.228 283.068 138.721C283.175 139.201 283.107 139.589 282.862 139.887C282.582 140.401 282.188 140.778 281.681 141.02C281.222 141.283 280.714 141.525 280.159 141.746L279.221 142.119L277.767 142.094L271.359 144.642C271.324 144.656 271.085 144.711 270.641 144.807C270.183 144.869 269.885 144.927 269.746 144.982L268.288 145.562L264.014 147.563ZM238.468 77.8811L239.45 75.6227L240.638 73.5836L240.73 72.2816C241.024 71.803 241.425 71.4428 241.932 71.2009C242.426 70.9243 242.881 70.7031 243.298 70.5374L243.819 70.3303C243.867 70.3512 243.992 70.3619 244.193 70.3624C244.394 70.3629 244.594 70.3633 244.795 70.3638C244.996 70.3643 245.18 70.3716 245.346 70.3859C245.533 70.3516 245.661 70.3207 245.731 70.2931C245.897 70.3073 246.133 70.294 246.438 70.2531C246.764 70.1635 247.097 70.0914 247.437 70.0366C247.763 69.9471 248.072 69.8645 248.363 69.7888C248.641 69.6783 248.832 69.6023 248.936 69.5609C249.089 69.5404 249.327 69.6868 249.65 70.0001C249.973 70.3134 250.282 70.6927 250.577 71.1378C250.893 71.5344 251.174 71.9449 251.421 72.3691C251.688 72.7448 251.849 73.0021 251.904 73.1412C252.244 74.0101 252.46 74.8683 252.551 75.7159C252.663 76.5148 252.488 77.3478 252.025 78.2149C252.003 78.2635 251.92 78.357 251.773 78.4956C251.648 78.5856 251.512 78.6999 251.366 78.8384C251.206 78.9422 251.052 79.0634 250.906 79.202C250.781 79.292 250.718 79.337 250.718 79.337C250.711 79.4203 250.671 79.5765 250.6 79.8055C250.516 79.9997 250.421 80.2183 250.315 80.4611C250.196 80.6692 250.077 80.8773 249.958 81.0854C249.825 81.2587 249.748 81.3696 249.727 81.4182C249.614 81.7444 249.356 82.0077 248.953 82.2081C248.584 82.3948 248.226 82.5572 247.879 82.6953L245.848 83.5031C245.465 83.655 245.129 83.7688 244.837 83.8445C244.532 83.8855 244.062 83.8114 243.426 83.6224C242.495 82.9882 241.626 82.4098 240.819 81.887C240.013 81.3642 239.391 80.5467 238.956 79.4344L238.468 77.8811Z" fill="#FADC71"/>
<path d="M315.814 160.227L313.049 161.929L302.474 166.134C302.058 166.3 301.603 166.42 301.111 166.495C300.653 166.557 300.186 166.542 299.708 166.451C299.279 166.38 298.875 166.219 298.496 165.968C298.152 165.704 297.884 165.328 297.693 164.841C297.503 164.355 297.374 163.924 297.308 163.549C297.289 163.195 297.496 162.851 297.928 162.519L301.34 160.318C301.556 160.152 301.748 159.975 301.915 159.788C302.062 159.65 302.208 159.511 302.355 159.373C302.536 159.22 302.665 159.089 302.742 158.978C302.881 158.922 303.017 158.808 303.149 158.635C303.205 158.572 303.254 158.493 303.297 158.396C303.389 158.118 303.461 157.688 303.513 157.104C303.579 156.556 303.572 156.177 303.49 155.969C303.463 155.899 303.385 155.649 303.256 155.218C303.141 154.822 302.999 154.356 302.829 153.821C302.708 153.307 302.57 152.8 302.414 152.299C302.258 151.799 302.126 151.409 302.017 151.131L300.914 148.316C300.506 147.273 300.08 146.237 299.637 145.209C299.207 144.214 298.722 143.283 298.181 142.413L297.48 141.547L296.704 139.566L296.588 138.346L295.699 136.23C295.549 135.847 295.423 135.475 295.322 135.114C295.269 134.774 295.275 134.43 295.339 134.083C294.465 132.261 293.646 130.478 292.883 128.733C292.14 126.939 291.408 125.121 290.686 123.279L290.033 121.611L289.565 120.109C289.552 120.075 289.531 120.022 289.504 119.953C289.477 119.883 289.398 119.734 289.268 119.504C289.173 119.261 289.006 118.886 288.767 118.378C288.528 117.871 288.197 117.179 287.773 116.303C287.665 116.025 287.562 115.764 287.467 115.521C287.372 115.277 287.298 114.985 287.245 114.645L286.5 112.591C285.932 111.652 285.416 110.692 284.951 109.712C284.522 108.718 284.096 107.682 283.674 106.605C283.279 105.597 282.902 104.582 282.542 103.56C282.203 102.49 281.902 101.364 281.64 100.182L281.124 99.7853C280.992 99.7572 280.788 99.6977 280.512 99.6068C280.256 99.4673 280.008 99.3452 279.766 99.2404C279.476 99.1147 279.145 98.9855 278.771 98.8526C278.626 98.7898 278.398 98.7198 278.087 98.6427C277.776 98.5655 277.43 98.5022 277.049 98.4527C276.669 98.4032 276.295 98.3711 275.928 98.3563C275.596 98.3278 275.347 98.3064 275.18 98.2921C274.945 98.3054 274.758 98.3397 274.619 98.3949C274.501 98.4016 274.394 98.384 274.297 98.3421C273.578 98.1459 273.109 97.7698 272.892 97.2137C272.864 97.1442 272.817 97.0225 272.749 96.8487C272.667 96.6402 272.647 96.4873 272.689 96.3902C272.718 96.2583 272.736 96.1507 272.744 96.0674C272.738 95.9493 272.801 95.8036 272.934 95.6303L274.957 92.9576C275.048 92.8815 275.156 92.7984 275.281 92.7084C275.372 92.6322 275.462 92.556 275.553 92.4798C275.644 92.4036 275.724 92.3517 275.793 92.3241L277.903 90.6414L278.809 88.9558C279.063 88.1716 279.474 87.426 280.04 86.7189C280.627 85.9632 281.25 85.4542 281.91 85.1918C282.674 84.888 283.319 84.7923 283.845 84.9047C284.391 84.9684 284.868 85.1606 285.274 85.481C285.681 85.8014 286.007 86.1738 286.254 86.598C286.535 87.0084 286.792 87.4084 287.025 87.7978C287.292 88.1735 287.55 88.4727 287.798 88.6956C288.067 88.8698 288.357 88.8948 288.67 88.7705L292.542 84.8208L293.445 83.4374C293.872 82.7855 294.34 82.238 294.848 81.7947C295.392 81.3376 295.956 80.9326 296.54 80.5797C297.124 80.2269 297.729 79.9262 298.354 79.6776C299 79.3805 299.657 79.0591 300.324 78.7134L301.495 77.7056C302.224 77.4156 302.852 77.2261 303.379 77.137C303.928 76.9994 304.444 76.9347 304.929 76.9427C305.414 76.9508 305.895 77.0006 306.372 77.092C306.836 77.1486 307.389 77.2298 308.033 77.3355C309.12 77.3449 310.229 77.3059 311.358 77.2182C312.509 77.082 313.659 77.1472 314.807 77.4138L321.818 80.7118L322.375 81.2132C322.513 81.3594 322.644 81.4882 322.768 81.5996C322.926 81.6972 323.019 81.7807 323.046 81.8502L325.994 85.3784L327.791 86.8931C327.873 87.1017 328.006 87.2895 328.192 87.4566L328.564 87.7909L329.136 89.2507C329.239 89.4107 329.335 89.5533 329.424 89.6785C329.513 89.8037 329.595 89.9116 329.671 90.002C329.746 90.0925 329.798 90.1725 329.825 90.242L330.546 91.1605C330.758 91.5985 330.963 92.0192 331.161 92.4225C331.345 92.791 331.53 93.1595 331.714 93.528C331.885 93.8618 332.025 94.1677 332.134 94.4458C332.401 96.8703 332.551 99.2007 332.584 101.437C332.617 103.674 332.505 105.948 332.246 108.26L331.924 111.28L331.947 112.416C331.804 113.075 331.554 113.717 331.197 114.342C330.86 114.917 330.465 115.496 330.01 116.079C329.556 116.661 329.095 117.226 328.627 117.773C328.146 118.286 327.713 118.82 327.328 119.375L326.151 121.289C325.703 121.989 325.152 122.53 324.498 122.91C323.844 123.291 323.118 123.64 322.319 123.957L319.975 124.889C319.42 125.11 318.899 125.317 318.412 125.511C317.961 125.69 317.492 125.877 317.006 126.07C316.506 126.229 315.972 126.401 315.402 126.587C314.868 126.76 314.257 126.942 313.57 127.135L312.113 127.413L311.33 128.026L307.267 129.641C306.811 130.425 306.532 131.199 306.43 131.963C306.341 132.761 306.353 133.56 306.465 134.359C306.612 135.144 306.825 135.943 307.103 136.756C307.382 137.57 307.684 138.393 308.011 139.227L309.93 144.128C310.039 144.406 310.213 144.799 310.452 145.307C310.691 145.814 310.93 146.322 311.169 146.829C311.456 147.358 311.699 147.824 311.897 148.227C312.095 148.63 312.208 148.867 312.235 148.936L314.205 151.045L314.695 152.297L316.362 154.707C316.443 154.916 316.612 154.989 316.869 154.927C317.126 154.865 317.376 154.786 317.619 154.689L318.846 153.056L319.21 152.911L320.239 152.924L323.104 151.785C323.486 151.633 323.861 151.565 324.228 151.579C324.629 151.58 325.113 151.689 325.68 151.906C326.24 152.004 326.631 152.13 326.851 152.283C327.086 152.471 327.298 152.809 327.489 153.295L327.745 153.796C327.963 154.352 327.893 154.942 327.535 155.567C327.191 156.226 326.686 156.728 326.018 157.074L321.514 159.407C320.71 159.405 319.872 159.417 318.999 159.443C318.161 159.455 317.429 159.585 316.804 159.834L315.814 160.227ZM299.07 117.475C299.26 117.962 299.427 118.337 299.571 118.601C299.701 118.831 299.962 119.189 300.353 119.676C300.532 119.927 300.783 120.209 301.106 120.522C301.464 120.821 301.798 121.11 302.108 121.389C302.466 121.688 302.855 122.016 303.275 122.371C303.302 122.44 303.43 122.51 303.658 122.58C303.921 122.636 304.201 122.686 304.499 122.728C304.796 122.77 305.07 122.802 305.319 122.824C305.603 122.831 305.779 122.821 305.849 122.794L308.036 123.611L310.521 123.346L313.229 122.269L313.957 122.281C314.686 121.991 315.319 121.659 315.854 121.286C316.377 120.877 316.84 120.472 317.245 120.07C317.67 119.619 318.054 119.165 318.397 118.708C318.74 118.25 319.089 117.81 319.445 117.387C319.747 116.825 320.103 116.403 320.514 116.119C320.945 115.786 321.316 115.298 321.625 114.653C321.702 114.542 321.765 114.396 321.815 114.215C321.9 114.021 321.984 113.827 322.069 113.633L322.281 112.946L321.337 109.766L321.384 105.891L321.012 104.171L320.522 102.92L320.382 100.565L319.769 99.0007C318.932 97.8875 318.308 96.9102 317.899 96.0689C317.475 95.1928 317.038 94.3827 316.586 93.6385C316.421 93.4228 316.259 93.2661 316.1 93.1685C315.977 93.0571 315.835 92.9526 315.677 92.855C315.518 92.7574 315.353 92.6424 315.18 92.5101C315.029 92.3291 314.833 92.0856 314.593 91.7794C314.428 91.5638 314.261 91.289 314.09 90.9553C313.905 90.5867 313.703 90.2251 313.484 89.8704C313.3 89.5019 313.105 89.1576 312.899 88.8377C312.693 88.5177 312.467 88.2463 312.219 88.0235C312.087 87.9954 311.825 87.9392 311.43 87.855C311.057 87.7221 310.66 87.5788 310.239 87.425C309.838 87.2227 309.451 87.0551 309.078 86.9223C308.726 86.7409 308.495 86.6118 308.385 86.5352L307.27 85.5325C307.242 85.463 307.132 85.3863 306.939 85.3025C306.732 85.184 306.514 85.0897 306.286 85.0197C306.044 84.915 305.792 84.8345 305.529 84.7783C305.253 84.6874 305.049 84.6279 304.918 84.5998L304.19 84.5877L301.586 85.6233L299.642 85.7334L298.756 86.0855C297.402 86.6241 296.345 87.205 295.586 87.8283C294.827 88.4516 294.046 89.1234 293.245 89.8439L291.852 91.3616C291.49 91.6663 291.235 91.9887 291.087 92.3287C290.974 92.6548 290.909 93.0019 290.893 93.37C290.876 93.738 290.891 94.134 290.937 94.5577C290.969 94.9467 290.997 95.3774 291.021 95.8497L290.993 98.3916C291.143 98.7739 291.321 99.1251 291.526 99.445C291.753 99.7164 291.941 100.043 292.091 100.426L292.831 103.084C293.308 104.3 293.854 105.389 294.471 106.349C295.109 107.26 295.837 108.196 296.654 109.156L297.083 110.251L297.658 112.794L298.515 114.984L298.6 116.276L299.07 117.475Z" fill="#FADC71"/>
<path d="M345.095 92.1842L342.741 87.0948L340.93 81.5483L340.317 79.9842C340.284 79.7966 340.254 79.5674 340.228 79.2964C340.202 79.0255 340.155 78.8032 340.087 78.6294C339.693 77.6214 339.135 76.6582 338.414 75.7397C337.679 74.7865 337.028 73.8404 336.459 72.9015C336.017 72.7963 335.445 72.8227 334.744 72.9808C334.078 73.1251 333.406 73.252 332.726 73.3616C332.033 73.4363 331.382 73.414 330.773 73.2945C330.199 73.1612 329.783 72.7643 329.524 72.1039C329.238 71.374 329.27 70.7386 329.621 70.1977C329.957 69.622 330.407 69.0814 330.972 68.5757C331.558 68.0215 332.157 67.502 332.77 67.0172C333.417 66.5187 333.885 65.9711 334.173 65.3745C334.475 64.8127 334.795 64.1432 335.133 63.3661C335.471 62.5891 335.7 61.9958 335.82 61.5863C335.88 60.9197 335.973 60.0795 336.098 59.0658C336.257 58.0383 336.465 57.0318 336.721 56.0461C336.964 55.0258 337.289 54.1132 337.696 53.3085C338.089 52.4691 338.599 51.9251 339.224 51.6765C339.641 51.5108 340.018 51.5013 340.357 51.6479C340.716 51.746 341.034 51.9412 341.309 52.2336C341.605 52.4773 341.862 52.7766 342.082 53.1313C342.301 53.486 342.496 53.8303 342.667 54.164L345.035 60.2119L345.439 60.4733L347.887 59.4997C348.755 59.1545 349.534 58.7848 350.222 58.3905C350.897 57.9615 351.52 57.5532 352.091 57.1656C352.682 56.7294 353.253 56.3418 353.803 56.0028C354.373 55.6152 355.006 55.2833 355.7 55.0071C356.673 54.6205 357.632 54.6609 358.578 55.1284C359.523 55.596 360.194 56.3337 360.588 57.3417C360.901 58.1412 361.021 58.8568 360.948 59.4886C360.909 60.1067 360.707 60.6687 360.344 61.1749C359.98 61.681 359.496 62.1348 358.89 62.5362C358.271 62.9029 357.562 63.245 356.763 63.5626L353.223 64.669L350.721 65.9654L348.118 66.699C347.632 66.8923 347.269 67.2977 347.029 67.9153C346.81 68.4843 346.776 68.9599 346.926 69.3423L348.926 73.0661C349.117 73.5527 349.231 74.0496 349.269 74.5567C349.307 75.0638 349.335 75.5951 349.352 76.1508C349.355 76.6717 349.382 77.2031 349.434 77.7449C349.486 78.2867 349.614 78.8183 349.818 79.3397L350.186 80.2782L353.023 86.1396C353.001 86.3896 353.013 86.6258 353.06 86.8481C353.141 87.0567 353.244 87.3173 353.366 87.6302C353.461 87.8735 353.585 88.0856 353.736 88.2665C353.887 88.4474 353.996 88.6248 354.065 88.7986C354.564 89.7651 355.004 90.735 355.385 91.7082C355.725 92.5772 356.017 93.4252 356.261 94.2522C356.504 95.0793 356.713 95.9201 356.888 96.7748C356.936 96.7957 357.046 96.8724 357.218 97.0048C357.377 97.1024 357.549 97.2347 357.735 97.4018C357.942 97.5204 358.139 97.6632 358.324 97.8304C358.497 97.9627 358.624 98.0325 358.707 98.0396C359.149 98.3462 359.584 98.5348 360.013 98.6052C360.442 98.6757 360.864 98.7288 361.279 98.7645C361.716 98.7516 362.159 98.7561 362.609 98.778C363.094 98.7861 363.595 98.8879 364.113 99.0836L366.093 98.2965C366.892 97.9789 367.622 97.5882 368.283 97.1244C368.944 96.6606 369.571 96.2107 370.163 95.7745C370.775 95.2898 371.36 94.8362 371.917 94.4139C372.509 93.9777 373.152 93.6215 373.847 93.3454C374.264 93.1797 374.658 93.2639 375.03 93.5982C375.401 93.9324 375.662 94.2907 375.812 94.673C375.894 94.8816 375.944 95.0623 375.964 95.2151C376.005 95.3194 376.011 95.4375 375.982 95.5694C375.954 95.7012 375.897 95.8643 375.813 96.0586C375.763 96.2391 375.699 96.4855 375.621 96.7978L375.3 98.1305C375.223 98.2415 375.117 98.4843 374.983 98.859C374.884 99.22 374.763 99.6294 374.621 100.087C374.466 100.511 374.311 100.934 374.155 101.357C373.986 101.746 373.86 102.037 373.775 102.232C373.578 102.752 373.2 103.324 372.641 103.948C372.083 104.572 371.469 105.157 370.801 105.704C370.145 106.286 369.48 106.791 368.806 107.22C368.165 107.636 367.637 107.926 367.22 108.092L360.021 109.388C359.363 109.449 358.601 109.45 357.736 109.393C356.87 109.335 356.002 109.219 355.13 109.043C354.28 108.819 353.478 108.515 352.726 108.131C352.008 107.733 351.444 107.215 351.033 106.575L349.624 102.977C348.987 101.864 348.343 100.835 347.692 99.889C347.061 98.8944 346.521 97.8236 346.072 96.6766L345.095 92.1842Z" fill="#FADC71"/>
</g>
<defs>
<filter id="filter0_d_98_6" x="0" y="0" width="407" height="239" filterUnits="userSpaceOnUse" color-interpolation-filters="sRGB">
<feFlood flood-opacity="0" result="BackgroundImageFix"/>
<feColorMatrix in="SourceAlpha" type="matrix" values="0 0 0 0 0 0 0 0 0 0 0 0 0 0 0 0 0 0 127 0" result="hardAlpha"/>
<feOffset dy="4"/>
<feGaussianBlur stdDeviation="2"/>
<feComposite in2="hardAlpha" operator="out"/>
<feColorMatrix type="matrix" values="0 0 0 0 0 0 0 0 0 0 0 0 0 0 0 0 0 0 0.25 0"/>
<feBlend mode="normal" in2="BackgroundImageFix" result="effect1_dropShadow_98_6"/>
<feBlend mode="normal" in="SourceGraphic" in2="effect1_dropShadow_98_6" result="shape"/>
</filter>
</defs>
</svg>
