<svg width="30" height="34" viewBox="0 0 30 34" fill="none" xmlns="http://www.w3.org/2000/svg">
<path d="M15 21.2499C14.337 21.2499 13.7011 20.9514 13.2322 20.4201C12.7634 19.8887 12.5 19.168 12.5 18.4166C12.5 16.8441 13.625 15.5833 15 15.5833C15.663 15.5833 16.2989 15.8818 16.7678 16.4131C17.2366 16.9445 17.5 17.6651 17.5 18.4166C17.5 19.168 17.2366 19.8887 16.7678 20.4201C16.2989 20.9514 15.663 21.2499 15 21.2499ZM8.75 9.91659C8.75 8.34409 9.8625 7.08325 11.25 7.08325C11.913 7.08325 12.5489 7.38176 13.0178 7.91312C13.4866 8.44447 13.75 9.16514 13.75 9.91659C13.75 10.668 13.4866 11.3887 13.0178 11.9201C12.5489 12.4514 11.913 12.7499 11.25 12.7499C9.8625 12.7499 8.75 11.4749 8.75 9.91659ZM15 2.83325C10.5375 2.83325 6.5375 5.01492 3.75 8.49992L15 31.1666L26.25 8.49992C23.475 5.01492 19.4625 2.83325 15 2.83325Z" fill="#64040B" fill-opacity="0.43"/>
</svg>
